<svg width="415" height="309" viewBox="0 0 415 309" fill="none" xmlns="http://www.w3.org/2000/svg">
<path d="M415 271.544H0V271.752H415V271.544Z" fill="#EBEBEB"/>
<path d="M373.417 284.889H345.927V285.097H373.417V284.889Z" fill="#EBEBEB"/>
<path d="M274.912 287.145H267.7V287.353H274.912V287.145Z" fill="#EBEBEB"/>
<path d="M345.098 277.193H329.17V277.4H345.098V277.193Z" fill="#EBEBEB"/>
<path d="M79.3897 278.586H43.542V278.793H79.3897V278.586Z" fill="#EBEBEB"/>
<path d="M92.0386 278.586H86.7847V278.793H92.0386V278.586Z" fill="#EBEBEB"/>
<path d="M186.875 282.086H109.12V282.293H186.875V282.086Z" fill="#EBEBEB"/>
<path d="M196.71 234.553H36.4454C35.1899 234.551 33.9865 234.051 33.0995 233.163C32.2125 232.275 31.7144 231.072 31.7144 229.818V4.69439C31.7253 3.44699 32.2283 2.25428 33.1141 1.37532C33.9999 0.496359 35.197 0.00213685 36.4454 0H196.71C197.967 0 199.172 0.498955 200.061 1.3871C200.95 2.27525 201.449 3.47983 201.449 4.73585V229.818C201.449 231.074 200.95 232.278 200.061 233.166C199.172 234.054 197.967 234.553 196.71 234.553ZM36.4454 0.16588C35.2449 0.168077 34.0943 0.646154 33.2463 1.49518C32.3982 2.3442 31.9219 3.49479 31.9219 4.69439V229.818C31.9219 231.017 32.3982 232.168 33.2463 233.017C34.0943 233.866 35.2449 234.344 36.4454 234.346H196.71C197.911 234.344 199.063 233.866 199.912 233.017C200.762 232.168 201.24 231.018 201.242 229.818V4.69439C201.24 3.49402 200.762 2.34345 199.912 1.49467C199.063 0.645885 197.911 0.168072 196.71 0.16588H36.4454Z" fill="#EBEBEB"/>
<path d="M376.247 234.553H215.974C214.718 234.551 213.514 234.052 212.625 233.164C211.737 232.276 211.237 231.073 211.235 229.818V4.69439C211.248 3.44624 211.753 2.25353 212.64 1.3748C213.527 0.496069 214.725 0.00211354 215.974 0H376.247C377.494 0.00431659 378.689 0.499503 379.573 1.37823C380.457 2.25696 380.959 3.44843 380.97 4.69439V229.818C380.97 231.071 380.473 232.273 379.588 233.16C378.702 234.048 377.501 234.549 376.247 234.553ZM215.974 0.16588C214.773 0.168072 213.622 0.645885 212.772 1.49467C211.923 2.34345 211.445 3.49402 211.442 4.69439V229.818C211.445 231.018 211.923 232.168 212.772 233.017C213.622 233.866 214.773 234.344 215.974 234.346H376.247C377.448 234.344 378.6 233.866 379.449 233.017C380.299 232.168 380.777 231.018 380.779 229.818V4.69439C380.777 3.49402 380.299 2.34345 379.449 1.49467C378.6 0.645885 377.448 0.168072 376.247 0.16588H215.974Z" fill="#EBEBEB"/>
<path d="M230.914 270.74H355.588V88.0819L230.914 88.0819L230.914 270.74Z" fill="#F0F0F0"/>
<path d="M235.321 127.569L351.181 127.569V93.8379L235.321 93.8379V127.569Z" fill="#E0E0E0"/>
<path d="M344.591 127.569H351.173V99.2954H344.591V127.569Z" fill="#EBEBEB"/>
<path d="M312.769 127.569H319.351V99.2954H312.769V127.569Z" fill="#EBEBEB"/>
<path d="M271.845 126.442L278.331 127.56L283.137 99.6963L276.651 98.5791L271.845 126.442Z" fill="#EBEBEB"/>
<path d="M336.441 127.569H343.022V103.019H336.441V127.569Z" fill="#EBEBEB"/>
<path d="M321.318 127.569H327.9V103.019H321.318V127.569Z" fill="#EBEBEB"/>
<path d="M283.13 127.569H289.711V103.019H283.13V127.569Z" fill="#EBEBEB"/>
<path d="M298.807 126.134L305.232 127.561L310.562 103.595L304.137 102.168L298.807 126.134Z" fill="#EBEBEB"/>
<path d="M330.755 127.569H334.042V97.8937H330.755V127.569Z" fill="#EBEBEB"/>
<path d="M291.604 127.569H294.891V97.8937H291.604V127.569Z" fill="#EBEBEB"/>
<path d="M351.173 132.911H235.313V166.642H351.173V132.911Z" fill="#E0E0E0"/>
<path d="M241.895 138.377H235.313V166.651H241.895V138.377Z" fill="#EBEBEB"/>
<path d="M273.725 138.377H267.144V166.651H273.725V138.377Z" fill="#EBEBEB"/>
<path d="M309.857 137.652L303.371 138.77L308.177 166.633L314.663 165.516L309.857 137.652Z" fill="#EBEBEB"/>
<path d="M250.054 142.101H243.472V166.651H250.054V142.101Z" fill="#EBEBEB"/>
<path d="M265.185 142.101H258.603V166.651H265.185V142.101Z" fill="#EBEBEB"/>
<path d="M303.365 142.101H296.783V166.651H303.365V142.101Z" fill="#EBEBEB"/>
<path d="M282.374 141.235L275.949 142.662L281.279 166.628L287.704 165.201L282.374 141.235Z" fill="#EBEBEB"/>
<path d="M255.739 136.967H252.453V166.642H255.739V136.967Z" fill="#EBEBEB"/>
<path d="M294.891 136.967H291.604V166.642H294.891V136.967Z" fill="#EBEBEB"/>
<path d="M344.591 166.642H351.173V138.368H344.591V166.642Z" fill="#EBEBEB"/>
<path d="M336.441 166.642H343.022V142.092H336.441V166.642Z" fill="#EBEBEB"/>
<path d="M321.318 166.642H327.9V142.092H321.318V166.642Z" fill="#EBEBEB"/>
<path d="M330.755 166.651H334.042V136.975H330.755V166.651Z" fill="#EBEBEB"/>
<path d="M235.321 205.724H351.181V171.992H235.321V205.724Z" fill="#E0E0E0"/>
<path d="M278.091 205.724H284.673V177.449H278.091V205.724Z" fill="#EBEBEB"/>
<path d="M237.175 204.602L243.661 205.719L248.467 177.856L241.981 176.738L237.175 204.602Z" fill="#EBEBEB"/>
<path d="M301.763 205.724H308.345V181.173H301.763V205.724Z" fill="#EBEBEB"/>
<path d="M286.632 205.724H293.214V181.173H286.632V205.724Z" fill="#EBEBEB"/>
<path d="M248.452 205.724H255.034V181.173H248.452V205.724Z" fill="#EBEBEB"/>
<path d="M264.129 204.285L270.554 205.712L275.884 181.746L269.459 180.319L264.129 204.285Z" fill="#EBEBEB"/>
<path d="M296.077 205.724H299.364V176.048H296.077V205.724Z" fill="#EBEBEB"/>
<path d="M256.927 205.724H260.213V176.048H256.927V205.724Z" fill="#EBEBEB"/>
<path d="M312.892 204.596L319.378 205.713L324.185 177.85L317.698 176.733L312.892 204.596Z" fill="#EBEBEB"/>
<path d="M324.173 205.724H330.755V181.173H324.173V205.724Z" fill="#EBEBEB"/>
<path d="M339.86 204.285L346.285 205.712L351.615 181.746L345.19 180.319L339.86 204.285Z" fill="#EBEBEB"/>
<path d="M332.647 205.724H335.934V176.048H332.647V205.724Z" fill="#EBEBEB"/>
<path d="M377.085 88.0902H355.58V271.221H377.085V88.0902Z" fill="#E0E0E0"/>
<path d="M160.555 73.7333V48.0138H124.143V73.7333H160.555Z" fill="#E0E0E0"/>
<path d="M158.845 72.0497V49.6891H125.853V72.0497H158.845Z" fill="#EBEBEB"/>
<path d="M147.931 106.038V80.3188H111.519V106.038H147.931Z" fill="#E0E0E0"/>
<path d="M146.221 104.355V81.9941H113.229V104.355H146.221Z" fill="#EBEBEB"/>
<path d="M94.0637 73.7333H117.237V40.9722H94.0637V73.7333Z" fill="#E0E0E0"/>
<path d="M95.5747 72.1907H115.727V42.5066H95.5747V72.1907Z" fill="#EBEBEB"/>
<path d="M80.875 116.713H106.613V80.3271H80.875V116.713Z" fill="#E0E0E0"/>
<path d="M82.5602 114.996H104.937V82.0273H82.5602V114.996Z" fill="#EBEBEB"/>
<path d="M57.6851 53.5956V73.7333H86.1955V53.5956H57.6851Z" fill="#E0E0E0"/>
<path d="M59.0298 54.9143V72.4229H84.8594V54.9143H59.0298Z" fill="#EBEBEB"/>
<path d="M207.5 309C296.378 309 368.429 304.796 368.429 299.611C368.429 294.426 296.378 290.222 207.5 290.222C118.622 290.222 46.5713 294.426 46.5713 299.611C46.5713 304.796 118.622 309 207.5 309Z" fill="#F5F5F5"/>
<path d="M361.05 11.6115V44.2234C361.044 44.6454 360.953 45.0617 360.78 45.447C360.608 45.8322 360.359 46.1783 360.048 46.464C359.737 46.7497 359.371 46.969 358.973 47.1086C358.574 47.2481 358.151 47.305 357.73 47.2756H247.514C247.514 47.2756 234.774 41.3371 235.72 33.0431C236.442 26.408 237.189 21.0252 237.803 16.9197C238.167 14.5173 239.382 12.3252 241.227 10.7422C243.071 9.1592 245.423 8.29044 247.855 8.29396H357.73C358.611 8.29396 359.455 8.64348 360.078 9.26565C360.7 9.88782 361.05 10.7317 361.05 11.6115Z" fill="black"/>
<path opacity="0.6" d="M361.05 11.6115V44.2234C361.044 44.6454 360.953 45.0617 360.78 45.447C360.608 45.8322 360.359 46.1783 360.048 46.464C359.737 46.7497 359.371 46.969 358.973 47.1086C358.574 47.2481 358.151 47.305 357.73 47.2756H247.514C247.514 47.2756 234.774 41.3371 235.72 33.0431C236.442 26.408 237.189 21.0252 237.803 16.9197C238.167 14.5173 239.382 12.3252 241.227 10.7422C243.071 9.1592 245.423 8.29044 247.855 8.29396H357.73C358.611 8.29396 359.455 8.64348 360.078 9.26565C360.7 9.88782 361.05 10.7317 361.05 11.6115Z" fill="white"/>
<path opacity="0.2" d="M361.05 11.6115V44.2234C361.045 44.6454 360.953 45.0617 360.78 45.447C360.608 45.8322 360.359 46.1783 360.048 46.464C359.737 46.7497 359.371 46.969 358.973 47.1086C358.574 47.2481 358.152 47.305 357.73 47.2756H348.011C348.011 47.2756 335.262 41.3371 336.15 33.0432C336.872 26.408 337.619 21.0252 338.234 16.9197C338.597 14.5052 339.821 12.3032 341.68 10.7184C343.539 9.13365 345.908 8.27274 348.351 8.29396H357.73C358.611 8.29396 359.455 8.64349 360.078 9.26566C360.701 9.88783 361.05 10.7317 361.05 11.6115Z" fill="black"/>
<path d="M238.21 35.6641H334.49C334.49 35.6641 337.669 42.7139 343.064 45.6168H249C249 45.6168 239.04 41.0551 238.21 35.6641Z" fill="black"/>
<path opacity="0.2" d="M238.21 35.6641H334.49C334.49 35.6641 337.669 42.7139 343.064 45.6168H249C249 45.6168 239.04 41.0551 238.21 35.6641Z" fill="black"/>
<path d="M244.85 42.2992H337.81L336.424 45.6168H244.85V42.2992Z" fill="black"/>
<path d="M241.53 38.1523H334.49L333.104 41.4698H241.53V38.1523Z" fill="black"/>
<path d="M331.17 33.1759H328.821V34.1463H331.17V33.1759Z" fill="black"/>
<path d="M327.842 33.1759H325.493V34.1463H327.842V33.1759Z" fill="black"/>
<path d="M230.574 29.5597C230.338 29.3281 230.151 29.0519 230.023 28.7471C229.895 28.4424 229.829 28.1153 229.829 27.7848C229.829 27.4543 229.895 27.1272 230.023 26.8225C230.151 26.5177 230.338 26.2415 230.574 26.0099" stroke="black" stroke-linecap="round" stroke-linejoin="round"/>
<path d="M229.271 30.8701C228.864 30.4656 228.542 29.9848 228.322 29.4553C228.102 28.9258 227.988 28.3581 227.988 27.7848C227.988 27.2115 228.102 26.6438 228.322 26.1143C228.542 25.5848 228.864 25.104 229.271 24.6994" stroke="black" stroke-width="1.05659" stroke-linecap="round" stroke-linejoin="round"/>
<path d="M228.059 32.0811C227.493 31.5177 227.044 30.8482 226.737 30.111C226.431 29.3737 226.273 28.5832 226.273 27.7848C226.273 26.9864 226.431 26.1959 226.737 25.4586C227.044 24.7214 227.493 24.0519 228.059 23.4885" stroke="black" stroke-linecap="round" stroke-linejoin="round"/>
<path d="M232.276 28.4898C232.665 28.4898 232.981 28.1741 232.981 27.7848C232.981 27.3954 232.665 27.0798 232.276 27.0798C231.886 27.0798 231.57 27.3954 231.57 27.7848C231.57 28.1741 231.886 28.4898 232.276 28.4898Z" fill="black"/>
<path d="M41.5 215.643V300.242H47.31V228.084H144.42V300.242H151.89V215.643H41.5Z" fill="#263238"/>
<path opacity="0.3" d="M41.5 215.643V300.242H47.31V228.084H144.42V300.242H151.89V215.643H41.5Z" fill="black"/>
<path opacity="0.4" d="M41.5 215.643V300.242H47.31V228.084H144.42V300.242H151.89V215.643H41.5Z" fill="white"/>
<path d="M97.9399 215.643V300.242H103.75V228.084H200.86V300.242H208.33V215.643H97.9399Z" fill="#263238"/>
<path opacity="0.5" d="M97.9399 215.643V300.242H103.75V228.084H200.86V300.242H208.33V215.643H97.9399Z" fill="white"/>
<path d="M197.872 157.328H165.851C163.793 157.328 162.124 158.996 162.124 161.052V211.919C162.124 213.976 163.793 215.643 165.851 215.643H197.872C199.93 215.643 201.599 213.976 201.599 211.919V161.052C201.599 158.996 199.93 157.328 197.872 157.328Z" fill="#263238"/>
<path opacity="0.1" d="M197.872 157.328H165.851C163.793 157.328 162.124 158.996 162.124 161.052V211.919C162.124 213.976 163.793 215.643 165.851 215.643H197.872C199.93 215.643 201.599 213.976 201.599 211.919V161.052C201.599 158.996 199.93 157.328 197.872 157.328Z" fill="white"/>
<path opacity="0.1" d="M197.872 157.328H187.713C185.655 157.328 183.986 158.996 183.986 161.052V211.919C183.986 213.976 185.655 215.643 187.713 215.643H197.872C199.93 215.643 201.599 213.976 201.599 211.919V161.052C201.599 158.996 199.93 157.328 197.872 157.328Z" fill="white"/>
<path opacity="0.3" d="M193.39 175.351C192.219 175.353 191.074 175.007 190.1 174.358C189.126 173.71 188.366 172.787 187.917 171.706C187.468 170.626 187.349 169.437 187.577 168.289C187.804 167.141 188.367 166.087 189.194 165.259C190.022 164.431 191.076 163.867 192.224 163.638C193.372 163.409 194.563 163.526 195.645 163.973C196.726 164.421 197.651 165.178 198.302 166.151C198.952 167.124 199.3 168.267 199.3 169.437C199.297 171.004 198.674 172.505 197.567 173.614C196.459 174.722 194.957 175.347 193.39 175.351Z" fill="black"/>
<path opacity="0.2" d="M198.528 169.437C198.528 170.459 198.225 171.458 197.656 172.308C197.088 173.158 196.281 173.82 195.336 174.211C194.391 174.602 193.351 174.705 192.348 174.505C191.345 174.306 190.424 173.814 189.701 173.091C188.977 172.368 188.485 171.448 188.285 170.445C188.086 169.443 188.188 168.404 188.58 167.46C188.971 166.516 189.634 165.709 190.484 165.141C191.334 164.573 192.334 164.27 193.357 164.27C194.728 164.27 196.044 164.815 197.013 165.784C197.983 166.753 198.528 168.067 198.528 169.437Z" fill="white"/>
<path opacity="0.3" d="M195.432 169.437C195.433 169.95 195.283 170.451 194.999 170.878C194.715 171.305 194.31 171.638 193.837 171.835C193.363 172.032 192.842 172.084 192.339 171.984C191.836 171.885 191.374 171.638 191.011 171.275C190.648 170.913 190.401 170.451 190.302 169.949C190.202 169.446 190.254 168.925 190.451 168.452C190.648 167.978 190.981 167.574 191.409 167.291C191.836 167.007 192.337 166.856 192.85 166.858C193.534 166.86 194.19 167.133 194.673 167.616C195.157 168.099 195.429 168.754 195.432 169.437Z" fill="black"/>
<path opacity="0.2" d="M194.967 169.437C194.967 169.856 194.843 170.265 194.61 170.612C194.378 170.96 194.047 171.231 193.66 171.391C193.274 171.551 192.848 171.593 192.437 171.512C192.027 171.43 191.65 171.229 191.354 170.933C191.058 170.637 190.856 170.26 190.775 169.85C190.693 169.44 190.735 169.015 190.895 168.628C191.055 168.242 191.326 167.911 191.675 167.679C192.023 167.446 192.432 167.322 192.85 167.322C193.412 167.322 193.95 167.545 194.347 167.942C194.744 168.339 194.967 168.877 194.967 169.437Z" fill="white"/>
<path opacity="0.3" d="M193.39 193.598C192.077 193.598 190.793 193.209 189.701 192.48C188.609 191.75 187.758 190.714 187.255 189.502C186.753 188.289 186.621 186.955 186.878 185.668C187.134 184.381 187.766 183.199 188.695 182.271C189.623 181.343 190.807 180.711 192.095 180.455C193.383 180.199 194.718 180.33 195.931 180.832C197.144 181.335 198.181 182.185 198.911 183.276C199.641 184.367 200.03 185.65 200.03 186.963C200.03 188.722 199.33 190.41 198.085 191.654C196.84 192.899 195.151 193.598 193.39 193.598Z" fill="black"/>
<path opacity="0.2" d="M199.134 186.996C199.134 188.144 198.793 189.267 198.155 190.221C197.516 191.176 196.609 191.92 195.547 192.36C194.485 192.799 193.317 192.914 192.19 192.69C191.063 192.466 190.028 191.913 189.215 191.101C188.403 190.289 187.849 189.255 187.625 188.128C187.401 187.002 187.516 185.835 187.956 184.774C188.396 183.713 189.14 182.806 190.096 182.168C191.051 181.53 192.175 181.19 193.324 181.19C194.865 181.19 196.342 181.802 197.432 182.89C198.522 183.979 199.134 185.456 199.134 186.996Z" fill="white"/>
<path opacity="0.3" d="M195.681 186.996C195.681 187.567 195.511 188.125 195.194 188.599C194.876 189.074 194.425 189.444 193.898 189.662C193.37 189.881 192.789 189.938 192.229 189.827C191.668 189.715 191.154 189.44 190.75 189.037C190.346 188.633 190.071 188.119 189.959 187.559C189.848 186.999 189.905 186.419 190.124 185.891C190.342 185.364 190.713 184.913 191.188 184.596C191.662 184.279 192.221 184.109 192.792 184.109C193.558 184.109 194.293 184.414 194.835 184.955C195.376 185.496 195.681 186.23 195.681 186.996Z" fill="black"/>
<path opacity="0.2" d="M195.158 186.996C195.158 187.463 195.019 187.92 194.759 188.309C194.499 188.698 194.13 189.001 193.698 189.18C193.265 189.359 192.79 189.405 192.331 189.314C191.872 189.223 191.45 188.998 191.12 188.667C190.789 188.337 190.563 187.915 190.472 187.457C190.381 186.998 190.428 186.523 190.607 186.091C190.786 185.659 191.089 185.29 191.478 185.03C191.867 184.771 192.324 184.632 192.792 184.632C193.419 184.634 194.019 184.884 194.463 185.327C194.906 185.77 195.156 186.37 195.158 186.996Z" fill="white"/>
<path d="M154.712 195.008H100.289V215.643H154.712V195.008Z" fill="#263238"/>
<path d="M156.389 180.643H99.409C98.5977 180.643 97.9399 181.3 97.9399 182.111V195.779C97.9399 196.59 98.5977 197.247 99.409 197.247H156.389C157.2 197.247 157.858 196.59 157.858 195.779V182.111C157.858 181.3 157.2 180.643 156.389 180.643Z" fill="#263238"/>
<path opacity="0.2" d="M156.389 180.643H123.205C122.394 180.643 121.736 181.3 121.736 182.111V195.779C121.736 196.59 122.394 197.247 123.205 197.247H156.389C157.2 197.247 157.858 196.59 157.858 195.779V182.111C157.858 181.3 157.2 180.643 156.389 180.643Z" fill="white"/>
<path d="M156.389 198.068H99.409C98.5977 198.068 97.9399 198.725 97.9399 199.536V213.205C97.9399 214.015 98.5977 214.673 99.409 214.673H156.389C157.2 214.673 157.858 214.015 157.858 213.205V199.536C157.858 198.725 157.2 198.068 156.389 198.068Z" fill="#263238"/>
<path opacity="0.2" d="M156.389 198.068H123.205C122.394 198.068 121.736 198.725 121.736 199.536V213.205C121.736 214.015 122.394 214.673 123.205 214.673H156.389C157.2 214.673 157.858 214.015 157.858 213.205V199.536C157.858 198.725 157.2 198.068 156.389 198.068Z" fill="white"/>
<path opacity="0.1" d="M156.389 180.643H99.409C98.5977 180.643 97.9399 181.3 97.9399 182.111V195.779C97.9399 196.59 98.5977 197.247 99.409 197.247H156.389C157.2 197.247 157.858 196.59 157.858 195.779V182.111C157.858 181.3 157.2 180.643 156.389 180.643Z" fill="white"/>
<path opacity="0.1" d="M156.389 198.068H99.409C98.5977 198.068 97.9399 198.725 97.9399 199.536V213.205C97.9399 214.015 98.5977 214.673 99.409 214.673H156.389C157.2 214.673 157.858 214.015 157.858 213.205V199.536C157.858 198.725 157.2 198.068 156.389 198.068Z" fill="white"/>
<path d="M147.093 186.614H134.601V192.544H147.093V186.614Z" fill="black"/>
<path opacity="0.3" d="M148.155 186.133H133.489V192.992H148.155V186.133Z" fill="black"/>
<path d="M133.564 206.594C133.564 207.347 133.34 208.083 132.922 208.709C132.503 209.335 131.908 209.823 131.212 210.112C130.516 210.4 129.75 210.475 129.011 210.328C128.272 210.181 127.593 209.819 127.06 209.286C126.527 208.754 126.165 208.076 126.018 207.337C125.871 206.599 125.946 205.833 126.234 205.138C126.523 204.442 127.011 203.847 127.637 203.429C128.264 203.011 129.001 202.787 129.754 202.787C130.764 202.787 131.733 203.189 132.448 203.903C133.162 204.616 133.564 205.585 133.564 206.594Z" fill="#263238"/>
<path d="M135.223 206.594C135.223 207.347 135 208.083 134.581 208.709C134.163 209.335 133.568 209.823 132.872 210.112C132.175 210.4 131.409 210.475 130.67 210.328C129.931 210.181 129.253 209.819 128.72 209.286C128.187 208.754 127.824 208.076 127.677 207.337C127.53 206.599 127.606 205.833 127.894 205.138C128.182 204.442 128.671 203.847 129.297 203.429C129.924 203.011 130.66 202.787 131.414 202.787C131.914 202.786 132.41 202.884 132.873 203.075C133.336 203.266 133.756 203.546 134.11 203.9C134.464 204.254 134.745 204.674 134.936 205.136C135.127 205.599 135.224 206.094 135.223 206.594Z" fill="#263238"/>
<path opacity="0.5" d="M135.223 206.594C135.223 207.347 135 208.083 134.581 208.709C134.163 209.335 133.568 209.823 132.872 210.112C132.175 210.4 131.409 210.475 130.67 210.328C129.931 210.181 129.253 209.819 128.72 209.286C128.187 208.754 127.824 208.076 127.677 207.337C127.53 206.599 127.606 205.833 127.894 205.138C128.182 204.442 128.671 203.847 129.297 203.429C129.924 203.011 130.66 202.787 131.414 202.787C131.914 202.786 132.41 202.884 132.873 203.075C133.336 203.266 133.756 203.546 134.11 203.9C134.464 204.254 134.745 204.674 134.936 205.136C135.127 205.599 135.224 206.094 135.223 206.594Z" fill="white"/>
<path d="M155.152 206.594C155.15 207.345 154.926 208.079 154.507 208.703C154.089 209.326 153.494 209.812 152.8 210.098C152.105 210.384 151.341 210.458 150.604 210.311C149.867 210.163 149.191 209.801 148.66 209.269C148.129 208.738 147.768 208.061 147.622 207.324C147.476 206.588 147.552 205.824 147.839 205.131C148.127 204.437 148.615 203.844 149.24 203.427C149.865 203.01 150.599 202.787 151.351 202.787C151.851 202.787 152.346 202.886 152.807 203.077C153.269 203.269 153.689 203.549 154.042 203.903C154.395 204.257 154.675 204.676 154.865 205.138C155.056 205.6 155.153 206.095 155.152 206.594Z" fill="#263238"/>
<path d="M156.812 206.594C156.81 207.345 156.586 208.079 156.167 208.703C155.748 209.326 155.154 209.812 154.459 210.098C153.765 210.384 153.001 210.458 152.264 210.311C151.527 210.163 150.85 209.801 150.319 209.269C149.789 208.738 149.427 208.061 149.281 207.324C149.135 206.588 149.211 205.824 149.499 205.131C149.787 204.437 150.274 203.844 150.899 203.427C151.524 203.01 152.259 202.787 153.01 202.787C153.51 202.787 154.005 202.886 154.467 203.077C154.929 203.269 155.348 203.549 155.701 203.903C156.054 204.257 156.334 204.676 156.525 205.138C156.715 205.6 156.813 206.095 156.812 206.594Z" fill="#263238"/>
<path opacity="0.5" d="M156.812 206.594C156.81 207.345 156.586 208.079 156.167 208.703C155.748 209.326 155.154 209.812 154.459 210.098C153.765 210.384 153.001 210.458 152.264 210.311C151.527 210.163 150.85 209.801 150.319 209.269C149.789 208.738 149.427 208.061 149.281 207.324C149.135 206.588 149.211 205.824 149.499 205.131C149.787 204.437 150.274 203.844 150.899 203.427C151.524 203.01 152.259 202.787 153.01 202.787C153.51 202.787 154.005 202.886 154.467 203.077C154.929 203.269 155.348 203.549 155.701 203.903C156.054 204.257 156.334 204.676 156.525 205.138C156.715 205.6 156.813 206.095 156.812 206.594Z" fill="white"/>
<path opacity="0.5" d="M138.295 205.831H136.602V207.523H138.295V205.831Z" fill="white"/>
<path opacity="0.5" d="M140.643 205.831H138.95V207.523H140.643V205.831Z" fill="white"/>
<path opacity="0.5" d="M142.984 205.831H141.291V207.523H142.984V205.831Z" fill="white"/>
<path opacity="0.5" d="M145.333 205.831H143.64V207.523H145.333V205.831Z" fill="white"/>
<path d="M88.3121 157.328H56.2907C54.2325 157.328 52.564 158.996 52.564 161.052V211.919C52.564 213.976 54.2325 215.643 56.2907 215.643H88.3121C90.3703 215.643 92.0388 213.976 92.0388 211.919V161.052C92.0388 158.996 90.3703 157.328 88.3121 157.328Z" fill="#263238"/>
<path opacity="0.1" d="M88.3121 157.328H56.2907C54.2325 157.328 52.564 158.996 52.564 161.052V211.919C52.564 213.976 54.2325 215.643 56.2907 215.643H88.3121C90.3703 215.643 92.0388 213.976 92.0388 211.919V161.052C92.0388 158.996 90.3703 157.328 88.3121 157.328Z" fill="white"/>
<path opacity="0.1" d="M88.3122 157.328H78.153C76.0948 157.328 74.4263 158.996 74.4263 161.052V211.919C74.4263 213.976 76.0948 215.643 78.153 215.643H88.3122C90.3704 215.643 92.0389 213.976 92.0389 211.919V161.052C92.0389 158.996 90.3704 157.328 88.3122 157.328Z" fill="white"/>
<path opacity="0.3" d="M83.83 175.351C82.6592 175.353 81.5142 175.007 80.5399 174.358C79.5657 173.71 78.8059 172.787 78.3567 171.706C77.9075 170.626 77.7891 169.437 78.0165 168.289C78.2439 167.141 78.8069 166.087 79.6342 165.259C80.4615 164.431 81.5159 163.867 82.6641 163.638C83.8123 163.409 85.0026 163.526 86.0845 163.973C87.1663 164.421 88.0911 165.178 88.7417 166.151C89.3923 167.124 89.7396 168.267 89.7396 169.437C89.7374 171.004 89.1144 172.505 88.0068 173.614C86.8993 174.722 85.3974 175.347 83.83 175.351Z" fill="black"/>
<path opacity="0.2" d="M88.9678 169.437C88.9678 170.459 88.6645 171.458 88.0963 172.308C87.5281 173.158 86.7206 173.82 85.7757 174.211C84.8308 174.602 83.7911 174.705 82.7881 174.505C81.785 174.306 80.8637 173.814 80.1405 173.091C79.4173 172.368 78.9249 171.448 78.7253 170.445C78.5258 169.443 78.6282 168.404 79.0196 167.46C79.411 166.516 80.0737 165.709 80.9241 165.141C81.7744 164.573 82.7742 164.27 83.7969 164.27C85.1683 164.27 86.4835 164.815 87.4533 165.784C88.423 166.753 88.9678 168.067 88.9678 169.437Z" fill="white"/>
<path opacity="0.3" d="M85.8716 169.437C85.8732 169.95 85.7225 170.451 85.4386 170.878C85.1547 171.305 84.7503 171.638 84.2768 171.835C83.8033 172.032 83.2819 172.084 82.7788 171.984C82.2757 171.885 81.8135 171.638 81.4509 171.275C81.0882 170.913 80.8414 170.451 80.7417 169.949C80.6421 169.446 80.6941 168.925 80.8911 168.452C81.0881 167.978 81.4213 167.574 81.8485 167.291C82.2756 167.007 82.7774 166.856 83.2903 166.858C83.9742 166.86 84.6295 167.133 85.1131 167.616C85.5967 168.099 85.8694 168.754 85.8716 169.437Z" fill="black"/>
<path opacity="0.2" d="M85.4068 169.437C85.4068 169.856 85.2827 170.265 85.0501 170.612C84.8176 170.96 84.487 171.231 84.1003 171.391C83.7135 171.551 83.288 171.593 82.8774 171.512C82.4669 171.43 82.0897 171.229 81.7937 170.933C81.4977 170.637 81.2962 170.26 81.2145 169.85C81.1328 169.44 81.1747 169.015 81.3349 168.628C81.4951 168.242 81.7664 167.911 82.1145 167.679C82.4625 167.446 82.8717 167.322 83.2903 167.322C83.8517 167.322 84.39 167.545 84.7869 167.942C85.1838 168.339 85.4068 168.877 85.4068 169.437Z" fill="white"/>
<path opacity="0.3" d="M83.8299 193.598C82.5167 193.598 81.2329 193.209 80.141 192.48C79.049 191.75 78.198 190.714 77.6954 189.502C77.1928 188.289 77.0613 186.955 77.3175 185.668C77.5737 184.381 78.2061 183.199 79.1348 182.271C80.0634 181.343 81.2465 180.711 82.5345 180.455C83.8226 180.199 85.1577 180.33 86.371 180.832C87.5843 181.335 88.6213 182.185 89.3509 183.276C90.0805 184.367 90.4699 185.65 90.4699 186.963C90.4699 188.722 89.7704 190.41 88.5251 191.654C87.2799 192.899 85.591 193.598 83.8299 193.598Z" fill="black"/>
<path opacity="0.2" d="M89.5736 186.996C89.5736 188.144 89.2329 189.267 88.5945 190.221C87.956 191.176 87.0486 191.92 85.987 192.36C84.9254 192.799 83.7572 192.914 82.6301 192.69C81.5031 192.466 80.4679 191.913 79.6553 191.101C78.8428 190.289 78.2894 189.255 78.0653 188.128C77.8411 187.002 77.9561 185.835 78.3959 184.774C78.8356 183.713 79.5803 182.806 80.5357 182.168C81.4912 181.53 82.6145 181.19 83.7636 181.19C85.3045 181.19 86.7823 181.802 87.8719 182.89C88.9615 183.979 89.5736 185.456 89.5736 186.996Z" fill="white"/>
<path opacity="0.3" d="M86.1206 186.996C86.1206 187.567 85.9512 188.125 85.6338 188.599C85.3164 189.074 84.8653 189.444 84.3375 189.662C83.8097 189.881 83.229 189.938 82.6687 189.827C82.1084 189.715 81.5937 189.44 81.1897 189.037C80.7858 188.633 80.5107 188.119 80.3993 187.559C80.2878 186.999 80.345 186.419 80.5636 185.891C80.7822 185.364 81.1525 184.913 81.6274 184.596C82.1024 184.279 82.6609 184.109 83.2322 184.109C83.9982 184.109 84.7329 184.414 85.2746 184.955C85.8162 185.496 86.1206 186.23 86.1206 186.996Z" fill="black"/>
<path opacity="0.2" d="M85.5977 186.996C85.5977 187.463 85.459 187.92 85.199 188.309C84.9391 188.698 84.5697 189.001 84.1374 189.18C83.7052 189.359 83.2296 189.405 82.7707 189.314C82.3119 189.223 81.8904 188.998 81.5595 188.667C81.2287 188.337 81.0034 187.915 80.9122 187.457C80.8209 186.998 80.8677 186.523 81.0468 186.091C81.2258 185.659 81.529 185.29 81.918 185.03C82.307 184.771 82.7643 184.632 83.2322 184.632C83.8589 184.634 84.4593 184.884 84.9024 185.327C85.3456 185.77 85.5955 186.37 85.5977 186.996Z" fill="white"/>
<path d="M129.48 172.971C129.712 172.734 129.989 172.545 130.295 172.417C130.6 172.288 130.929 172.222 131.26 172.222C131.592 172.222 131.92 172.288 132.226 172.417C132.532 172.545 132.809 172.734 133.041 172.971" stroke="black" stroke-linecap="round" stroke-linejoin="round"/>
<path d="M128.168 171.685C128.988 170.869 130.099 170.41 131.256 170.41C132.414 170.41 133.524 170.869 134.344 171.685" stroke="black" stroke-width="1.05659" stroke-linecap="round" stroke-linejoin="round"/>
<path d="M126.99 170.449C128.132 169.31 129.68 168.671 131.294 168.671C132.907 168.671 134.455 169.31 135.597 170.449" stroke="black" stroke-linecap="round" stroke-linejoin="round"/>
<path d="M131.97 174.663C131.972 174.804 131.931 174.943 131.853 175.062C131.775 175.181 131.664 175.273 131.533 175.328C131.402 175.383 131.258 175.398 131.119 175.371C130.98 175.344 130.852 175.275 130.752 175.175C130.651 175.075 130.583 174.947 130.556 174.808C130.529 174.669 130.543 174.525 130.598 174.394C130.653 174.263 130.746 174.152 130.865 174.074C130.984 173.997 131.123 173.956 131.265 173.958C131.452 173.958 131.631 174.032 131.763 174.164C131.896 174.296 131.97 174.476 131.97 174.663Z" fill="black"/>
<path d="M252.768 226.21H202.777C197.446 226.21 193.124 230.528 193.124 235.855V275.127C193.124 280.455 197.446 284.773 202.777 284.773H252.768C258.099 284.773 262.421 280.455 262.421 275.127V235.855C262.421 230.528 258.099 226.21 252.768 226.21Z" fill="black"/>
<path opacity="0.1" d="M252.768 226.21H202.777C197.446 226.21 193.124 230.528 193.124 235.855V275.127C193.124 280.455 197.446 284.773 202.777 284.773H252.768C258.099 284.773 262.421 280.455 262.421 275.127V235.855C262.421 230.528 258.099 226.21 252.768 226.21Z" fill="white"/>
<path opacity="0.2" d="M202.769 284.782C200.21 284.779 197.757 283.762 195.948 281.953C194.14 280.145 193.124 277.693 193.124 275.136V235.855C193.124 233.299 194.14 230.846 195.948 229.038C197.757 227.229 200.21 226.212 202.769 226.21C205.329 226.21 207.784 227.226 209.594 229.035C211.405 230.844 212.422 233.297 212.422 235.855V275.136C212.422 277.694 211.405 280.147 209.594 281.956C207.784 283.765 205.329 284.782 202.769 284.782Z" fill="white"/>
<path d="M82.9997 282.468L80.0947 300.242H86.3197L92.0384 283.289L82.9997 282.468Z" fill="#263238"/>
<path d="M167.984 282.468L170.889 300.242H164.664L158.945 283.289L167.984 282.468Z" fill="#263238"/>
<path opacity="0.1" d="M82.9997 282.468L80.0947 300.242H86.3197L92.0384 283.289L82.9997 282.468Z" fill="white"/>
<path opacity="0.1" d="M167.984 282.468L170.889 300.242H164.664L158.945 283.289L167.984 282.468Z" fill="white"/>
<path d="M256.47 282.468L253.565 300.242H259.79L265.509 283.289L256.47 282.468Z" fill="#263238"/>
<path d="M341.454 282.468L344.359 300.242H338.134L332.415 283.289L341.454 282.468Z" fill="#263238"/>
<path d="M346.409 244.672H77.721C73.7605 244.672 70.5498 247.88 70.5498 251.838V279.805C70.5498 283.763 73.7605 286.971 77.721 286.971H346.409C350.369 286.971 353.58 283.763 353.58 279.805V251.838C353.58 247.88 350.369 244.672 346.409 244.672Z" fill="black"/>
<path opacity="0.1" d="M346.409 244.672H77.721C73.7605 244.672 70.5498 247.88 70.5498 251.838V279.805C70.5498 283.763 73.7605 286.971 77.721 286.971H346.409C350.369 286.971 353.58 283.763 353.58 279.805V251.838C353.58 247.88 350.369 244.672 346.409 244.672Z" fill="white"/>
<path opacity="0.2" d="M170.449 244.672H77.721C73.7605 244.672 70.5498 247.88 70.5498 251.838V279.805C70.5498 283.763 73.7605 286.971 77.721 286.971H170.449C174.409 286.971 177.62 283.763 177.62 279.805V251.838C177.62 247.88 174.409 244.672 170.449 244.672Z" fill="white"/>
<path d="M247.34 245.651H349.43L364.984 165.382C365.382 163.32 365.319 161.195 364.798 159.161C364.277 157.126 363.312 155.232 361.972 153.615C360.632 151.997 358.95 150.696 357.047 149.806C355.144 148.915 353.067 148.456 350.965 148.462H277.876C274.578 148.471 271.385 149.623 268.844 151.723C266.302 153.823 264.569 156.739 263.94 159.974L247.34 245.651Z" fill="black"/>
<g opacity="0.1">
<path d="M247.34 245.651H349.43L364.984 165.382C365.382 163.32 365.319 161.195 364.798 159.161C364.277 157.126 363.312 155.232 361.972 153.615C360.632 151.997 358.95 150.696 357.047 149.806C355.144 148.915 353.067 148.456 350.965 148.462H277.876C274.578 148.471 271.385 149.623 268.844 151.723C266.302 153.823 264.569 156.739 263.94 159.974L247.34 245.651Z" fill="white"/>
</g>
<path opacity="0.2" d="M247.34 245.501H320.38L336.98 159.899C337.614 156.664 339.358 153.751 341.911 151.663C344.464 149.575 347.666 148.443 350.965 148.462H277.876C274.584 148.455 271.392 149.594 268.849 151.682C266.306 153.771 264.57 156.679 263.94 159.908L247.34 245.501Z" fill="white"/>
<path d="M360.735 226.21H310.744C305.413 226.21 301.091 230.528 301.091 235.855V275.127C301.091 280.455 305.413 284.773 310.744 284.773H360.735C366.066 284.773 370.388 280.455 370.388 275.127V235.855C370.388 230.528 366.066 226.21 360.735 226.21Z" fill="black"/>
<path opacity="0.1" d="M360.735 226.21H310.744C305.413 226.21 301.091 230.528 301.091 235.855V275.127C301.091 280.455 305.413 284.773 310.744 284.773H360.735C366.066 284.773 370.388 280.455 370.388 275.127V235.855C370.388 230.528 366.066 226.21 360.735 226.21Z" fill="white"/>
<path opacity="0.2" d="M310.735 284.782C308.177 284.779 305.724 283.762 303.915 281.953C302.107 280.145 301.091 277.693 301.091 275.136V235.855C301.091 233.299 302.107 230.846 303.915 229.038C305.724 227.229 308.177 226.212 310.735 226.21C313.294 226.212 315.747 227.229 317.556 229.038C319.364 230.846 320.38 233.299 320.38 235.855V275.136C320.38 277.693 319.364 280.145 317.556 281.953C315.747 283.762 313.294 284.779 310.735 284.782Z" fill="white"/>
<path d="M269.012 236.901C269.012 236.901 261.176 247.99 249.092 247.16C226.458 245.609 198.951 213.984 195.631 213.711C190.377 213.271 146.661 236.934 146.661 236.934L138.61 227.943C138.61 227.943 185.63 190.861 195.88 190.255C206.131 189.65 269.012 236.901 269.012 236.901Z" fill="black"/>
<path opacity="0.6" d="M269.128 236.901C269.064 236.955 269.012 237.022 268.976 237.098C268.94 237.174 268.921 237.256 268.92 237.34C266.595 240.254 263.715 242.678 260.446 244.473C257.016 246.454 253.08 247.388 249.125 247.16C226.491 245.609 198.96 213.984 195.64 213.711C190.386 213.271 146.67 236.934 146.67 236.934L138.61 227.943C138.61 227.943 156.87 213.57 173.064 202.572C182.899 195.937 192.004 190.488 195.872 190.255C205.384 189.7 260.263 230.332 268.124 236.196C268.746 236.652 269.128 236.901 269.128 236.901Z" fill="white"/>
<path d="M256.404 150.411C256.404 150.411 251.955 150.328 251.806 151.116C251.656 151.904 251.938 158.398 252.528 159.311C253.181 160.134 253.924 160.883 254.744 161.542L251.49 171.221L256.977 173.999L259.384 163.449C259.384 163.449 262.106 160.787 261.309 157.411C260.512 154.036 256.404 150.411 256.404 150.411Z" fill="#EEC1BB"/>
<path opacity="0.2" d="M256.404 150.411C256.404 150.411 251.955 150.328 251.806 151.116C251.656 151.904 251.938 158.398 252.528 159.311C253.181 160.134 253.924 160.883 254.744 161.542L251.49 171.221L256.977 173.999L259.384 163.449C259.384 163.449 262.106 160.787 261.309 157.411C260.512 154.036 256.404 150.411 256.404 150.411Z" fill="black"/>
<path d="M250.66 171.345L252.013 168.492L258.719 171.345L258.28 174.795L250.66 171.345Z" fill="#263238"/>
<path d="M275.145 162.976C268.505 163.117 257.159 189.658 257.159 189.658C257.159 189.658 259.724 176.661 259.135 175.144C258.545 173.626 252.876 169.885 249.83 170.715C246.784 171.544 240.285 192.909 244.85 200.407C249.415 207.905 257.856 209.696 269.609 201.817C281.362 193.938 275.145 162.976 275.145 162.976Z" fill="#263238"/>
<path opacity="0.3" d="M270.58 201.087C270.273 201.344 269.95 201.56 269.618 201.792C262.878 206.304 257.234 207.349 252.777 206.52C251.114 206.077 249.557 205.304 248.198 204.249C246.839 203.193 245.707 201.875 244.867 200.374C240.302 192.909 246.801 171.528 249.847 170.698C252.893 169.869 258.562 173.609 259.151 175.135C259.741 176.661 257.3 189.102 257.168 189.642C257.516 188.812 268.605 163.101 275.145 162.976C275.145 162.976 281.022 192.196 270.58 201.087Z" fill="black"/>
<path opacity="0.2" d="M270.58 201.087C270.272 201.347 269.951 201.59 269.618 201.817C262.878 206.329 257.234 207.673 252.777 206.578C262.148 202.082 269.169 190.255 269.169 190.255L270.58 201.087Z" fill="black"/>
<path d="M286.118 162.288C286.118 162.288 289.38 156.333 301.971 158.688C314.562 161.044 312.13 165.979 308.08 167.721C304.029 169.462 289.471 167.721 289.471 167.721C289.471 167.721 285.305 164.494 286.118 162.288Z" fill="#263238"/>
<path opacity="0.2" d="M286.118 162.288C286.118 162.288 289.38 156.333 301.971 158.688C314.562 161.044 312.13 165.979 308.08 167.721C304.029 169.462 289.471 167.721 289.471 167.721C289.471 167.721 285.305 164.494 286.118 162.288Z" fill="black"/>
<path d="M250.66 218.646C250.66 218.646 263.318 210.053 267.26 197.081C271.203 184.109 275.145 162.968 275.145 162.968C275.145 162.968 294.028 158.199 312.288 165.042C330.548 171.884 310.063 231.568 293.272 237.871L250.66 218.646Z" fill="#263238"/>
<path d="M304.261 146.48C302.601 151.456 300.418 160.704 303.564 164.577C301.858 165.94 299.898 166.952 297.798 167.553C295.698 168.153 293.499 168.332 291.33 168.077C284.748 167.397 287.703 162.562 287.703 162.562C293.579 161.923 293.969 157.668 293.513 153.571L304.261 146.48Z" fill="#EEC1BB"/>
<path opacity="0.2" d="M299.854 149.374L293.447 153.571C293.574 154.525 293.618 155.488 293.58 156.449C295.804 156.449 299.099 154.4 299.622 152.153C299.869 151.249 299.948 150.307 299.854 149.374Z" fill="black"/>
<path d="M293.82 131.385C296.368 133.732 294.592 136.792 287.429 140.931C285.329 137.174 285.877 130.564 288.184 129.22C290.492 127.876 291.596 129.386 293.82 131.385Z" fill="#263238"/>
<path d="M305.208 138.509C304.228 143.56 303.73 147.11 301.963 149.864C301.29 150.896 300.448 151.807 299.473 152.559C293.505 157.212 285.363 152.916 284.624 145.791C284.624 145.567 284.582 145.335 284.574 145.103C284.126 138.675 286.5 129.154 293.397 127.362C294.97 126.942 296.624 126.931 298.203 127.33C299.781 127.73 301.231 128.526 302.415 129.643C303.598 130.76 304.476 132.161 304.965 133.713C305.454 135.265 305.538 136.916 305.208 138.509Z" fill="#EEC1BB"/>
<path opacity="0.3" d="M301.962 149.822C301.29 150.854 300.448 151.766 299.472 152.518C293.505 157.171 285.362 152.874 284.624 145.75C284.624 145.526 284.582 145.294 284.574 145.061C285.869 145.783 287.678 146.596 289.039 146.48C291.421 146.289 293.969 144.655 295.621 144.133C296.64 143.879 297.702 143.85 298.734 144.05C298.734 144.05 301.381 142.391 302.054 139.903L302.718 141.346C303.109 144.192 302.851 147.09 301.962 149.822Z" fill="black"/>
<path d="M294.65 139.007C294.576 139.571 294.21 139.986 293.82 139.936C293.43 139.886 293.214 139.397 293.289 138.833C293.364 138.269 293.721 137.854 294.119 137.895C294.517 137.937 294.65 138.451 294.65 139.007Z" fill="#263238"/>
<path d="M288.201 138.177C288.126 138.741 287.769 139.156 287.371 139.106C286.973 139.057 286.757 138.567 286.832 137.995C286.906 137.423 287.263 137.016 287.662 137.066C288.06 137.116 288.276 137.613 288.201 138.177Z" fill="#263238"/>
<path d="M290.259 138.717C289.365 140.35 288.248 141.852 286.939 143.179C287.29 143.501 287.708 143.743 288.163 143.886C288.617 144.029 289.098 144.071 289.571 144.008L290.259 138.717Z" fill="#D58745"/>
<path d="M296.634 137.215C296.703 137.244 296.78 137.244 296.85 137.215C296.925 137.17 296.981 137.098 297.006 137.013C297.03 136.929 297.022 136.838 296.982 136.759C296.733 136.296 296.377 135.899 295.944 135.601C295.511 135.302 295.014 135.111 294.492 135.042C294.45 135.038 294.408 135.042 294.367 135.054C294.327 135.066 294.289 135.086 294.256 135.114C294.224 135.141 294.197 135.174 294.178 135.212C294.158 135.249 294.147 135.29 294.144 135.333C294.141 135.42 294.171 135.505 294.228 135.571C294.285 135.637 294.364 135.679 294.451 135.689C294.866 135.746 295.261 135.901 295.604 136.14C295.948 136.38 296.229 136.697 296.426 137.066C296.449 137.103 296.479 137.136 296.515 137.161C296.551 137.187 296.591 137.205 296.634 137.215Z" fill="#263238"/>
<path d="M285.57 135.631C285.632 135.639 285.696 135.629 285.753 135.602C285.81 135.576 285.859 135.534 285.894 135.482C286.115 135.126 286.418 134.827 286.777 134.609C287.136 134.391 287.541 134.261 287.96 134.23C288.048 134.23 288.133 134.195 288.195 134.132C288.257 134.07 288.292 133.986 288.292 133.898C288.3 133.813 288.275 133.728 288.222 133.66C288.17 133.593 288.094 133.547 288.01 133.533C287.478 133.563 286.962 133.72 286.504 133.992C286.046 134.263 285.66 134.64 285.379 135.092C285.331 135.165 285.314 135.254 285.331 135.339C285.348 135.424 285.398 135.499 285.47 135.548C285.498 135.582 285.532 135.61 285.57 135.631Z" fill="#263238"/>
<path d="M303.257 131.965C299.871 132.654 299.813 136.195 303.805 143.428C307.548 141.296 310.503 135.349 309.2 133.019C307.897 130.688 306.212 131.376 303.257 131.965Z" fill="#263238"/>
<path d="M307.781 144.439C307.434 145.239 306.933 145.963 306.306 146.569C305.68 147.175 304.94 147.652 304.129 147.973C301.946 148.802 300.643 146.911 301.066 144.746C301.439 142.789 303.033 140.002 305.307 140.102C307.581 140.201 308.635 142.457 307.781 144.439Z" fill="#EEC1BB"/>
<path d="M294.584 145.974C294.584 145.974 293.048 148.056 289.711 147.45" stroke="#263238" stroke-width="0.526291" stroke-linecap="round" stroke-linejoin="round"/>
<path d="M288.118 126.997C287.985 127.777 288.218 129.038 292.434 129.66C296.65 130.282 300.527 128.49 301.846 129.66C303.166 130.829 304.527 134.594 304.527 134.594L309.175 133.558C309.175 133.558 310.213 130.489 307.723 126.997C305.233 123.505 291.339 126.168 290.293 124.268C290.26 124.268 288.392 125.314 288.118 126.997Z" fill="#263238"/>
<path d="M133.124 244.655L129.903 238.816L141.955 228.698L145.167 234.537L133.124 244.655Z" fill="#EEC1BB"/>
<path opacity="0.2" d="M145.167 234.537L141.955 228.706L135.058 234.487L138.535 240.119L145.167 234.537Z" fill="black"/>
<path d="M145.134 239.994L135.622 228.831L139.905 224.095L150.097 236.536L145.134 239.994Z" fill="black"/>
<path opacity="0.2" d="M145.134 239.994L135.622 228.831L139.905 224.095L150.097 236.536L145.134 239.994Z" fill="white"/>
<path d="M130.31 239.322H129.961C129.961 239.215 130.617 237.523 130.335 236.652C130.177 236.395 129.937 236.199 129.654 236.096C129.518 236.035 129.367 236.014 129.219 236.038C129.072 236.062 128.934 236.128 128.824 236.229C128.539 236.732 128.447 237.322 128.567 237.888C128.16 237.299 127.612 236.685 127.139 236.635C127.039 236.625 126.938 236.64 126.845 236.679C126.752 236.718 126.671 236.78 126.608 236.859C126.496 236.962 126.414 237.094 126.371 237.24C126.329 237.386 126.327 237.541 126.367 237.688C126.576 238.07 126.915 238.364 127.322 238.518C127.853 238.777 128.409 238.98 128.982 239.123C128.982 239.123 128.982 239.123 129.032 239.123C129.082 239.123 129.032 239.123 129.082 239.123C129.131 239.123 129.339 239.215 129.364 239.198L129.945 239.273L130.31 239.322ZM128.965 236.428C129.009 236.376 129.07 236.341 129.137 236.331C129.204 236.32 129.273 236.334 129.331 236.37H129.405C129.46 236.397 129.507 236.436 129.546 236.483C129.585 236.53 129.613 236.585 129.629 236.643C129.665 237.365 129.464 238.078 129.057 238.675L128.982 238.543C128.733 237.861 128.728 237.114 128.965 236.428ZM126.666 237.606C126.641 237.51 126.643 237.409 126.671 237.314C126.698 237.219 126.751 237.134 126.824 237.066C126.852 237.026 126.891 236.994 126.937 236.975C126.982 236.956 127.032 236.95 127.081 236.959C127.546 237.008 128.268 238.012 128.741 238.808C127.563 238.46 126.799 238.037 126.666 237.606Z" fill="black"/>
<path d="M129.953 238.667L136.593 242.134C136.65 242.16 136.701 242.197 136.744 242.243C136.786 242.288 136.819 242.342 136.841 242.401C136.863 242.459 136.872 242.522 136.87 242.584C136.867 242.647 136.852 242.708 136.826 242.764L134.402 248.18C134.259 248.455 134.012 248.662 133.717 248.755C133.421 248.848 133.1 248.821 132.825 248.678C130.526 247.434 129.505 246.721 126.592 245.17C124.807 244.232 121.18 242.54 118.939 240.865C116.698 239.19 118.408 237.025 119.512 237.547C122.118 238.75 126.434 238.916 128.783 238.476C129.183 238.412 129.594 238.479 129.953 238.667Z" fill="#263238"/>
<path d="M291.33 168.077C291.33 168.077 291.894 164.577 299.929 161.359C307.963 158.141 314.753 161.716 313.782 164.08C313.782 164.08 319.002 164.619 316.321 168.077C313.64 171.536 291.33 168.077 291.33 168.077Z" fill="#263238"/>
<path d="M289.471 167.721C288.906 166.478 288.703 165.102 288.885 163.749C289.068 162.397 289.627 161.123 290.5 160.074C290.5 160.074 289.296 157.867 286.914 160.074C286.931 160.074 277.378 162.512 289.471 167.721Z" fill="#263238"/>
<path opacity="0.2" d="M291.33 168.077C291.33 168.077 291.894 164.577 299.929 161.359C307.963 158.141 314.753 161.716 313.782 164.08C313.782 164.08 319.002 164.619 316.321 168.077C313.64 171.536 291.33 168.077 291.33 168.077Z" fill="black"/>
<path opacity="0.2" d="M289.471 167.721C288.906 166.478 288.703 165.102 288.885 163.749C289.068 162.397 289.627 161.123 290.5 160.074C290.5 160.074 289.296 157.867 286.914 160.074C286.931 160.074 277.378 162.512 289.471 167.721Z" fill="black"/>
<path d="M287.504 166.452C287.504 166.452 282.823 168.202 282.408 179.722C281.993 191.242 276.39 191.126 276.39 191.126" stroke="white" stroke-linecap="round" stroke-linejoin="round"/>
<path d="M292.99 167.231C292.99 167.231 290.683 170.856 292.16 177.906C293.638 184.955 292.799 192.943 288.01 195.53" stroke="white" stroke-linecap="round" stroke-linejoin="round"/>
<path d="M263.94 156.092C263.947 156.19 263.932 156.287 263.897 156.378C263.862 156.469 263.807 156.551 263.737 156.618C263.666 156.685 263.582 156.736 263.489 156.767C263.397 156.798 263.298 156.809 263.202 156.797L255.632 156.209C255.416 156.197 255.212 156.105 255.058 155.952C254.905 155.799 254.814 155.595 254.802 155.379L254.279 140.326C254.269 140.221 254.28 140.116 254.313 140.016C254.346 139.916 254.399 139.824 254.469 139.746C254.54 139.668 254.625 139.605 254.721 139.562C254.817 139.519 254.921 139.497 255.026 139.496L262.587 140.077C262.804 140.121 262.999 140.237 263.142 140.405C263.285 140.574 263.367 140.785 263.376 141.006L263.94 156.092Z" fill="#263238"/>
<path opacity="0.5" d="M262.587 140.881L263.127 156.076C263.142 156.165 263.136 156.256 263.109 156.343C263.082 156.429 263.035 156.508 262.972 156.573C262.909 156.637 262.832 156.686 262.746 156.715C262.66 156.744 262.569 156.752 262.479 156.739L256.063 156.242C255.632 156.242 254.868 155.91 254.852 155.479L254.312 140.234C254.312 139.811 255.059 139.529 255.491 139.563L261.898 140.06C262.096 140.083 262.278 140.181 262.406 140.334C262.534 140.486 262.599 140.682 262.587 140.881Z" fill="white"/>
<path d="M271.634 167.538L268.762 160.837C268.762 160.837 267.824 151.846 267.368 150.884C266.911 149.922 259.599 150.278 258.802 150.22C258.006 150.162 258.13 159.12 258.96 160.074C259.79 161.027 262.712 161.774 262.712 161.774L266.38 171.362L271.634 167.538Z" fill="#EEC1BB"/>
<path d="M264.961 171.345L263.948 167.231L271.634 163.408L272.796 167.381L264.961 171.345Z" fill="#263238"/>
<path d="M263.94 171.345C264.828 168.981 268.771 165.373 272.788 166.452C276.805 167.53 285.935 196.426 288.284 197.811C290.633 199.196 306.868 174.314 311.342 172.515C315.815 170.715 319.227 172.622 319.384 182.865C319.542 193.108 302.867 221.407 288.591 219.077C274.315 216.746 260.205 181.381 263.94 171.345Z" fill="#263238"/>
<path opacity="0.2" d="M263.94 171.345C264.828 168.981 268.771 165.373 272.788 166.452C276.805 167.53 285.935 196.426 288.284 197.811C290.633 199.196 306.868 174.314 311.342 172.515C315.815 170.715 319.227 172.622 319.384 182.865C319.542 193.108 302.867 221.407 288.591 219.077C274.315 216.746 260.205 181.381 263.94 171.345Z" fill="black"/>
<path opacity="0.3" d="M265.102 244.672C263.527 244.753 261.948 244.678 260.388 244.448C236.368 241.131 203.118 204.927 201.508 202.978C200.362 201.593 183.928 202.066 173.088 202.539C182.924 195.904 192.021 190.454 195.888 190.222C205.4 189.666 260.338 230.299 268.198 236.162C268.422 236.552 268.09 236.934 268.92 237.307C270.58 241.603 270.165 244.415 265.102 244.672Z" fill="black"/>
<path d="M300.759 232.04C300.759 232.04 291.745 250.967 263.525 246.745C241.115 243.386 211.617 199.279 208.812 197.488C204.379 194.643 154.679 195.066 154.679 195.066L151.782 183.388C151.782 183.388 210.712 172.606 220.05 176.894C225.171 179.233 272.448 220.022 272.448 220.022L300.759 232.04Z" fill="black"/>
<path opacity="0.6" d="M300.759 232.04C300.759 232.04 291.745 250.967 263.525 246.745C241.115 243.386 211.617 199.279 208.812 197.488C204.379 194.643 154.679 195.066 154.679 195.066L151.782 183.388C151.782 183.388 210.712 172.606 220.05 176.894C225.171 179.233 272.448 220.022 272.448 220.022L300.759 232.04Z" fill="white"/>
<path d="M139.108 195.588L139 188.92L154.389 185.627L154.488 192.287L139.108 195.588Z" fill="#EEC1BB"/>
<path opacity="0.2" d="M154.488 192.287L154.38 185.627L145.582 187.51L146.014 194.112L154.488 192.287Z" fill="black"/>
<path d="M151.899 197.09L148.728 182.782L154.737 180.593L157.908 196.36L151.899 197.09Z" fill="black"/>
<path opacity="0.2" d="M151.899 197.09L148.728 182.782L154.737 180.593L157.908 196.36L151.899 197.09Z" fill="white"/>
<path d="M139.44 189.534L138.967 189.393C139.637 188.797 140.152 188.049 140.469 187.211C140.469 186.971 140.245 186.598 140.088 186.382C139.992 186.259 139.863 186.167 139.715 186.118C139.567 186.069 139.408 186.066 139.258 186.108C138.773 186.417 138.415 186.887 138.245 187.435C138.238 186.785 138 186.159 137.573 185.669C137.489 185.611 137.391 185.575 137.29 185.565C137.188 185.555 137.086 185.571 136.992 185.611C136.838 185.649 136.699 185.73 136.59 185.845C136.481 185.959 136.408 186.103 136.378 186.258C136.366 186.701 136.52 187.133 136.809 187.469C137.158 187.948 137.556 188.39 137.996 188.787C137.996 188.787 137.996 188.787 137.996 188.837H138.054C138.054 188.837 138.245 189.044 138.27 189.036C138.295 189.028 138.901 189.376 138.909 189.368L139.44 189.534ZM139.291 186.382C139.374 186.341 139.49 186.324 139.639 186.498L139.689 186.556C139.724 186.606 139.749 186.663 139.76 186.723C139.771 186.783 139.77 186.845 139.756 186.905C139.673 187.452 138.826 188.091 138.295 188.439V188.273C138.394 187.545 138.746 186.875 139.291 186.382ZM136.701 186.341C136.725 186.245 136.773 186.157 136.842 186.085C136.91 186.014 136.996 185.962 137.091 185.934C137.135 185.91 137.183 185.898 137.232 185.898C137.282 185.898 137.33 185.91 137.374 185.934C137.764 186.2 137.93 187.427 137.963 188.339C137.091 187.518 136.627 186.772 136.701 186.341Z" fill="black"/>
<path d="M139.108 188.812L143.341 194.983C143.379 195.032 143.406 195.089 143.422 195.149C143.438 195.209 143.442 195.272 143.433 195.334C143.425 195.395 143.404 195.455 143.373 195.508C143.341 195.562 143.299 195.609 143.25 195.646L138.568 199.296C138.441 199.386 138.296 199.45 138.143 199.485C137.99 199.519 137.832 199.523 137.678 199.496C137.524 199.469 137.376 199.412 137.244 199.328C137.112 199.243 136.998 199.134 136.908 199.005C135.473 196.824 134.892 195.688 133.049 192.984C131.912 191.325 129.505 188.124 128.31 185.602C127.114 183.081 129.638 181.961 130.368 182.923C132.111 185.204 135.846 187.369 138.129 188.082C138.526 188.212 138.87 188.469 139.108 188.812Z" fill="#263238"/>
<path d="M257.35 135.548C257.582 135.311 257.859 135.123 258.165 134.994C258.47 134.866 258.799 134.8 259.13 134.8C259.462 134.8 259.791 134.866 260.096 134.994C260.402 135.123 260.679 135.311 260.911 135.548" stroke="black" stroke-linecap="round" stroke-linejoin="round"/>
<path d="M256.047 134.238C256.867 133.421 257.977 132.963 259.134 132.963C260.292 132.963 261.402 133.421 262.222 134.238" stroke="black" stroke-width="1.05659" stroke-linecap="round" stroke-linejoin="round"/>
<path d="M254.81 133.027C255.952 131.888 257.5 131.248 259.114 131.248C260.727 131.248 262.275 131.888 263.417 133.027" stroke="black" stroke-linecap="round" stroke-linejoin="round"/>
<path d="M259.84 137.24C259.842 137.382 259.801 137.521 259.723 137.64C259.646 137.758 259.534 137.851 259.403 137.906C259.273 137.961 259.128 137.976 258.989 137.948C258.85 137.921 258.722 137.853 258.622 137.753C258.521 137.653 258.453 137.525 258.426 137.386C258.399 137.247 258.413 137.102 258.469 136.972C258.524 136.841 258.616 136.73 258.735 136.652C258.854 136.574 258.993 136.534 259.135 136.535C259.322 136.535 259.501 136.61 259.634 136.742C259.766 136.874 259.84 137.053 259.84 137.24Z" fill="black"/>
<path d="M232.749 63.7972H142.553C139.72 63.7972 137.423 66.092 137.423 68.9229V120.528C137.423 123.359 139.72 125.654 142.553 125.654H232.749C235.582 125.654 237.878 123.359 237.878 120.528V68.9229C237.878 66.092 235.582 63.7972 232.749 63.7972Z" fill="black"/>
<path d="M232.525 64.6349H142.785C140.292 64.6349 138.27 66.6549 138.27 69.1468V120.296C138.27 122.788 140.292 124.808 142.785 124.808H232.525C235.019 124.808 237.04 122.788 237.04 120.296V69.1468C237.04 66.6549 235.019 64.6349 232.525 64.6349Z" fill="black"/>
<path opacity="0.6" d="M232.525 64.6349H142.785C140.292 64.6349 138.27 66.6549 138.27 69.1468V120.296C138.27 122.788 140.292 124.808 142.785 124.808H232.525C235.019 124.808 237.04 122.788 237.04 120.296V69.1468C237.04 66.6549 235.019 64.6349 232.525 64.6349Z" fill="white"/>
<path opacity="0.2" d="M232.525 64.6349H142.785C140.292 64.6349 138.27 66.6549 138.27 69.1468V116.978C138.27 119.47 140.292 121.49 142.785 121.49H232.525C235.019 121.49 237.04 119.47 237.04 116.978V69.1468C237.04 66.6549 235.019 64.6349 232.525 64.6349Z" fill="white"/>
<path d="M222.457 69.6361H146.205C145.439 69.6361 144.819 70.2563 144.819 71.0212V77.7062C144.819 78.4711 145.439 79.0913 146.205 79.0913H222.457C223.223 79.0913 223.843 78.4711 223.843 77.7062V71.0212C223.843 70.2563 223.223 69.6361 222.457 69.6361Z" fill="white"/>
<path d="M147.966 78.7622V72.9206H148.674V78.1347H151.389V78.7622H147.966ZM153.093 78.7622H152.351L154.496 72.9206H155.226L157.371 78.7622H156.63L154.884 73.8448H154.838L153.093 78.7622ZM153.366 76.4803H156.356V77.1079H153.366V76.4803ZM158.281 72.9206H159.125L161.111 77.7696H161.179L163.164 72.9206H164.009V78.7622H163.347V74.324H163.29L161.464 78.7622H160.825L159 74.324H158.943V78.7622H158.281V72.9206ZM147.966 88.7622V82.9206H149.94C150.398 82.9206 150.773 83.0033 151.064 83.1688C151.357 83.3323 151.573 83.5538 151.714 83.8334C151.855 84.1129 151.925 84.4247 151.925 84.7689C151.925 85.1131 151.855 85.4259 151.714 85.7074C151.575 85.9888 151.36 86.2132 151.07 86.3805C150.779 86.546 150.406 86.6287 149.951 86.6287H148.537V86.0012H149.929C150.242 86.0012 150.494 85.947 150.684 85.8386C150.875 85.7302 151.012 85.5838 151.098 85.3993C151.186 85.2129 151.229 85.0028 151.229 84.7689C151.229 84.535 151.186 84.3259 151.098 84.1414C151.012 83.957 150.874 83.8124 150.682 83.7079C150.49 83.6014 150.235 83.5481 149.917 83.5481H148.674V88.7622H147.966Z" fill="black"/>
<path opacity="0.3" d="M222.457 69.6361H146.205C145.439 69.6361 144.819 70.2563 144.819 71.0212V77.7062C144.819 78.4711 145.439 79.0913 146.205 79.0913H222.457C223.223 79.0913 223.843 78.4711 223.843 77.7062V71.0212C223.843 70.2563 223.223 69.6361 222.457 69.6361Z" fill="white"/>
<path d="M222.457 81.5463H146.205C145.439 81.5463 144.819 82.1664 144.819 82.9314V89.6163C144.819 90.3813 145.439 91.0014 146.205 91.0014H222.457C223.223 91.0014 223.843 90.3813 223.843 89.6163V82.9314C223.843 82.1664 223.223 81.5463 222.457 81.5463Z" fill="white"/>
<path d="M148.206 90.6807H147.464L149.609 84.839H150.339L152.484 90.6807H151.743L149.997 85.7632H149.951L148.206 90.6807ZM148.48 88.3988H151.469V89.0263H148.48V88.3988ZM154.102 84.839V90.6807H153.394V84.839H154.102ZM155.52 90.6807V84.839H157.494C157.95 84.839 158.325 84.917 158.618 85.0729C158.91 85.2269 159.127 85.439 159.268 85.709C159.409 85.979 159.479 86.2861 159.479 86.6303C159.479 86.9745 159.409 87.2797 159.268 87.5459C159.127 87.8121 158.911 88.0213 158.62 88.1734C158.33 88.3237 157.958 88.3988 157.505 88.3988H155.908V87.7598H157.482C157.794 87.7598 158.045 87.7142 158.235 87.6229C158.427 87.5317 158.566 87.4023 158.652 87.235C158.739 87.0658 158.783 86.8642 158.783 86.6303C158.783 86.3964 158.739 86.192 158.652 86.0171C158.564 85.8421 158.425 85.7071 158.233 85.612C158.04 85.515 157.787 85.4665 157.471 85.4665H156.227V90.6807H155.52ZM158.27 88.0565L159.707 90.6807H158.886L157.471 88.0565H158.27ZM152.667 96.6645H151.959C151.918 96.4611 151.844 96.2823 151.74 96.1283C151.637 95.9743 151.512 95.845 151.363 95.7404C151.217 95.6339 151.054 95.554 150.876 95.5008C150.697 95.4475 150.51 95.4209 150.317 95.4209C149.963 95.4209 149.642 95.5103 149.355 95.689C149.07 95.8678 148.843 96.1311 148.674 96.4791C148.506 96.8271 148.423 97.254 148.423 97.7598C148.423 98.2657 148.506 98.6926 148.674 99.0406C148.843 99.3885 149.07 99.6519 149.355 99.8307C149.642 100.009 149.963 100.099 150.317 100.099C150.51 100.099 150.697 100.072 150.876 100.019C151.054 99.9657 151.217 99.8868 151.363 99.7822C151.512 99.6757 151.637 99.5454 151.74 99.3914C151.844 99.2355 151.918 99.0567 151.959 98.8552H152.667C152.614 99.1537 152.517 99.4209 152.376 99.6567C152.235 99.8925 152.06 100.093 151.851 100.259C151.642 100.422 151.407 100.547 151.147 100.632C150.888 100.718 150.611 100.761 150.317 100.761C149.818 100.761 149.375 100.639 148.987 100.395C148.599 100.152 148.294 99.8059 148.072 99.3572C147.849 98.9084 147.738 98.376 147.738 97.7598C147.738 97.1437 147.849 96.6113 148.072 96.1625C148.294 95.7138 148.599 95.3677 148.987 95.1243C149.375 94.8809 149.818 94.7592 150.317 94.7592C150.611 94.7592 150.888 94.8019 151.147 94.8875C151.407 94.9731 151.642 95.0986 151.851 95.264C152.06 95.4276 152.235 95.6272 152.376 95.863C152.517 96.0969 152.614 96.3641 152.667 96.6645ZM158.739 97.7598C158.739 98.376 158.628 98.9084 158.405 99.3572C158.183 99.8059 157.877 100.152 157.489 100.395C157.102 100.639 156.659 100.761 156.16 100.761C155.662 100.761 155.219 100.639 154.831 100.395C154.443 100.152 154.138 99.8059 153.915 99.3572C153.693 98.9084 153.582 98.376 153.582 97.7598C153.582 97.1437 153.693 96.6113 153.915 96.1625C154.138 95.7138 154.443 95.3677 154.831 95.1243C155.219 94.8809 155.662 94.7592 156.16 94.7592C156.659 94.7592 157.102 94.8809 157.489 95.1243C157.877 95.3677 158.183 95.7138 158.405 96.1625C158.628 96.6113 158.739 97.1437 158.739 97.7598ZM158.054 97.7598C158.054 97.254 157.97 96.8271 157.8 96.4791C157.633 96.1311 157.406 95.8678 157.119 95.689C156.833 95.5103 156.514 95.4209 156.16 95.4209C155.807 95.4209 155.486 95.5103 155.199 95.689C154.914 95.8678 154.687 96.1311 154.517 96.4791C154.35 96.8271 154.266 97.254 154.266 97.7598C154.266 98.2657 154.35 98.6926 154.517 99.0406C154.687 99.3885 154.914 99.6519 155.199 99.8307C155.486 100.009 155.807 100.099 156.16 100.099C156.514 100.099 156.833 100.009 157.119 99.8307C157.406 99.6519 157.633 99.3885 157.8 99.0406C157.97 98.6926 158.054 98.2657 158.054 97.7598ZM164.561 94.839V100.681H163.876L160.693 96.0941H160.636V100.681H159.928V94.839H160.613L163.807 99.437H163.865V94.839H164.561ZM167.779 100.681H165.976V94.839H167.859C168.425 94.839 168.91 94.956 169.313 95.1899C169.716 95.4219 170.025 95.7556 170.24 96.191C170.455 96.6246 170.563 97.1437 170.563 97.7484C170.563 98.3569 170.454 98.8808 170.237 99.3201C170.021 99.7574 169.705 100.094 169.29 100.33C168.876 100.564 168.372 100.681 167.779 100.681ZM166.683 100.053H167.733C168.216 100.053 168.616 99.96 168.934 99.7736C169.251 99.5873 169.488 99.322 169.644 98.9778C169.8 98.6336 169.878 98.2238 169.878 97.7484C169.878 97.2768 169.801 96.8709 169.647 96.5305C169.493 96.1882 169.263 95.9258 168.957 95.7432C168.651 95.5588 168.269 95.4665 167.813 95.4665H166.683V100.053ZM172.457 94.839V100.681H171.749V94.839H172.457ZM173.555 95.4665V94.839H177.937V95.4665H176.1V100.681H175.392V95.4665H173.555ZM179.736 94.839V100.681H179.028V94.839H179.736ZM182.843 100.772C182.447 100.772 182.1 100.678 181.802 100.49C181.505 100.301 181.273 100.038 181.106 99.6995C180.94 99.361 180.857 98.9654 180.857 98.5129C180.857 98.0565 180.94 97.6581 181.106 97.3177C181.273 96.9773 181.505 96.713 181.802 96.5248C182.1 96.3365 182.447 96.2424 182.843 96.2424C183.238 96.2424 183.584 96.3365 183.881 96.5248C184.18 96.713 184.412 96.9773 184.577 97.3177C184.744 97.6581 184.828 98.0565 184.828 98.5129C184.828 98.9654 184.744 99.361 184.577 99.6995C184.412 100.038 184.18 100.301 183.881 100.49C183.584 100.678 183.238 100.772 182.843 100.772ZM182.843 100.167C183.143 100.167 183.39 100.09 183.584 99.9362C183.778 99.7822 183.922 99.5797 184.015 99.3286C184.108 99.0776 184.155 98.8057 184.155 98.5129C184.155 98.22 184.108 97.9472 184.015 97.6942C183.922 97.4413 183.778 97.2369 183.584 97.081C183.39 96.9251 183.143 96.8471 182.843 96.8471C182.542 96.8471 182.295 96.9251 182.101 97.081C181.907 97.2369 181.764 97.4413 181.67 97.6942C181.577 97.9472 181.531 98.22 181.531 98.5129C181.531 98.8057 181.577 99.0776 181.67 99.3286C181.764 99.5797 181.907 99.7822 182.101 99.9362C182.295 100.09 182.542 100.167 182.843 100.167ZM190.579 94.839V100.681H189.894L186.711 96.0941H186.654V100.681H185.947V94.839H186.631L189.826 99.437H189.883V94.839H190.579ZM191.995 100.681V94.839H195.52V95.4665H192.702V97.4404H195.337V98.0679H192.702V100.053H195.566V100.681H191.995ZM196.795 100.681V94.839H198.769C199.225 94.839 199.6 94.917 199.893 95.0729C200.186 95.2269 200.402 95.439 200.543 95.709C200.684 95.979 200.754 96.2861 200.754 96.6303C200.754 96.9745 200.684 97.2797 200.543 97.5459C200.402 97.8121 200.186 98.0213 199.896 98.1734C199.605 98.3237 199.233 98.3988 198.78 98.3988H197.183V97.7598H198.757C199.069 97.7598 199.32 97.7142 199.51 97.6229C199.703 97.5317 199.841 97.4023 199.927 97.235C200.014 97.0658 200.058 96.8642 200.058 96.6303C200.058 96.3964 200.014 96.192 199.927 96.0171C199.839 95.8421 199.7 95.7071 199.508 95.612C199.316 95.515 199.062 95.4665 198.746 95.4665H197.502V100.681H196.795ZM199.545 98.0565L200.982 100.681H200.161L198.746 98.0565H199.545Z" fill="black"/>
<path opacity="0.3" d="M222.457 81.5463H146.205C145.439 81.5463 144.819 82.1664 144.819 82.9314V89.6163C144.819 90.3813 145.439 91.0014 146.205 91.0014H222.457C223.223 91.0014 223.843 90.3813 223.843 89.6163V82.9314C223.843 82.1664 223.223 81.5463 222.457 81.5463Z" fill="white"/>
<path d="M222.457 93.4647H146.205C145.439 93.4647 144.819 94.0848 144.819 94.8498V101.535C144.819 102.3 145.439 102.92 146.205 102.92H222.457C223.223 102.92 223.843 102.3 223.843 101.535V94.8498C223.843 94.0848 223.223 93.4647 222.457 93.4647Z" fill="white"/>
<path d="M147.966 96.7492H148.81L150.796 101.598H150.864L152.849 96.7492H153.694V102.591H153.032V98.1525H152.975L151.149 102.591H150.51L148.685 98.1525H148.628V102.591H147.966V96.7492ZM158.946 96.7492H159.653V100.617C159.653 101.016 159.559 101.373 159.371 101.687C159.184 101.998 158.921 102.245 158.581 102.425C158.24 102.604 157.841 102.694 157.383 102.694C156.924 102.694 156.525 102.604 156.185 102.425C155.844 102.245 155.58 101.998 155.392 101.687C155.205 101.373 155.112 101.016 155.112 100.617V96.7492H155.819V100.56C155.819 100.845 155.882 101.099 156.008 101.322C156.133 101.542 156.312 101.716 156.544 101.844C156.778 101.969 157.057 102.032 157.383 102.032C157.708 102.032 157.987 101.969 158.221 101.844C158.455 101.716 158.634 101.542 158.757 101.322C158.883 101.099 158.946 100.845 158.946 100.56V96.7492ZM164.26 98.2096C164.226 97.9206 164.087 97.6962 163.844 97.5364C163.6 97.3767 163.302 97.2968 162.948 97.2968C162.69 97.2968 162.463 97.3387 162.269 97.4223C162.077 97.506 161.927 97.6211 161.819 97.7675C161.712 97.9139 161.659 98.0803 161.659 98.2666C161.659 98.4226 161.696 98.5566 161.77 98.6688C161.846 98.7791 161.943 98.8713 162.061 98.9455C162.179 99.0178 162.303 99.0777 162.432 99.1252C162.561 99.1708 162.68 99.2079 162.788 99.2364L163.382 99.3962C163.534 99.4361 163.703 99.4913 163.889 99.5616C164.078 99.632 164.257 99.728 164.429 99.8497C164.602 99.9695 164.744 100.124 164.856 100.312C164.969 100.5 165.025 100.731 165.025 101.005C165.025 101.321 164.942 101.606 164.777 101.861C164.613 102.115 164.373 102.318 164.058 102.468C163.744 102.618 163.363 102.694 162.914 102.694C162.496 102.694 162.133 102.626 161.827 102.491C161.523 102.356 161.283 102.168 161.108 101.926C160.935 101.685 160.837 101.404 160.815 101.085H161.545C161.564 101.305 161.638 101.488 161.767 101.632C161.899 101.775 162.064 101.882 162.264 101.952C162.465 102.02 162.682 102.055 162.914 102.055C163.184 102.055 163.426 102.011 163.641 101.923C163.856 101.834 164.026 101.71 164.152 101.553C164.277 101.393 164.34 101.206 164.34 100.993C164.34 100.8 164.286 100.642 164.178 100.52C164.069 100.398 163.927 100.299 163.75 100.223C163.573 100.147 163.382 100.081 163.176 100.024L162.458 99.8183C162.001 99.6871 161.64 99.4998 161.374 99.2564C161.107 99.013 160.974 98.6945 160.974 98.3009C160.974 97.9738 161.063 97.6886 161.24 97.4452C161.418 97.1999 161.658 97.0097 161.958 96.8747C162.261 96.7378 162.598 96.6693 162.971 96.6693C163.348 96.6693 163.682 96.7368 163.975 96.8718C164.268 97.0049 164.5 97.1875 164.671 97.4195C164.844 97.6515 164.935 97.9148 164.945 98.2096H164.26ZM166.895 96.7492V102.591H166.188V96.7492H166.895ZM152.667 108.575H151.959C151.918 108.371 151.844 108.192 151.74 108.038C151.637 107.884 151.512 107.755 151.363 107.651C151.217 107.544 151.054 107.464 150.876 107.411C150.697 107.358 150.51 107.331 150.317 107.331C149.963 107.331 149.642 107.42 149.355 107.599C149.07 107.778 148.843 108.041 148.674 108.389C148.506 108.737 148.423 109.164 148.423 109.67C148.423 110.176 148.506 110.603 148.674 110.951C148.843 111.299 149.07 111.562 149.355 111.741C149.642 111.92 149.963 112.009 150.317 112.009C150.51 112.009 150.697 111.982 150.876 111.929C151.054 111.876 151.217 111.797 151.363 111.692C151.512 111.586 151.637 111.456 151.74 111.302C151.844 111.146 151.918 110.967 151.959 110.765H152.667C152.614 111.064 152.517 111.331 152.376 111.567C152.235 111.803 152.06 112.003 151.851 112.169C151.642 112.332 151.407 112.457 151.147 112.542C150.888 112.628 150.611 112.671 150.317 112.671C149.818 112.671 149.375 112.549 148.987 112.306C148.599 112.062 148.294 111.716 148.072 111.267C147.849 110.819 147.738 110.286 147.738 109.67C147.738 109.054 147.849 108.521 148.072 108.073C148.294 107.624 148.599 107.278 148.987 107.034C149.375 106.791 149.818 106.669 150.317 106.669C150.611 106.669 150.888 106.712 151.147 106.798C151.407 106.883 151.642 107.009 151.851 107.174C152.06 107.338 152.235 107.537 152.376 107.773C152.517 108.007 152.614 108.274 152.667 108.575Z" fill="black"/>
<path opacity="0.3" d="M222.457 93.4647H146.205C145.439 93.4647 144.819 94.0848 144.819 94.8498V101.535C144.819 102.3 145.439 102.92 146.205 102.92H222.457C223.223 102.92 223.843 102.3 223.843 101.535V94.8498C223.843 94.0848 223.223 93.4647 222.457 93.4647Z" fill="white"/>
<path d="M222.457 105.375H146.205C145.439 105.375 144.819 105.995 144.819 106.76V113.445C144.819 114.21 145.439 114.83 146.205 114.83H222.457C223.223 114.83 223.843 114.21 223.843 113.445V106.76C223.843 105.995 223.223 105.375 222.457 105.375Z" fill="white"/>
<path d="M147.647 109.295V108.668H152.028V109.295H150.191V114.509H149.484V109.295H147.647ZM148.206 118.668L149.94 123.585H150.008L151.743 118.668H152.484L150.339 124.509H149.609L147.464 118.668H148.206Z" fill="black"/>
<path opacity="0.3" d="M222.457 105.375H146.205C145.439 105.375 144.819 105.995 144.819 106.76V113.445C144.819 114.21 145.439 114.83 146.205 114.83H222.457C223.223 114.83 223.843 114.21 223.843 113.445V106.76C223.843 105.995 223.223 105.375 222.457 105.375Z" fill="white"/>
<path d="M220.598 71.071H208.555C207.83 71.071 207.243 71.6577 207.243 72.3814V76.3376C207.243 77.0614 207.83 77.6481 208.555 77.6481H220.598C221.322 77.6481 221.909 77.0614 221.909 76.3376V72.3814C221.909 71.6577 221.322 71.071 220.598 71.071Z" fill="#263238"/>
<path opacity="0.5" d="M212.29 71.071H208.555C207.83 71.071 207.243 71.6577 207.243 72.3814V76.3376C207.243 77.0614 207.83 77.6481 208.555 77.6481H212.29C213.014 77.6481 213.601 77.0614 213.601 76.3376V72.3814C213.601 71.6577 213.014 71.071 212.29 71.071Z" fill="white"/>
<path opacity="0.5" d="M220.598 71.071H208.555C207.83 71.071 207.243 71.6577 207.243 72.3814V76.3376C207.243 77.0614 207.83 77.6481 208.555 77.6481H220.598C221.322 77.6481 221.909 77.0614 221.909 76.3376V72.3814C221.909 71.6577 221.322 71.071 220.598 71.071Z" fill="white"/>
<path d="M220.598 106.76H208.555C207.83 106.76 207.243 107.347 207.243 108.07V112.027C207.243 112.75 207.83 113.337 208.555 113.337H220.598C221.322 113.337 221.909 112.75 221.909 112.027V108.07C221.909 107.347 221.322 106.76 220.598 106.76Z" fill="#263238"/>
<path opacity="0.5" d="M212.29 106.76H208.555C207.83 106.76 207.243 107.347 207.243 108.07V112.027C207.243 112.75 207.83 113.337 208.555 113.337H212.29C213.014 113.337 213.601 112.75 213.601 112.027V108.07C213.601 107.347 213.014 106.76 212.29 106.76Z" fill="white"/>
<path opacity="0.5" d="M220.598 106.76H208.555C207.83 106.76 207.243 107.347 207.243 108.07V112.027C207.243 112.75 207.83 113.337 208.555 113.337H220.598C221.322 113.337 221.909 112.75 221.909 112.027V108.07C221.909 107.347 221.322 106.76 220.598 106.76Z" fill="white"/>
<path d="M220.598 94.8581H208.555C207.83 94.8581 207.243 95.4448 207.243 96.1685V100.125C207.243 100.849 207.83 101.435 208.555 101.435H220.598C221.322 101.435 221.909 100.849 221.909 100.125V96.1685C221.909 95.4448 221.322 94.8581 220.598 94.8581Z" fill="black"/>
<path opacity="0.5" d="M220.598 94.8581H216.863C216.138 94.8581 215.551 95.4448 215.551 96.1685V100.125C215.551 100.849 216.138 101.435 216.863 101.435H220.598C221.322 101.435 221.909 100.849 221.909 100.125V96.1685C221.909 95.4448 221.322 94.8581 220.598 94.8581Z" fill="white"/>
<path d="M220.598 82.9645H208.555C207.83 82.9645 207.243 83.5512 207.243 84.275V88.2312C207.243 88.955 207.83 89.5417 208.555 89.5417H220.598C221.322 89.5417 221.909 88.955 221.909 88.2312V84.275C221.909 83.5512 221.322 82.9645 220.598 82.9645Z" fill="black"/>
<path opacity="0.5" d="M220.598 82.9645H216.863C216.138 82.9645 215.551 83.5512 215.551 84.275V88.2312C215.551 88.955 216.138 89.5417 216.863 89.5417H220.598C221.322 89.5417 221.909 88.955 221.909 88.2312V84.275C221.909 83.5512 221.322 82.9645 220.598 82.9645Z" fill="white"/>
<path d="M223.843 124.617V118.38C223.844 118.198 223.809 118.018 223.741 117.85C223.672 117.682 223.571 117.53 223.443 117.401C223.314 117.272 223.162 117.17 222.995 117.1C222.827 117.031 222.647 116.995 222.465 116.995H146.205C145.837 116.995 145.485 117.141 145.225 117.4C144.965 117.66 144.819 118.012 144.819 118.38V124.617H223.843Z" fill="white"/>
<path d="M207.683 124.617H221.469C221.607 124.495 221.717 124.346 221.793 124.179C221.869 124.011 221.909 123.83 221.909 123.646V119.682C221.909 119.51 221.875 119.34 221.809 119.182C221.743 119.023 221.647 118.879 221.525 118.758C221.403 118.637 221.258 118.541 221.099 118.477C220.94 118.412 220.77 118.379 220.598 118.38H208.555C208.383 118.379 208.212 118.412 208.053 118.477C207.894 118.541 207.75 118.637 207.628 118.758C207.506 118.879 207.409 119.023 207.343 119.182C207.277 119.34 207.243 119.51 207.243 119.682V123.646C207.244 123.83 207.283 124.011 207.359 124.179C207.435 124.346 207.545 124.495 207.683 124.617Z" fill="#263238"/>
<path opacity="0.5" d="M207.683 124.617H213.169C213.306 124.495 213.415 124.345 213.489 124.178C213.564 124.011 213.602 123.83 213.601 123.646V119.682C213.601 119.51 213.567 119.34 213.501 119.182C213.435 119.023 213.338 118.879 213.216 118.758C213.094 118.637 212.95 118.541 212.791 118.477C212.632 118.412 212.461 118.379 212.29 118.38H208.555C208.383 118.379 208.212 118.412 208.053 118.477C207.894 118.541 207.75 118.637 207.628 118.758C207.506 118.879 207.409 119.023 207.343 119.182C207.277 119.34 207.243 119.51 207.243 119.682V123.646C207.244 123.83 207.283 124.011 207.359 124.179C207.435 124.346 207.545 124.495 207.683 124.617Z" fill="white"/>
<path opacity="0.5" d="M207.683 124.617H221.469C221.607 124.495 221.717 124.346 221.793 124.179C221.869 124.011 221.909 123.83 221.909 123.646V119.682C221.909 119.51 221.875 119.34 221.809 119.182C221.743 119.023 221.647 118.879 221.525 118.758C221.403 118.637 221.258 118.541 221.099 118.477C220.94 118.412 220.77 118.379 220.598 118.38H208.555C208.383 118.379 208.212 118.412 208.053 118.477C207.894 118.541 207.75 118.637 207.628 118.758C207.506 118.879 207.409 119.023 207.343 119.182C207.277 119.34 207.243 119.51 207.243 119.682V123.646C207.244 123.83 207.283 124.011 207.359 124.179C207.435 124.346 207.545 124.495 207.683 124.617Z" fill="white"/>
<path opacity="0.2" d="M229.603 121.722C229.134 121.722 228.685 121.536 228.353 121.205C228.022 120.873 227.835 120.424 227.835 119.956V71.3944C227.835 71.1628 227.881 70.9335 227.97 70.7196C228.059 70.5058 228.189 70.3116 228.354 70.1482C228.518 69.9848 228.713 69.8555 228.927 69.7676C229.142 69.6797 229.372 69.635 229.603 69.6361C230.07 69.6361 230.518 69.8214 230.848 70.1511C231.178 70.4809 231.363 70.9281 231.363 71.3944V119.956C231.364 120.187 231.319 120.417 231.231 120.631C231.143 120.845 231.014 121.04 230.851 121.204C230.687 121.368 230.493 121.499 230.279 121.588C230.065 121.676 229.835 121.722 229.603 121.722Z" fill="black"/>
<path d="M229.603 88.5215C229.372 88.5226 229.142 88.4779 228.927 88.39C228.713 88.3022 228.518 88.1728 228.354 88.0094C228.189 87.846 228.059 87.6518 227.97 87.438C227.881 87.2241 227.835 86.9948 227.835 86.7632V71.3944C227.835 71.1628 227.881 70.9335 227.97 70.7196C228.059 70.5058 228.189 70.3116 228.354 70.1482C228.518 69.9848 228.713 69.8555 228.927 69.7676C229.142 69.6797 229.372 69.635 229.603 69.6361C230.07 69.6361 230.518 69.8214 230.848 70.1511C231.178 70.4809 231.363 70.9281 231.363 71.3944V86.7632C231.363 87.2295 231.178 87.6767 230.848 88.0065C230.518 88.3362 230.07 88.5215 229.603 88.5215Z" fill="white"/>
<path d="M186.335 125.239V127.727" stroke="black" stroke-linecap="round" stroke-linejoin="round"/>
<path d="M186.335 129.386V140.997" stroke="black" stroke-linecap="round" stroke-linejoin="round" stroke-dasharray="5 2"/>
<path d="M186.335 141.827V143.9H188.41" stroke="black" stroke-linecap="round" stroke-linejoin="round"/>
<path d="M190.07 143.9H247.34" stroke="black" stroke-linecap="round" stroke-linejoin="round" stroke-dasharray="5 2"/>
<path d="M248.17 143.9H250.66" stroke="black" stroke-linecap="round" stroke-linejoin="round"/>
<path d="M251.889 144.854C252.416 144.854 252.843 144.427 252.843 143.9C252.843 143.374 252.416 142.947 251.889 142.947C251.361 142.947 250.934 143.374 250.934 143.9C250.934 144.427 251.361 144.854 251.889 144.854Z" fill="black"/>
</svg>
