<svg width="398" height="296" viewBox="0 0 398 296" fill="none" xmlns="http://www.w3.org/2000/svg">
<path d="M398 260.12H0V260.319H398V260.12Z" fill="#EBEBEB"/>
<path d="M358.12 272.904H331.757V273.102H358.12V272.904Z" fill="#EBEBEB"/>
<path d="M263.651 275.065H256.734V275.263H263.651V275.065Z" fill="#EBEBEB"/>
<path d="M330.961 265.531H315.686V265.729H330.961V265.531Z" fill="#EBEBEB"/>
<path d="M76.1374 266.866H41.7582V267.064H76.1374V266.866Z" fill="#EBEBEB"/>
<path d="M88.2684 266.866H83.2297V267.064H88.2684V266.866Z" fill="#EBEBEB"/>
<path d="M179.219 270.218H104.65V270.417H179.219V270.218Z" fill="#EBEBEB"/>
<path d="M188.652 224.685H34.9524C33.7483 224.683 32.5943 224.204 31.7436 223.354C30.8929 222.503 30.4152 221.351 30.4152 220.149V4.49689C30.4256 3.30197 30.908 2.15944 31.7576 1.31746C32.6071 0.475477 33.7552 0.00204695 34.9524 0H188.652C189.857 0 191.014 0.477963 191.866 1.32874C192.718 2.17952 193.197 3.33343 193.197 4.53661V220.149C193.197 221.352 192.718 222.506 191.866 223.357C191.014 224.207 189.857 224.685 188.652 224.685ZM34.9524 0.158901C33.8011 0.161006 32.6976 0.61897 31.8843 1.43227C31.071 2.24557 30.6142 3.34776 30.6142 4.49689V220.149C30.6142 221.298 31.071 222.4 31.8843 223.213C32.6976 224.027 33.8011 224.485 34.9524 224.487H188.652C189.804 224.485 190.908 224.027 191.723 223.214C192.537 222.401 192.996 221.299 192.998 220.149V4.49689C192.996 3.34703 192.537 2.24486 191.723 1.43179C190.908 0.618711 189.804 0.161001 188.652 0.158901H34.9524Z" fill="#EBEBEB"/>
<path d="M360.835 224.685H207.127C205.922 224.683 204.768 224.205 203.916 223.354C203.064 222.504 202.584 221.351 202.582 220.149V4.49689C202.595 3.30125 203.079 2.15873 203.93 1.31696C204.78 0.475199 205.929 0.00202462 207.127 0H360.835C362.031 0.00413499 363.177 0.478489 364.024 1.32025C364.872 2.16201 365.354 3.30335 365.364 4.49689V220.149C365.364 221.349 364.887 222.501 364.038 223.351C363.189 224.201 362.037 224.681 360.835 224.685ZM207.127 0.158901C205.975 0.161001 204.871 0.618711 204.056 1.43179C203.242 2.24486 202.783 3.34703 202.781 4.49689V220.149C202.783 221.299 203.242 222.401 204.056 223.214C204.871 224.027 205.975 224.485 207.127 224.487H360.835C361.987 224.485 363.091 224.027 363.906 223.214C364.72 222.401 365.179 221.299 365.181 220.149V4.49689C365.179 3.34703 364.72 2.24486 363.906 1.43179C363.091 0.618711 361.987 0.161001 360.835 0.158901H207.127Z" fill="#EBEBEB"/>
<path d="M221.455 259.35H341.022V84.3762L221.455 84.3762L221.455 259.35Z" fill="#F0F0F0"/>
<path d="M225.682 122.202L336.796 122.202V89.8901L225.682 89.8901V122.202Z" fill="#E0E0E0"/>
<path d="M330.475 122.202H336.788V95.1179H330.475V122.202Z" fill="#EBEBEB"/>
<path d="M299.957 122.202H306.269V95.1179H299.957V122.202Z" fill="#EBEBEB"/>
<path d="M260.709 121.123L266.929 122.193L271.539 95.5019L265.318 94.4317L260.709 121.123Z" fill="#EBEBEB"/>
<path d="M322.659 122.202H328.971V98.6852H322.659V122.202Z" fill="#EBEBEB"/>
<path d="M308.155 122.202H314.468V98.6852H308.155V122.202Z" fill="#EBEBEB"/>
<path d="M271.531 122.202H277.844V98.6852H271.531V122.202Z" fill="#EBEBEB"/>
<path d="M286.567 120.827L292.729 122.194L297.84 99.2369L291.679 97.8701L286.567 120.827Z" fill="#EBEBEB"/>
<path d="M317.206 122.202H320.358V93.7752H317.206V122.202Z" fill="#EBEBEB"/>
<path d="M279.659 122.202H282.811V93.7752H279.659V122.202Z" fill="#EBEBEB"/>
<path d="M336.788 127.319H225.674V159.632H336.788V127.319Z" fill="#E0E0E0"/>
<path d="M231.986 132.555H225.674V159.639H231.986V132.555Z" fill="#EBEBEB"/>
<path d="M262.513 132.555H256.201V159.639H262.513V132.555Z" fill="#EBEBEB"/>
<path d="M297.164 131.861L290.943 132.931L295.553 159.622L301.773 158.552L297.164 131.861Z" fill="#EBEBEB"/>
<path d="M239.811 136.122H233.499V159.639H239.811V136.122Z" fill="#EBEBEB"/>
<path d="M254.322 136.122H248.01V159.639H254.322V136.122Z" fill="#EBEBEB"/>
<path d="M290.938 136.122H284.626V159.639H290.938V136.122Z" fill="#EBEBEB"/>
<path d="M270.807 135.293L264.646 136.66L269.757 159.617L275.919 158.25L270.807 135.293Z" fill="#EBEBEB"/>
<path d="M245.263 131.204H242.111V159.632H245.263V131.204Z" fill="#EBEBEB"/>
<path d="M282.811 131.204H279.659V159.632H282.811V131.204Z" fill="#EBEBEB"/>
<path d="M330.475 159.632H336.788V132.547H330.475V159.632Z" fill="#EBEBEB"/>
<path d="M322.659 159.632H328.971V136.114H322.659V159.632Z" fill="#EBEBEB"/>
<path d="M308.155 159.632H314.468V136.114H308.155V159.632Z" fill="#EBEBEB"/>
<path d="M317.206 159.639H320.358V131.212H317.206V159.639Z" fill="#EBEBEB"/>
<path d="M225.682 197.069H336.796V164.756H225.682V197.069Z" fill="#E0E0E0"/>
<path d="M266.7 197.068H273.012V169.984H266.7V197.068Z" fill="#EBEBEB"/>
<path d="M227.459 195.994L233.68 197.064L238.289 170.373L232.069 169.303L227.459 195.994Z" fill="#EBEBEB"/>
<path d="M289.402 197.069H295.714V173.551H289.402V197.069Z" fill="#EBEBEB"/>
<path d="M274.891 197.069H281.203V173.551H274.891V197.069Z" fill="#EBEBEB"/>
<path d="M238.275 197.069H244.587V173.551H238.275V197.069Z" fill="#EBEBEB"/>
<path d="M253.309 195.69L259.471 197.057L264.582 174.1L258.42 172.733L253.309 195.69Z" fill="#EBEBEB"/>
<path d="M283.949 197.068H287.101V168.641H283.949V197.068Z" fill="#EBEBEB"/>
<path d="M246.402 197.068H249.554V168.641H246.402V197.068Z" fill="#EBEBEB"/>
<path d="M300.075 195.988L306.296 197.059L310.905 170.368L304.685 169.297L300.075 195.988Z" fill="#EBEBEB"/>
<path d="M310.894 197.069H317.206V173.551H310.894V197.069Z" fill="#EBEBEB"/>
<path d="M325.938 195.69L332.1 197.057L337.211 174.1L331.05 172.733L325.938 195.69Z" fill="#EBEBEB"/>
<path d="M319.021 197.068H322.173V168.641H319.021V197.068Z" fill="#EBEBEB"/>
<path d="M361.639 84.3842H341.014V259.81H361.639V84.3842Z" fill="#E0E0E0"/>
<path d="M153.978 70.6313V45.9938H119.058V70.6313H153.978Z" fill="#E0E0E0"/>
<path d="M152.339 69.0185V47.5987H120.697V69.0185H152.339Z" fill="#EBEBEB"/>
<path d="M141.871 101.577V76.9397H106.951V101.577H141.871Z" fill="#E0E0E0"/>
<path d="M140.231 99.9644V78.5446H108.59V99.9644H140.231Z" fill="#EBEBEB"/>
<path d="M90.2107 70.6313H112.435V39.2484H90.2107V70.6313Z" fill="#E0E0E0"/>
<path d="M91.6594 69.1535H110.986V40.7183H91.6594V69.1535Z" fill="#EBEBEB"/>
<path d="M77.5622 111.802H102.246V76.9476H77.5622V111.802Z" fill="#E0E0E0"/>
<path d="M79.1781 110.158H100.638V78.5763H79.1781V110.158Z" fill="#EBEBEB"/>
<path d="M55.322 51.3408V70.6313H82.6646V51.3408H55.322Z" fill="#E0E0E0"/>
<path d="M56.6115 52.604V69.376H81.383V52.604H56.6115Z" fill="#EBEBEB"/>
<path d="M199 296C284.238 296 353.336 291.973 353.336 287.006C353.336 282.039 284.238 278.012 199 278.012C113.762 278.012 44.6636 282.039 44.6636 287.006C44.6636 291.973 113.762 296 199 296Z" fill="#F5F5F5"/>
<path d="M346.26 11.1231V42.3629C346.255 42.7671 346.166 43.1659 346.001 43.535C345.836 43.904 345.597 44.2355 345.299 44.5092C345.001 44.7829 344.65 44.993 344.268 45.1267C343.886 45.2604 343.48 45.3148 343.076 45.2867H237.375C237.375 45.2867 225.157 39.598 226.064 31.653C226.757 25.297 227.473 20.1407 228.062 16.2079C228.411 13.9066 229.576 11.8067 231.345 10.2903C233.114 8.77389 235.37 7.94168 237.702 7.94505H343.076C343.92 7.94505 344.73 8.27987 345.327 8.87586C345.925 9.47186 346.26 10.2802 346.26 11.1231Z" fill="#FF7500"/>
<path opacity="0.6" d="M346.26 11.1231V42.3629C346.255 42.7671 346.166 43.1659 346.001 43.535C345.836 43.904 345.597 44.2355 345.299 44.5092C345.001 44.7829 344.65 44.993 344.268 45.1267C343.886 45.2604 343.48 45.3148 343.076 45.2867H237.375C237.375 45.2867 225.157 39.598 226.064 31.653C226.757 25.297 227.473 20.1407 228.062 16.2079C228.411 13.9066 229.576 11.8067 231.345 10.2903C233.114 8.77389 235.37 7.94168 237.702 7.94505H343.076C343.92 7.94505 344.73 8.27987 345.327 8.87586C345.925 9.47186 346.26 10.2802 346.26 11.1231Z" fill="white"/>
<path opacity="0.2" d="M346.26 11.1231V42.3629C346.254 42.7671 346.166 43.1659 346.001 43.535C345.836 43.904 345.597 44.2355 345.299 44.5092C345.001 44.7829 344.65 44.993 344.268 45.1267C343.885 45.2604 343.48 45.3148 343.076 45.2867H333.755C333.755 45.2867 321.528 39.598 322.38 31.653C323.072 25.297 323.789 20.1407 324.378 16.2079C324.727 13.895 325.901 11.7856 327.683 10.2675C329.466 8.7494 331.738 7.92471 334.081 7.94504H343.076C343.92 7.94504 344.73 8.27986 345.327 8.87585C345.924 9.47185 346.26 10.2802 346.26 11.1231Z" fill="black"/>
<path d="M228.452 34.1636H320.788C320.788 34.1636 323.837 40.9169 329.011 43.6977H238.8C238.8 43.6977 229.248 39.3279 228.452 34.1636Z" fill="#FF7500"/>
<path opacity="0.2" d="M228.452 34.1636H320.788C320.788 34.1636 323.837 40.9169 329.011 43.6977H238.8C238.8 43.6977 229.248 39.3279 228.452 34.1636Z" fill="black"/>
<path d="M234.82 40.5197H323.972L322.643 43.6977H234.82V40.5197Z" fill="#FF7500"/>
<path d="M231.636 36.5471H320.788L319.459 39.7252H231.636V36.5471Z" fill="#FF7500"/>
<path d="M317.604 31.7801H315.351V32.7097H317.604V31.7801Z" fill="#FF7500"/>
<path d="M314.412 31.7801H312.159V32.7097H314.412V31.7801Z" fill="#FF7500"/>
<path d="M221.129 28.3161C220.902 28.0942 220.723 27.8296 220.6 27.5377C220.477 27.2458 220.414 26.9324 220.414 26.6159C220.414 26.2993 220.477 25.9859 220.6 25.694C220.723 25.4021 220.902 25.1375 221.129 24.9156" stroke="#FF7500" stroke-linecap="round" stroke-linejoin="round"/>
<path d="M219.879 29.5714C219.489 29.1839 219.18 28.7233 218.969 28.2161C218.758 27.7089 218.649 27.1651 218.649 26.6159C218.649 26.0666 218.758 25.5228 218.969 25.0156C219.18 24.5084 219.489 24.0479 219.879 23.6603" stroke="#FF7500" stroke-width="1.05659" stroke-linecap="round" stroke-linejoin="round"/>
<path d="M218.717 30.7314C218.174 30.1918 217.743 29.5504 217.449 28.8442C217.155 28.1379 217.004 27.3806 217.004 26.6159C217.004 25.8511 217.155 25.0938 217.449 24.3876C217.743 23.6813 218.174 23.04 218.717 22.5003" stroke="#FF7500" stroke-linecap="round" stroke-linejoin="round"/>
<path d="M222.761 27.2912C223.134 27.2912 223.437 26.9888 223.437 26.6158C223.437 26.2429 223.134 25.9405 222.761 25.9405C222.387 25.9405 222.084 26.2429 222.084 26.6158C222.084 26.9888 222.387 27.2912 222.761 27.2912Z" fill="#FF7500"/>
<path d="M39.8 206.571V287.61H45.372V218.488H138.504V287.61H145.668V206.571H39.8Z" fill="#263238"/>
<path opacity="0.3" d="M39.8 206.571V287.61H45.372V218.488H138.504V287.61H145.668V206.571H39.8Z" fill="black"/>
<path opacity="0.4" d="M39.8 206.571V287.61H45.372V218.488H138.504V287.61H145.668V206.571H39.8Z" fill="white"/>
<path d="M93.928 206.571V287.61H99.5V218.488H192.632V287.61H199.796V206.571H93.928Z" fill="#263238"/>
<path opacity="0.5" d="M93.928 206.571V287.61H99.5V218.488H192.632V287.61H199.796V206.571H93.928Z" fill="white"/>
<path d="M189.766 150.709H159.057C157.083 150.709 155.483 152.306 155.483 154.277V203.003C155.483 204.974 157.083 206.571 159.057 206.571H189.766C191.74 206.571 193.34 204.974 193.34 203.003V154.277C193.34 152.306 191.74 150.709 189.766 150.709Z" fill="#263238"/>
<path opacity="0.1" d="M189.766 150.709H159.057C157.083 150.709 155.483 152.306 155.483 154.277V203.003C155.483 204.974 157.083 206.571 159.057 206.571H189.766C191.74 206.571 193.34 204.974 193.34 203.003V154.277C193.34 152.306 191.74 150.709 189.766 150.709Z" fill="white"/>
<path opacity="0.1" d="M189.766 150.709H180.023C178.049 150.709 176.449 152.306 176.449 154.277V203.003C176.449 204.974 178.049 206.571 180.023 206.571H189.766C191.74 206.571 193.34 204.974 193.34 203.003V154.277C193.34 152.306 191.74 150.709 189.766 150.709Z" fill="white"/>
<path opacity="0.3" d="M185.468 167.974C184.345 167.975 183.247 167.644 182.313 167.023C181.378 166.401 180.65 165.517 180.219 164.482C179.788 163.447 179.675 162.308 179.893 161.209C180.111 160.109 180.651 159.099 181.444 158.306C182.237 157.513 183.249 156.973 184.35 156.754C185.451 156.534 186.593 156.646 187.63 157.075C188.668 157.503 189.554 158.229 190.178 159.161C190.802 160.093 191.135 161.188 191.136 162.309C191.133 163.809 190.536 165.248 189.474 166.309C188.412 167.371 186.971 167.97 185.468 167.974Z" fill="black"/>
<path opacity="0.2" d="M190.395 162.309C190.395 163.288 190.104 164.245 189.559 165.059C189.015 165.873 188.24 166.507 187.334 166.882C186.428 167.257 185.431 167.355 184.469 167.164C183.507 166.973 182.623 166.501 181.93 165.809C181.236 165.117 180.764 164.235 180.572 163.275C180.381 162.314 180.479 161.319 180.855 160.415C181.23 159.51 181.866 158.737 182.681 158.193C183.497 157.65 184.455 157.359 185.436 157.359C186.751 157.359 188.013 157.881 188.943 158.809C189.873 159.737 190.395 160.996 190.395 162.309Z" fill="white"/>
<path opacity="0.3" d="M187.426 162.309C187.428 162.8 187.283 163.28 187.011 163.689C186.739 164.098 186.351 164.417 185.897 164.606C185.443 164.794 184.943 164.844 184.46 164.749C183.978 164.653 183.534 164.417 183.187 164.07C182.839 163.723 182.602 163.28 182.506 162.799C182.411 162.317 182.461 161.818 182.65 161.365C182.839 160.911 183.158 160.524 183.568 160.253C183.977 159.981 184.459 159.837 184.951 159.838C185.606 159.84 186.235 160.101 186.699 160.564C187.163 161.027 187.424 161.654 187.426 162.309Z" fill="black"/>
<path opacity="0.2" d="M186.98 162.309C186.98 162.71 186.861 163.101 186.638 163.435C186.415 163.768 186.098 164.027 185.727 164.181C185.356 164.334 184.948 164.374 184.555 164.296C184.161 164.218 183.799 164.025 183.515 163.742C183.231 163.458 183.038 163.097 182.96 162.704C182.881 162.311 182.922 161.904 183.075 161.534C183.229 161.163 183.489 160.847 183.823 160.624C184.157 160.402 184.549 160.283 184.951 160.283C185.489 160.283 186.005 160.496 186.386 160.876C186.767 161.256 186.98 161.772 186.98 162.309Z" fill="white"/>
<path opacity="0.3" d="M185.468 185.453C184.209 185.453 182.977 185.08 181.93 184.382C180.883 183.683 180.067 182.691 179.585 181.529C179.103 180.368 178.977 179.09 179.222 177.857C179.468 176.624 180.075 175.491 180.965 174.602C181.856 173.714 182.99 173.108 184.226 172.863C185.461 172.618 186.741 172.744 187.905 173.225C189.069 173.706 190.063 174.52 190.763 175.566C191.463 176.611 191.836 177.84 191.836 179.097C191.836 180.783 191.165 182.399 189.971 183.591C188.777 184.783 187.157 185.453 185.468 185.453Z" fill="black"/>
<path opacity="0.2" d="M190.976 179.129C190.976 180.229 190.649 181.304 190.037 182.218C189.425 183.133 188.555 183.846 187.537 184.267C186.518 184.688 185.398 184.798 184.317 184.583C183.236 184.369 182.244 183.839 181.464 183.061C180.685 182.283 180.154 181.292 179.939 180.214C179.724 179.135 179.835 178.017 180.256 177C180.678 175.984 181.392 175.116 182.309 174.504C183.225 173.893 184.302 173.567 185.404 173.567C186.882 173.567 188.299 174.153 189.344 175.196C190.389 176.239 190.976 177.654 190.976 179.129Z" fill="white"/>
<path opacity="0.3" d="M187.665 179.129C187.665 179.675 187.502 180.21 187.198 180.665C186.894 181.119 186.461 181.474 185.955 181.683C185.449 181.892 184.892 181.947 184.354 181.84C183.817 181.734 183.324 181.47 182.936 181.084C182.549 180.697 182.285 180.204 182.178 179.668C182.071 179.132 182.126 178.576 182.336 178.071C182.545 177.565 182.9 177.134 183.356 176.83C183.811 176.526 184.347 176.364 184.895 176.364C185.63 176.364 186.334 176.655 186.854 177.174C187.373 177.692 187.665 178.395 187.665 179.129Z" fill="black"/>
<path opacity="0.2" d="M187.163 179.129C187.163 179.576 187.03 180.014 186.781 180.387C186.532 180.759 186.178 181.049 185.763 181.221C185.348 181.392 184.892 181.437 184.452 181.349C184.012 181.262 183.608 181.046 183.291 180.73C182.973 180.413 182.757 180.01 182.67 179.57C182.582 179.131 182.627 178.676 182.799 178.262C182.971 177.848 183.261 177.495 183.634 177.246C184.008 176.997 184.446 176.864 184.895 176.864C185.496 176.866 186.072 177.106 186.497 177.53C186.922 177.954 187.161 178.529 187.163 179.129Z" fill="white"/>
<path d="M148.374 186.804H96.1807V206.571H148.374V186.804Z" fill="#263238"/>
<path d="M149.982 173.043H95.3369C94.5588 173.043 93.928 173.672 93.928 174.449V187.542C93.928 188.319 94.5588 188.949 95.3369 188.949H149.982C150.76 188.949 151.391 188.319 151.391 187.542V174.449C151.391 173.672 150.76 173.043 149.982 173.043Z" fill="#263238"/>
<path opacity="0.2" d="M149.982 173.043H118.158C117.38 173.043 116.749 173.672 116.749 174.449V187.542C116.749 188.319 117.38 188.949 118.158 188.949H149.982C150.76 188.949 151.391 188.319 151.391 187.542V174.449C151.391 173.672 150.76 173.043 149.982 173.043Z" fill="white"/>
<path d="M149.982 189.735H95.3369C94.5588 189.735 93.928 190.365 93.928 191.141V204.235C93.928 205.012 94.5588 205.641 95.3369 205.641H149.982C150.76 205.641 151.391 205.012 151.391 204.235V191.141C151.391 190.365 150.76 189.735 149.982 189.735Z" fill="#263238"/>
<path opacity="0.2" d="M149.982 189.735H118.158C117.38 189.735 116.749 190.365 116.749 191.141V204.235C116.749 205.012 117.38 205.641 118.158 205.641H149.982C150.76 205.641 151.391 205.012 151.391 204.235V191.141C151.391 190.365 150.76 189.735 149.982 189.735Z" fill="white"/>
<path opacity="0.1" d="M149.982 173.043H95.3369C94.5588 173.043 93.928 173.672 93.928 174.449V187.542C93.928 188.319 94.5588 188.949 95.3369 188.949H149.982C150.76 188.949 151.391 188.319 151.391 187.542V174.449C151.391 173.672 150.76 173.043 149.982 173.043Z" fill="white"/>
<path opacity="0.1" d="M149.982 189.735H95.3369C94.5588 189.735 93.928 190.365 93.928 191.141V204.235C93.928 205.012 94.5588 205.641 95.3369 205.641H149.982C150.76 205.641 151.391 205.012 151.391 204.235V191.141C151.391 190.365 150.76 189.735 149.982 189.735Z" fill="white"/>
<path d="M141.067 178.763H129.087V184.444H141.067V178.763Z" fill="#FF7500"/>
<path opacity="0.3" d="M142.086 178.302H128.021V184.873H142.086V178.302Z" fill="black"/>
<path d="M128.092 197.903C128.092 198.624 127.878 199.329 127.477 199.929C127.075 200.528 126.504 200.996 125.837 201.272C125.169 201.548 124.435 201.62 123.726 201.479C123.017 201.339 122.366 200.991 121.855 200.481C121.344 199.971 120.996 199.322 120.855 198.614C120.714 197.907 120.787 197.174 121.063 196.507C121.34 195.841 121.808 195.271 122.409 194.871C123.01 194.47 123.716 194.256 124.439 194.256C125.408 194.256 126.337 194.64 127.022 195.324C127.707 196.008 128.092 196.936 128.092 197.903Z" fill="#263238"/>
<path d="M129.684 197.903C129.684 198.624 129.47 199.329 129.069 199.929C128.667 200.528 128.096 200.996 127.429 201.272C126.761 201.548 126.027 201.62 125.318 201.479C124.609 201.339 123.958 200.991 123.447 200.481C122.936 199.971 122.588 199.322 122.447 198.614C122.306 197.907 122.379 197.174 122.655 196.507C122.932 195.841 123.4 195.271 124.001 194.871C124.602 194.47 125.308 194.256 126.031 194.256C126.511 194.255 126.986 194.349 127.43 194.531C127.874 194.714 128.277 194.983 128.617 195.322C128.956 195.661 129.225 196.063 129.408 196.506C129.592 196.949 129.685 197.424 129.684 197.903Z" fill="#263238"/>
<path opacity="0.5" d="M129.684 197.903C129.684 198.624 129.47 199.329 129.069 199.929C128.667 200.528 128.096 200.996 127.429 201.272C126.761 201.548 126.027 201.62 125.318 201.479C124.609 201.339 123.958 200.991 123.447 200.481C122.936 199.971 122.588 199.322 122.447 198.614C122.306 197.907 122.379 197.174 122.655 196.507C122.932 195.841 123.4 195.271 124.001 194.871C124.602 194.47 125.308 194.256 126.031 194.256C126.511 194.255 126.986 194.349 127.43 194.531C127.874 194.714 128.277 194.983 128.617 195.322C128.956 195.661 129.225 196.063 129.408 196.506C129.592 196.949 129.685 197.424 129.684 197.903Z" fill="white"/>
<path d="M148.796 197.903C148.795 198.622 148.58 199.325 148.178 199.922C147.776 200.52 147.206 200.985 146.54 201.259C145.874 201.533 145.141 201.604 144.434 201.463C143.728 201.321 143.079 200.974 142.57 200.465C142.061 199.956 141.714 199.307 141.574 198.602C141.434 197.896 141.507 197.165 141.783 196.5C142.059 195.836 142.527 195.268 143.126 194.869C143.725 194.469 144.43 194.256 145.151 194.256C145.63 194.256 146.105 194.35 146.548 194.534C146.99 194.717 147.393 194.986 147.731 195.325C148.07 195.663 148.338 196.065 148.521 196.508C148.704 196.95 148.797 197.424 148.796 197.903Z" fill="#263238"/>
<path d="M150.388 197.903C150.387 198.622 150.172 199.325 149.77 199.922C149.368 200.52 148.799 200.985 148.132 201.259C147.466 201.533 146.733 201.604 146.026 201.463C145.32 201.321 144.671 200.974 144.162 200.465C143.653 199.956 143.306 199.307 143.166 198.602C143.026 197.896 143.099 197.165 143.375 196.5C143.651 195.836 144.119 195.268 144.718 194.869C145.317 194.469 146.022 194.256 146.743 194.256C147.222 194.256 147.697 194.35 148.14 194.534C148.582 194.717 148.985 194.986 149.323 195.325C149.662 195.663 149.93 196.065 150.113 196.508C150.296 196.95 150.389 197.424 150.388 197.903Z" fill="#263238"/>
<path opacity="0.5" d="M150.388 197.903C150.387 198.622 150.172 199.325 149.77 199.922C149.368 200.52 148.799 200.985 148.132 201.259C147.466 201.533 146.733 201.604 146.026 201.463C145.32 201.321 144.671 200.974 144.162 200.465C143.653 199.956 143.306 199.307 143.166 198.602C143.026 197.896 143.099 197.165 143.375 196.5C143.651 195.836 144.119 195.268 144.718 194.869C145.317 194.469 146.022 194.256 146.743 194.256C147.222 194.256 147.697 194.35 148.14 194.534C148.582 194.717 148.985 194.986 149.323 195.325C149.662 195.663 149.93 196.065 150.113 196.508C150.296 196.95 150.389 197.424 150.388 197.903Z" fill="white"/>
<path opacity="0.5" d="M132.63 197.172H131.006V198.793H132.63V197.172Z" fill="white"/>
<path opacity="0.5" d="M134.882 197.172H133.258V198.793H134.882V197.172Z" fill="white"/>
<path opacity="0.5" d="M137.127 197.172H135.503V198.793H137.127V197.172Z" fill="white"/>
<path opacity="0.5" d="M139.38 197.172H137.756V198.793H139.38V197.172Z" fill="white"/>
<path d="M84.6944 150.709H53.9847C52.0108 150.709 50.4106 152.306 50.4106 154.277V203.003C50.4106 204.974 52.0108 206.571 53.9847 206.571H84.6944C86.6683 206.571 88.2684 204.974 88.2684 203.003V154.277C88.2684 152.306 86.6683 150.709 84.6944 150.709Z" fill="#263238"/>
<path opacity="0.1" d="M84.6944 150.709H53.9847C52.0108 150.709 50.4106 152.306 50.4106 154.277V203.003C50.4106 204.974 52.0108 206.571 53.9847 206.571H84.6944C86.6683 206.571 88.2684 204.974 88.2684 203.003V154.277C88.2684 152.306 86.6683 150.709 84.6944 150.709Z" fill="white"/>
<path opacity="0.1" d="M84.6944 150.709H74.9514C72.9775 150.709 71.3773 152.306 71.3773 154.277V203.003C71.3773 204.974 72.9775 206.571 74.9514 206.571H84.6944C86.6683 206.571 88.2684 204.974 88.2684 203.003V154.277C88.2684 152.306 86.6683 150.709 84.6944 150.709Z" fill="white"/>
<path opacity="0.3" d="M80.396 167.974C79.2731 167.975 78.175 167.644 77.2407 167.023C76.3063 166.401 75.5776 165.517 75.1468 164.482C74.7161 163.447 74.6025 162.308 74.8206 161.209C75.0387 160.109 75.5786 159.099 76.372 158.306C77.1654 157.513 78.1767 156.973 79.2778 156.754C80.379 156.534 81.5206 156.646 82.5581 157.075C83.5956 157.503 84.4825 158.229 85.1064 159.161C85.7304 160.093 86.0635 161.188 86.0635 162.309C86.0614 163.809 85.4639 165.248 84.4017 166.309C83.3395 167.371 81.8992 167.97 80.396 167.974Z" fill="black"/>
<path opacity="0.2" d="M85.3233 162.309C85.3233 163.288 85.0324 164.245 84.4875 165.059C83.9426 165.873 83.1681 166.507 82.2619 166.882C81.3558 167.257 80.3587 167.355 79.3967 167.164C78.4347 166.973 77.5511 166.501 76.8576 165.809C76.164 165.117 75.6917 164.235 75.5004 163.275C75.309 162.314 75.4072 161.319 75.7826 160.415C76.1579 159.51 76.7935 158.737 77.6091 158.193C78.4246 157.65 79.3834 157.359 80.3642 157.359C81.6794 157.359 82.9408 157.881 83.8708 158.809C84.8008 159.737 85.3233 160.996 85.3233 162.309Z" fill="white"/>
<path opacity="0.3" d="M82.3542 162.309C82.3557 162.8 82.2112 163.28 81.9389 163.689C81.6667 164.098 81.2789 164.417 80.8247 164.606C80.3706 164.794 79.8706 164.844 79.3881 164.749C78.9056 164.653 78.4624 164.417 78.1146 164.07C77.7667 163.723 77.5301 163.28 77.4345 162.799C77.3389 162.317 77.3888 161.818 77.5777 161.365C77.7667 160.911 78.0862 160.524 78.4959 160.253C78.9055 159.981 79.3867 159.837 79.8786 159.838C80.5345 159.84 81.163 160.101 81.6268 160.564C82.0906 161.027 82.3521 161.654 82.3542 162.309Z" fill="black"/>
<path opacity="0.2" d="M81.9084 162.309C81.9084 162.71 81.7894 163.101 81.5663 163.435C81.3433 163.768 81.0263 164.027 80.6554 164.181C80.2845 164.334 79.8764 164.374 79.4826 164.296C79.0889 164.218 78.7272 164.025 78.4433 163.742C78.1595 163.458 77.9661 163.097 77.8878 162.704C77.8095 162.311 77.8497 161.904 78.0033 161.534C78.157 161.163 78.4171 160.847 78.7509 160.624C79.0847 160.402 79.4772 160.283 79.8786 160.283C80.417 160.283 80.9332 160.496 81.3139 160.876C81.6946 161.256 81.9084 161.772 81.9084 162.309Z" fill="white"/>
<path opacity="0.3" d="M80.396 185.453C79.1365 185.453 77.9053 185.08 76.8581 184.382C75.8109 183.683 74.9947 182.691 74.5127 181.529C74.0307 180.368 73.9046 179.09 74.1503 177.857C74.396 176.624 75.0025 175.491 75.8931 174.602C76.7837 173.714 77.9184 173.108 79.1536 172.863C80.3889 172.618 81.6693 172.744 82.8329 173.225C83.9965 173.706 84.991 174.52 85.6908 175.566C86.3905 176.611 86.764 177.84 86.764 179.097C86.764 180.783 86.093 182.399 84.8988 183.591C83.7046 184.783 82.0849 185.453 80.396 185.453Z" fill="black"/>
<path opacity="0.2" d="M85.9043 179.129C85.9043 180.229 85.5775 181.304 84.9653 182.218C84.353 183.133 83.4828 183.846 82.4646 184.267C81.4465 184.688 80.3261 184.798 79.2453 184.583C78.1644 184.369 77.1716 183.839 76.3923 183.061C75.6131 182.283 75.0824 181.292 74.8674 180.214C74.6524 179.135 74.7627 178.017 75.1845 177C75.6062 175.984 76.3204 175.116 77.2367 174.504C78.153 173.893 79.2303 173.567 80.3323 173.567C81.8101 173.567 83.2274 174.153 84.2723 175.196C85.3173 176.239 85.9043 177.654 85.9043 179.129Z" fill="white"/>
<path opacity="0.3" d="M82.593 179.129C82.593 179.675 82.4305 180.21 82.1261 180.665C81.8217 181.119 81.3891 181.474 80.8829 181.683C80.3768 181.892 79.8198 181.947 79.2825 181.84C78.7451 181.734 78.2515 181.47 77.8641 181.084C77.4767 180.697 77.2129 180.204 77.106 179.668C76.9991 179.132 77.054 178.576 77.2637 178.071C77.4733 177.565 77.8284 177.134 78.2839 176.83C78.7394 176.526 79.275 176.364 79.8229 176.364C80.5575 176.364 81.2621 176.655 81.7816 177.174C82.3011 177.692 82.593 178.395 82.593 179.129Z" fill="black"/>
<path opacity="0.2" d="M82.0915 179.129C82.0915 179.576 81.9584 180.014 81.7091 180.387C81.4599 180.759 81.1056 181.049 80.691 181.221C80.2765 181.392 79.8203 181.437 79.3803 181.349C78.9402 181.262 78.536 181.046 78.2187 180.73C77.9014 180.413 77.6854 180.01 77.5979 179.57C77.5103 179.131 77.5552 178.676 77.7269 178.262C77.8987 177.848 78.1894 177.495 78.5625 177.246C78.9356 176.997 79.3742 176.864 79.8229 176.864C80.4239 176.866 80.9997 177.106 81.4247 177.53C81.8497 177.954 82.0894 178.529 82.0915 179.129Z" fill="white"/>
<path d="M124.176 165.694C124.398 165.467 124.664 165.286 124.957 165.163C125.25 165.04 125.565 164.976 125.883 164.976C126.201 164.976 126.516 165.04 126.81 165.163C127.103 165.286 127.368 165.467 127.591 165.694" stroke="#FF7500" stroke-linecap="round" stroke-linejoin="round"/>
<path d="M122.918 164.462C123.705 163.68 124.769 163.241 125.879 163.241C126.99 163.241 128.054 163.68 128.841 164.462" stroke="#FF7500" stroke-width="1.05659" stroke-linecap="round" stroke-linejoin="round"/>
<path d="M121.788 163.278C122.883 162.187 124.368 161.574 125.915 161.574C127.463 161.574 128.947 162.187 130.042 163.278" stroke="#FF7500" stroke-linecap="round" stroke-linejoin="round"/>
<path d="M126.564 167.314C126.566 167.45 126.527 167.583 126.452 167.697C126.377 167.81 126.271 167.899 126.145 167.952C126.02 168.005 125.881 168.019 125.748 167.993C125.614 167.967 125.492 167.901 125.395 167.805C125.299 167.709 125.234 167.587 125.208 167.454C125.182 167.32 125.196 167.182 125.249 167.057C125.301 166.932 125.39 166.825 125.504 166.751C125.618 166.676 125.751 166.637 125.887 166.639C126.067 166.639 126.239 166.71 126.366 166.837C126.493 166.963 126.564 167.135 126.564 167.314Z" fill="#FF7500"/>
<path d="M242.414 216.693H194.471C189.358 216.693 185.213 220.83 185.213 225.933V263.553C185.213 268.656 189.358 272.793 194.471 272.793H242.414C247.527 272.793 251.671 268.656 251.671 263.553V225.933C251.671 220.83 247.527 216.693 242.414 216.693Z" fill="#FF7500"/>
<path opacity="0.1" d="M242.414 216.693H194.471C189.358 216.693 185.213 220.83 185.213 225.933V263.553C185.213 268.656 189.358 272.793 194.471 272.793H242.414C247.527 272.793 251.671 268.656 251.671 263.553V225.933C251.671 220.83 247.527 216.693 242.414 216.693Z" fill="white"/>
<path opacity="0.2" d="M194.463 272.801C192.009 272.798 189.656 271.824 187.922 270.091C186.188 268.359 185.213 266.01 185.213 263.56V225.933C185.213 223.484 186.188 221.135 187.922 219.402C189.656 217.669 192.009 216.695 194.463 216.693C196.918 216.693 199.273 217.666 201.009 219.399C202.745 221.132 203.72 223.482 203.72 225.933V263.56C203.72 266.011 202.745 268.361 201.009 270.094C199.273 271.827 196.918 272.801 194.463 272.801Z" fill="white"/>
<path d="M79.6 270.584L76.814 287.61H82.784L88.2685 271.37L79.6 270.584Z" fill="#263238"/>
<path d="M161.103 270.584L163.889 287.61H157.919L152.434 271.37L161.103 270.584Z" fill="#263238"/>
<path opacity="0.1" d="M79.6 270.584L76.814 287.61H82.784L88.2685 271.37L79.6 270.584Z" fill="white"/>
<path opacity="0.1" d="M161.103 270.584L163.889 287.61H157.919L152.434 271.37L161.103 270.584Z" fill="white"/>
<path d="M245.964 270.584L243.178 287.61H249.148L254.632 271.37L245.964 270.584Z" fill="#263238"/>
<path d="M327.466 270.584L330.252 287.61H324.282L318.798 271.37L327.466 270.584Z" fill="#263238"/>
<path d="M332.219 234.378H74.5375C70.7392 234.378 67.66 237.452 67.66 241.243V268.033C67.66 271.825 70.7392 274.898 74.5375 274.898H332.219C336.017 274.898 339.096 271.825 339.096 268.033V241.243C339.096 237.452 336.017 234.378 332.219 234.378Z" fill="#FF7500"/>
<path opacity="0.1" d="M332.219 234.378H74.5375C70.7392 234.378 67.66 237.452 67.66 241.243V268.033C67.66 271.825 70.7392 274.898 74.5375 274.898H332.219C336.017 274.898 339.096 271.825 339.096 268.033V241.243C339.096 237.452 336.017 234.378 332.219 234.378Z" fill="white"/>
<path opacity="0.2" d="M163.467 234.378H74.5375C70.7392 234.378 67.66 237.452 67.66 241.243V268.033C67.66 271.825 70.7392 274.898 74.5375 274.898H163.467C167.265 274.898 170.344 271.825 170.344 268.033V241.243C170.344 237.452 167.265 234.378 163.467 234.378Z" fill="white"/>
<path d="M237.208 235.316H335.116L350.033 158.424C350.415 156.449 350.354 154.414 349.855 152.465C349.355 150.516 348.429 148.702 347.144 147.152C345.859 145.603 344.246 144.356 342.421 143.503C340.596 142.65 338.604 142.21 336.589 142.216H266.493C263.33 142.224 260.269 143.329 257.831 145.34C255.393 147.351 253.731 150.145 253.128 153.244L237.208 235.316Z" fill="#FF7500"/>
<g opacity="0.1">
<path d="M237.208 235.316H335.116L350.033 158.424C350.415 156.449 350.354 154.414 349.855 152.465C349.355 150.516 348.429 148.702 347.144 147.152C345.859 145.603 344.246 144.356 342.421 143.503C340.596 142.65 338.604 142.21 336.589 142.216H266.493C263.33 142.224 260.269 143.329 257.831 145.34C255.393 147.351 253.731 150.145 253.128 153.244L237.208 235.316Z" fill="white"/>
</g>
<path opacity="0.2" d="M237.208 235.173H307.256L323.176 153.172C323.784 150.073 325.456 147.283 327.905 145.283C330.354 143.282 333.425 142.198 336.589 142.216H266.493C263.336 142.209 260.275 143.3 257.836 145.301C255.398 147.302 253.733 150.088 253.128 153.18L237.208 235.173Z" fill="white"/>
<path d="M345.958 216.693H298.014C292.902 216.693 288.757 220.83 288.757 225.933V263.553C288.757 268.656 292.902 272.793 298.014 272.793H345.958C351.07 272.793 355.215 268.656 355.215 263.553V225.933C355.215 220.83 351.07 216.693 345.958 216.693Z" fill="#FF7500"/>
<path opacity="0.1" d="M345.958 216.693H298.014C292.902 216.693 288.757 220.83 288.757 225.933V263.553C288.757 268.656 292.902 272.793 298.014 272.793H345.958C351.07 272.793 355.215 268.656 355.215 263.553V225.933C355.215 220.83 351.07 216.693 345.958 216.693Z" fill="white"/>
<path opacity="0.2" d="M298.006 272.801C295.553 272.798 293.2 271.824 291.466 270.091C289.731 268.359 288.757 266.01 288.757 263.56V225.933C288.757 223.484 289.731 221.135 291.466 219.402C293.2 217.669 295.553 216.695 298.006 216.693C300.46 216.695 302.813 217.669 304.547 219.402C306.282 221.135 307.256 223.484 307.256 225.933V263.56C307.256 266.01 306.282 268.359 304.547 270.091C302.813 271.824 300.46 272.798 298.006 272.801Z" fill="white"/>
<path d="M257.992 226.934C257.992 226.934 250.477 237.556 238.888 236.762C217.181 235.276 190.801 204.982 187.617 204.72C182.579 204.298 140.653 226.966 140.653 226.966L132.932 218.353C132.932 218.353 178.025 182.831 187.856 182.251C197.687 181.671 257.992 226.934 257.992 226.934Z" fill="#FF7500"/>
<path opacity="0.6" d="M258.103 226.934C258.041 226.986 257.992 227.05 257.957 227.123C257.923 227.195 257.905 227.275 257.904 227.355C255.674 230.146 252.912 232.469 249.777 234.188C246.487 236.085 242.713 236.98 238.919 236.762C217.212 235.276 190.809 204.982 187.625 204.72C182.586 204.299 140.661 226.966 140.661 226.966L132.932 218.353C132.932 218.353 150.444 204.585 165.974 194.049C175.407 187.693 184.139 182.474 187.848 182.251C196.97 181.719 249.602 220.641 257.14 226.259C257.737 226.696 258.103 226.934 258.103 226.934Z" fill="white"/>
<path d="M245.9 144.083C245.9 144.083 241.634 144.004 241.49 144.758C241.347 145.513 241.618 151.734 242.183 152.608C242.809 153.397 243.522 154.114 244.308 154.745L241.188 164.017L246.45 166.679L248.758 156.573C248.758 156.573 251.369 154.022 250.605 150.789C249.84 147.555 245.9 144.083 245.9 144.083Z" fill="#EEC1BB"/>
<path opacity="0.2" d="M245.9 144.083C245.9 144.083 241.634 144.004 241.49 144.758C241.347 145.513 241.618 151.734 242.183 152.608C242.809 153.397 243.522 154.114 244.308 154.745L241.188 164.017L246.45 166.679L248.758 156.573C248.758 156.573 251.369 154.022 250.605 150.789C249.84 147.555 245.9 144.083 245.9 144.083Z" fill="black"/>
<path d="M240.392 164.136L241.69 161.403L248.121 164.136L247.699 167.441L240.392 164.136Z" fill="#263238"/>
<path d="M263.874 156.12C257.506 156.255 246.625 181.679 246.625 181.679C246.625 181.679 249.084 169.229 248.519 167.775C247.954 166.321 242.517 162.738 239.596 163.533C236.675 164.327 230.442 184.793 234.82 191.976C239.198 199.158 247.293 200.874 258.565 193.326C269.836 185.779 263.874 156.12 263.874 156.12Z" fill="#263238"/>
<path opacity="0.3" d="M259.496 192.627C259.202 192.874 258.891 193.08 258.573 193.303C252.109 197.625 246.696 198.626 242.422 197.831C240.827 197.407 239.334 196.667 238.031 195.656C236.728 194.644 235.641 193.382 234.836 191.944C230.458 184.793 236.691 164.311 239.612 163.517C242.533 162.722 247.97 166.305 248.535 167.767C249.1 169.229 246.76 181.147 246.633 181.663C246.967 180.869 257.602 156.239 263.874 156.12C263.874 156.12 269.51 184.11 259.496 192.627Z" fill="black"/>
<path opacity="0.2" d="M259.496 192.627C259.201 192.876 258.892 193.109 258.573 193.326C252.109 197.648 246.696 198.936 242.422 197.887C251.409 193.581 258.143 182.251 258.143 182.251L259.496 192.627Z" fill="black"/>
<path d="M274.397 155.46C274.397 155.46 277.525 149.756 289.601 152.012C301.676 154.269 299.344 158.996 295.459 160.664C291.575 162.333 277.613 160.664 277.613 160.664C277.613 160.664 273.617 157.574 274.397 155.46Z" fill="#263238"/>
<path opacity="0.2" d="M274.397 155.46C274.397 155.46 277.525 149.756 289.601 152.012C301.676 154.269 299.344 158.996 295.459 160.664C291.575 162.333 277.613 160.664 277.613 160.664C277.613 160.664 273.617 157.574 274.397 155.46Z" fill="black"/>
<path d="M240.392 209.447C240.392 209.447 252.531 201.216 256.312 188.79C260.093 176.364 263.874 156.112 263.874 156.112C263.874 156.112 281.983 151.544 299.495 158.098C317.007 164.653 297.362 221.825 281.259 227.863L240.392 209.447Z" fill="#263238"/>
<path d="M291.798 140.317C290.206 145.084 288.112 153.943 291.129 157.653C289.493 158.959 287.613 159.928 285.599 160.503C283.585 161.079 281.477 161.25 279.396 161.006C273.084 160.355 275.918 155.723 275.918 155.723C281.553 155.111 281.927 151.035 281.49 147.11L291.798 140.317Z" fill="#EEC1BB"/>
<path opacity="0.2" d="M287.571 143.09L281.426 147.11C281.548 148.024 281.59 148.946 281.553 149.867C283.686 149.867 286.847 147.905 287.348 145.752C287.585 144.885 287.66 143.983 287.571 143.09Z" fill="black"/>
<path d="M281.784 125.857C284.228 128.106 282.524 131.037 275.655 135.002C273.641 131.403 274.166 125.071 276.379 123.784C278.592 122.496 279.651 123.942 281.784 125.857Z" fill="#263238"/>
<path d="M292.705 132.682C291.766 137.521 291.288 140.921 289.593 143.559C288.948 144.547 288.141 145.42 287.205 146.141C281.482 150.598 273.673 146.483 272.964 139.658C272.964 139.443 272.925 139.221 272.917 138.998C272.487 132.841 274.763 123.72 281.378 122.004C282.887 121.602 284.473 121.591 285.987 121.974C287.501 122.356 288.891 123.118 290.026 124.189C291.162 125.259 292.004 126.601 292.473 128.088C292.941 129.574 293.022 131.156 292.705 132.682Z" fill="#EEC1BB"/>
<path opacity="0.3" d="M289.593 143.519C288.948 144.508 288.141 145.381 287.205 146.101C281.481 150.558 273.673 146.443 272.964 139.618C272.964 139.403 272.924 139.181 272.917 138.959C274.158 139.65 275.894 140.428 277.199 140.317C279.484 140.134 281.927 138.569 283.511 138.069C284.489 137.825 285.507 137.798 286.496 137.989C286.496 137.989 289.036 136.4 289.68 134.017L290.317 135.399C290.693 138.126 290.445 140.902 289.593 143.519Z" fill="black"/>
<path d="M282.58 133.159C282.508 133.699 282.158 134.096 281.784 134.049C281.41 134.001 281.203 133.532 281.275 132.992C281.346 132.452 281.688 132.054 282.071 132.094C282.453 132.134 282.58 132.626 282.58 133.159Z" fill="#263238"/>
<path d="M276.395 132.364C276.323 132.904 275.981 133.302 275.599 133.254C275.217 133.206 275.01 132.738 275.082 132.189C275.153 131.641 275.496 131.252 275.878 131.3C276.26 131.347 276.467 131.824 276.395 132.364Z" fill="#263238"/>
<path d="M278.369 132.881C277.511 134.446 276.44 135.884 275.185 137.155C275.522 137.464 275.922 137.695 276.358 137.832C276.794 137.97 277.255 138.01 277.709 137.95L278.369 132.881Z" fill="#D58745"/>
<path d="M284.482 131.443C284.549 131.47 284.623 131.47 284.689 131.443C284.762 131.399 284.816 131.33 284.839 131.249C284.863 131.168 284.855 131.081 284.817 131.006C284.578 130.562 284.236 130.182 283.821 129.896C283.406 129.61 282.929 129.427 282.429 129.361C282.388 129.357 282.347 129.36 282.309 129.372C282.27 129.384 282.234 129.403 282.202 129.429C282.171 129.455 282.146 129.487 282.127 129.523C282.108 129.559 282.097 129.599 282.094 129.639C282.092 129.722 282.121 129.804 282.175 129.867C282.23 129.93 282.306 129.971 282.389 129.981C282.787 130.035 283.166 130.183 283.495 130.413C283.824 130.642 284.095 130.946 284.283 131.3C284.305 131.335 284.334 131.366 284.369 131.391C284.403 131.416 284.441 131.433 284.482 131.443Z" fill="#263238"/>
<path d="M273.872 129.925C273.932 129.932 273.992 129.923 274.047 129.897C274.102 129.872 274.149 129.832 274.182 129.782C274.395 129.441 274.685 129.154 275.03 128.946C275.374 128.737 275.763 128.613 276.164 128.582C276.249 128.582 276.33 128.549 276.389 128.489C276.449 128.43 276.483 128.349 276.483 128.265C276.49 128.183 276.466 128.102 276.416 128.037C276.366 127.972 276.293 127.929 276.212 127.915C275.702 127.944 275.207 128.094 274.768 128.354C274.329 128.614 273.958 128.976 273.689 129.409C273.643 129.478 273.627 129.563 273.643 129.645C273.659 129.727 273.707 129.799 273.776 129.846C273.803 129.878 273.835 129.904 273.872 129.925Z" fill="#263238"/>
<path d="M290.835 126.413C287.587 127.073 287.531 130.465 291.36 137.393C294.95 135.352 297.784 129.655 296.534 127.422C295.284 125.19 293.668 125.849 290.835 126.413Z" fill="#263238"/>
<path d="M295.173 138.363C294.84 139.129 294.36 139.822 293.759 140.403C293.158 140.983 292.448 141.44 291.67 141.747C289.577 142.542 288.327 140.73 288.733 138.657C289.091 136.782 290.62 134.112 292.801 134.207C294.982 134.303 295.993 136.464 295.173 138.363Z" fill="#EEC1BB"/>
<path d="M282.516 139.833C282.516 139.833 281.044 141.827 277.844 141.247" stroke="#263238" stroke-width="0.526291" stroke-linecap="round" stroke-linejoin="round"/>
<path d="M276.316 121.654C276.188 122.401 276.411 123.609 280.455 124.205C284.498 124.801 288.216 123.084 289.481 124.205C290.747 125.325 292.052 128.932 292.052 128.932L296.51 127.939C296.51 127.939 297.505 124.999 295.117 121.654C292.729 118.309 279.404 120.86 278.401 119.04C278.369 119.04 276.578 120.041 276.316 121.654Z" fill="#263238"/>
<path d="M127.67 234.362L124.582 228.769L136.14 219.076L139.22 224.67L127.67 234.362Z" fill="#EEC1BB"/>
<path opacity="0.2" d="M139.22 224.67L136.14 219.084L129.525 224.622L132.86 230.017L139.22 224.67Z" fill="black"/>
<path d="M139.189 229.897L130.066 219.203L134.174 214.667L143.949 226.584L139.189 229.897Z" fill="#FF7500"/>
<path opacity="0.2" d="M139.189 229.897L130.066 219.203L134.174 214.667L143.949 226.584L139.189 229.897Z" fill="white"/>
<path d="M124.972 229.254H124.638C124.638 229.151 125.267 227.53 124.996 226.696C124.845 226.45 124.615 226.262 124.343 226.163C124.213 226.104 124.068 226.085 123.926 226.108C123.785 226.13 123.653 226.194 123.547 226.29C123.274 226.772 123.186 227.337 123.3 227.879C122.91 227.315 122.385 226.727 121.931 226.68C121.835 226.67 121.738 226.684 121.649 226.722C121.56 226.759 121.482 226.818 121.422 226.894C121.314 226.993 121.235 227.119 121.195 227.259C121.154 227.399 121.153 227.548 121.191 227.689C121.391 228.054 121.716 228.336 122.106 228.483C122.615 228.731 123.149 228.926 123.698 229.063C123.698 229.063 123.698 229.063 123.746 229.063C123.794 229.063 123.746 229.063 123.794 229.063C123.842 229.063 124.041 229.151 124.065 229.135L124.622 229.206L124.972 229.254ZM123.682 226.481C123.724 226.431 123.783 226.398 123.847 226.388C123.912 226.378 123.977 226.391 124.033 226.425H124.104C124.156 226.452 124.202 226.489 124.239 226.534C124.276 226.579 124.304 226.631 124.319 226.688C124.353 227.379 124.161 228.062 123.77 228.634L123.698 228.507C123.46 227.854 123.454 227.138 123.682 226.481ZM121.478 227.609C121.454 227.518 121.455 227.421 121.482 227.33C121.508 227.239 121.559 227.157 121.629 227.093C121.656 227.054 121.693 227.023 121.737 227.005C121.781 226.987 121.829 226.981 121.876 226.99C122.321 227.037 123.014 227.999 123.468 228.761C122.337 228.428 121.605 228.022 121.478 227.609Z" fill="#FF7500"/>
<path d="M124.63 228.626L130.998 231.947C131.052 231.972 131.101 232.007 131.142 232.051C131.183 232.095 131.215 232.147 131.235 232.203C131.256 232.259 131.265 232.319 131.263 232.378C131.26 232.438 131.246 232.497 131.221 232.551L128.896 237.739C128.759 238.002 128.522 238.2 128.239 238.29C127.955 238.379 127.648 238.353 127.384 238.216C125.179 237.024 124.2 236.341 121.406 234.855C119.695 233.957 116.216 232.337 114.067 230.732C111.918 229.127 113.557 227.053 114.616 227.554C117.116 228.706 121.255 228.865 123.507 228.443C123.891 228.382 124.285 228.446 124.63 228.626Z" fill="#263238"/>
<path d="M279.396 161.006C279.396 161.006 279.937 157.653 287.643 154.571C295.348 151.488 301.859 154.912 300.928 157.177C300.928 157.177 305.935 157.693 303.364 161.006C300.792 164.319 279.396 161.006 279.396 161.006Z" fill="#263238"/>
<path d="M277.613 160.664C277.072 159.474 276.877 158.156 277.052 156.86C277.226 155.565 277.763 154.344 278.6 153.339C278.6 153.339 277.446 151.226 275.161 153.339C275.177 153.339 266.015 155.675 277.613 160.664Z" fill="#263238"/>
<path opacity="0.2" d="M279.396 161.006C279.396 161.006 279.937 157.653 287.643 154.571C295.348 151.488 301.859 154.912 300.928 157.177C300.928 157.177 305.935 157.693 303.364 161.006C300.792 164.319 279.396 161.006 279.396 161.006Z" fill="black"/>
<path opacity="0.2" d="M277.613 160.664C277.072 159.474 276.877 158.156 277.052 156.86C277.226 155.565 277.763 154.344 278.6 153.339C278.6 153.339 277.446 151.226 275.161 153.339C275.177 153.339 266.015 155.675 277.613 160.664Z" fill="black"/>
<path d="M275.726 159.449C275.726 159.449 271.237 161.125 270.839 172.161C270.441 183.196 265.068 183.085 265.068 183.085" stroke="white" stroke-linecap="round" stroke-linejoin="round"/>
<path d="M280.988 160.196C280.988 160.196 278.775 163.668 280.192 170.421C281.609 177.174 280.805 184.825 276.212 187.304" stroke="white" stroke-linecap="round" stroke-linejoin="round"/>
<path d="M253.128 149.525C253.134 149.619 253.12 149.712 253.087 149.799C253.053 149.886 253 149.965 252.933 150.029C252.865 150.094 252.784 150.142 252.695 150.172C252.607 150.202 252.512 150.212 252.42 150.201L245.16 149.637C244.953 149.625 244.757 149.538 244.61 149.391C244.463 149.245 244.375 149.049 244.364 148.842L243.863 134.422C243.853 134.322 243.864 134.221 243.895 134.125C243.926 134.03 243.978 133.942 244.045 133.867C244.112 133.792 244.195 133.732 244.287 133.691C244.379 133.65 244.478 133.628 244.579 133.627L251.831 134.184C252.038 134.226 252.225 134.337 252.363 134.498C252.5 134.66 252.579 134.862 252.587 135.073L253.128 149.525Z" fill="#263238"/>
<path opacity="0.5" d="M251.831 134.954L252.348 149.51C252.363 149.595 252.357 149.683 252.331 149.765C252.306 149.848 252.261 149.923 252.2 149.985C252.139 150.047 252.065 150.094 251.983 150.122C251.901 150.15 251.813 150.158 251.727 150.145L245.574 149.668C245.16 149.668 244.428 149.351 244.412 148.938L243.894 134.335C243.894 133.929 244.611 133.659 245.025 133.691L251.17 134.168C251.36 134.19 251.534 134.283 251.657 134.43C251.78 134.576 251.842 134.764 251.831 134.954Z" fill="white"/>
<path d="M260.507 160.49L257.753 154.07C257.753 154.07 256.853 145.458 256.416 144.536C255.978 143.614 248.965 143.956 248.201 143.9C247.437 143.845 247.556 152.425 248.352 153.339C249.148 154.253 251.95 154.968 251.95 154.968L255.468 164.152L260.507 160.49Z" fill="#EEC1BB"/>
<path d="M254.107 164.136L253.136 160.196L260.507 156.533L261.621 160.339L254.107 164.136Z" fill="#263238"/>
<path d="M253.128 164.136C253.98 161.872 257.761 158.416 261.613 159.449C265.466 160.482 274.222 188.162 276.475 189.489C278.727 190.816 294.297 166.981 298.588 165.257C302.878 163.533 306.15 165.36 306.301 175.172C306.452 184.984 290.46 212.093 276.769 209.86C263.078 207.627 249.546 173.75 253.128 164.136Z" fill="#263238"/>
<path opacity="0.2" d="M253.128 164.136C253.98 161.872 257.761 158.416 261.613 159.449C265.466 160.482 274.222 188.162 276.475 189.489C278.727 190.816 294.297 166.981 298.588 165.257C302.878 163.533 306.15 165.36 306.301 175.172C306.452 184.984 290.46 212.093 276.769 209.86C263.078 207.627 249.546 173.75 253.128 164.136Z" fill="black"/>
<path opacity="0.3" d="M254.242 234.378C252.732 234.456 251.217 234.384 249.721 234.164C226.685 230.986 194.797 196.306 193.253 194.439C192.154 193.112 176.394 193.565 165.998 194.018C175.43 187.662 184.155 182.442 187.864 182.219C196.986 181.687 249.673 220.61 257.211 226.227C257.426 226.6 257.108 226.966 257.904 227.323C259.496 231.439 259.098 234.132 254.242 234.378Z" fill="black"/>
<path d="M288.439 222.278C288.439 222.278 279.794 240.409 252.73 236.365C231.238 233.147 202.948 190.895 200.258 189.179C196.007 186.454 148.343 186.859 148.343 186.859L145.565 175.673C145.565 175.673 202.081 165.344 211.036 169.452C215.947 171.692 261.287 210.766 261.287 210.766L288.439 222.278Z" fill="#FF7500"/>
<path opacity="0.6" d="M288.439 222.278C288.439 222.278 279.794 240.409 252.73 236.365C231.238 233.147 202.948 190.895 200.258 189.179C196.007 186.454 148.343 186.859 148.343 186.859L145.565 175.673C145.565 175.673 202.081 165.344 211.036 169.452C215.947 171.692 261.287 210.766 261.287 210.766L288.439 222.278Z" fill="white"/>
<path d="M133.41 187.36L133.306 180.972L148.064 177.818L148.16 184.198L133.41 187.36Z" fill="#EEC1BB"/>
<path opacity="0.2" d="M148.159 184.198L148.056 177.818L139.618 179.621L140.032 185.945L148.159 184.198Z" fill="black"/>
<path d="M145.676 188.798L142.635 175.093L148.398 172.995L151.439 188.099L145.676 188.798Z" fill="#FF7500"/>
<path opacity="0.2" d="M145.676 188.798L142.635 175.093L148.398 172.995L151.439 188.099L145.676 188.798Z" fill="white"/>
<path d="M133.728 181.56L133.274 181.425C133.916 180.854 134.411 180.137 134.715 179.335C134.715 179.105 134.5 178.747 134.349 178.541C134.258 178.423 134.133 178.335 133.991 178.288C133.849 178.241 133.697 178.238 133.553 178.279C133.089 178.574 132.744 179.025 132.582 179.55C132.575 178.927 132.346 178.327 131.937 177.857C131.856 177.802 131.763 177.768 131.666 177.758C131.568 177.748 131.47 177.763 131.38 177.802C131.233 177.838 131.099 177.916 130.995 178.026C130.89 178.136 130.82 178.273 130.791 178.422C130.779 178.846 130.927 179.26 131.205 179.581C131.539 180.041 131.921 180.464 132.343 180.845C132.343 180.845 132.343 180.845 132.343 180.892H132.399C132.399 180.892 132.582 181.091 132.606 181.083C132.63 181.075 133.211 181.409 133.219 181.401L133.728 181.56ZM133.585 178.541C133.664 178.501 133.776 178.485 133.919 178.652L133.967 178.708C134.001 178.755 134.024 178.81 134.035 178.868C134.046 178.925 134.044 178.984 134.03 179.041C133.951 179.566 133.139 180.177 132.63 180.511V180.352C132.724 179.655 133.063 179.013 133.585 178.541ZM131.101 178.501C131.124 178.409 131.17 178.325 131.236 178.256C131.302 178.188 131.384 178.138 131.475 178.112C131.517 178.089 131.563 178.077 131.611 178.077C131.658 178.077 131.705 178.089 131.746 178.112C132.12 178.366 132.279 179.542 132.311 180.416C131.475 179.629 131.03 178.914 131.101 178.501Z" fill="#FF7500"/>
<path d="M133.41 180.869L137.469 186.78C137.505 186.827 137.532 186.881 137.547 186.939C137.562 186.997 137.566 187.057 137.558 187.116C137.55 187.175 137.53 187.232 137.5 187.283C137.469 187.334 137.429 187.379 137.382 187.415L132.892 190.911C132.77 190.998 132.631 191.059 132.484 191.092C132.338 191.125 132.186 191.129 132.038 191.103C131.89 191.077 131.749 191.022 131.622 190.942C131.495 190.861 131.386 190.756 131.3 190.633C129.923 188.544 129.366 187.455 127.599 184.865C126.508 183.276 124.2 180.209 123.054 177.794C121.907 175.379 124.327 174.306 125.028 175.228C126.699 177.413 130.281 179.486 132.47 180.169C132.851 180.294 133.181 180.54 133.41 180.869Z" fill="#263238"/>
<path d="M246.808 129.846C247.03 129.619 247.296 129.438 247.589 129.315C247.882 129.192 248.197 129.128 248.515 129.128C248.833 129.128 249.148 129.192 249.441 129.315C249.735 129.438 250 129.619 250.223 129.846" stroke="#FF7500" stroke-linecap="round" stroke-linejoin="round"/>
<path d="M245.558 128.59C246.344 127.808 247.409 127.369 248.519 127.369C249.629 127.369 250.694 127.808 251.48 128.59" stroke="#FF7500" stroke-width="1.05659" stroke-linecap="round" stroke-linejoin="round"/>
<path d="M244.372 127.43C245.467 126.339 246.952 125.726 248.499 125.726C250.047 125.726 251.531 126.339 252.627 127.43" stroke="#FF7500" stroke-linecap="round" stroke-linejoin="round"/>
<path d="M249.196 131.466C249.197 131.602 249.158 131.735 249.084 131.849C249.009 131.963 248.902 132.051 248.777 132.104C248.651 132.157 248.513 132.171 248.38 132.145C248.246 132.119 248.123 132.054 248.027 131.957C247.931 131.861 247.866 131.739 247.839 131.606C247.813 131.472 247.827 131.334 247.88 131.209C247.933 131.084 248.022 130.977 248.136 130.903C248.25 130.828 248.383 130.79 248.519 130.791C248.699 130.791 248.871 130.862 248.998 130.989C249.124 131.116 249.196 131.287 249.196 131.466Z" fill="#FF7500"/>
<path d="M223.214 61.1132H136.713C133.996 61.1132 131.794 63.3115 131.794 66.0232V115.457C131.794 118.169 133.996 120.367 136.713 120.367H223.214C225.931 120.367 228.134 118.169 228.134 115.457V66.0232C228.134 63.3115 225.931 61.1132 223.214 61.1132Z" fill="#FF7500"/>
<path d="M222.999 61.9156H136.936C134.544 61.9156 132.606 63.8507 132.606 66.2377V115.235C132.606 117.622 134.544 119.557 136.936 119.557H222.999C225.391 119.557 227.33 117.622 227.33 115.235V66.2377C227.33 63.8507 225.391 61.9156 222.999 61.9156Z" fill="#FF7500"/>
<path opacity="0.6" d="M222.999 61.9156H136.936C134.544 61.9156 132.606 63.8507 132.606 66.2377V115.235C132.606 117.622 134.544 119.557 136.936 119.557H222.999C225.391 119.557 227.33 117.622 227.33 115.235V66.2377C227.33 63.8507 225.391 61.9156 222.999 61.9156Z" fill="white"/>
<path opacity="0.2" d="M222.999 61.9156H136.936C134.544 61.9156 132.606 63.8507 132.606 66.2377V112.057C132.606 114.444 134.544 116.379 136.936 116.379H222.999C225.391 116.379 227.33 114.444 227.33 112.057V66.2377C227.33 63.8507 225.391 61.9156 222.999 61.9156Z" fill="white"/>
<path d="M213.344 66.7065H140.215C139.481 66.7065 138.886 67.3005 138.886 68.0333V74.437C138.886 75.1697 139.481 75.7638 140.215 75.7638H213.344C214.078 75.7638 214.673 75.1697 214.673 74.437V68.0333C214.673 67.3005 214.078 66.7065 213.344 66.7065Z" fill="white"/>
<path d="M141.934 75.7852V69.9435H142.641V75.1577H145.357V75.7852H141.934ZM147.06 75.7852H146.318L148.463 69.9435H149.194L151.339 75.7852H150.597L148.851 70.8677H148.806L147.06 75.7852ZM147.334 73.5033H150.323V74.1308H147.334V73.5033ZM152.249 69.9435H153.093L155.078 74.7926H155.147L157.132 69.9435H157.976V75.7852H157.314V71.3469H157.257L155.432 75.7852H154.793L152.967 71.3469H152.91V75.7852H152.249V69.9435ZM141.934 85.7852V79.9435H143.908C144.366 79.9435 144.74 80.0263 145.031 80.1917C145.324 80.3552 145.541 80.5768 145.682 80.8563C145.822 81.1358 145.893 81.4477 145.893 81.7919C145.893 82.1361 145.822 82.4489 145.682 82.7303C145.543 83.0117 145.328 83.2361 145.037 83.4035C144.746 83.5689 144.373 83.6516 143.919 83.6516H142.504V83.0241H143.896C144.21 83.0241 144.462 82.9699 144.652 82.8615C144.842 82.7531 144.98 82.6067 145.066 82.4223C145.153 82.2359 145.197 82.0258 145.197 81.7919C145.197 81.558 145.153 81.3488 145.066 81.1644C144.98 80.9799 144.841 80.8354 144.649 80.7308C144.457 80.6243 144.202 80.5711 143.885 80.5711H142.641V85.7852H141.934Z" fill="#FF7500"/>
<path opacity="0.3" d="M213.344 66.7065H140.215C139.481 66.7065 138.886 67.3005 138.886 68.0333V74.437C138.886 75.1697 139.481 75.7638 140.215 75.7638H213.344C214.078 75.7638 214.673 75.1697 214.673 74.437V68.0333C214.673 67.3005 214.078 66.7065 213.344 66.7065Z" fill="white"/>
<path d="M213.344 78.1155H140.215C139.481 78.1155 138.886 78.7096 138.886 79.4424V85.8461C138.886 86.5788 139.481 87.1729 140.215 87.1729H213.344C214.078 87.1729 214.673 86.5788 214.673 85.8461V79.4424C214.673 78.7096 214.078 78.1155 213.344 78.1155Z" fill="white"/>
<path d="M142.173 87.2022H141.432L143.577 81.3606H144.307L146.452 87.2022H145.71L143.965 82.2847H143.919L142.173 87.2022ZM142.447 84.9203H145.436V85.5478H142.447V84.9203ZM148.069 81.3606V87.2022H147.362V81.3606H148.069ZM149.487 87.2022V81.3606H151.461C151.918 81.3606 152.292 81.4385 152.585 81.5945C152.878 81.7485 153.095 81.9605 153.235 82.2305C153.376 82.5006 153.447 82.8077 153.447 83.1519C153.447 83.496 153.376 83.8012 153.235 84.0675C153.095 84.3337 152.879 84.5429 152.588 84.695C152.297 84.8452 151.925 84.9203 151.473 84.9203H149.875V84.2814H151.45C151.762 84.2814 152.013 84.2358 152.203 84.1445C152.395 84.0532 152.534 83.9239 152.619 83.7566C152.707 83.5873 152.751 83.3857 152.751 83.1519C152.751 82.918 152.707 82.7135 152.619 82.5386C152.532 82.3637 152.392 82.2286 152.2 82.1336C152.008 82.0366 151.754 81.9881 151.438 81.9881H150.195V87.2022H149.487ZM152.237 84.578L153.675 87.2022H152.853L151.438 84.578H152.237ZM146.634 93.1861H145.927C145.885 92.9826 145.812 92.8039 145.707 92.6498C145.605 92.4958 145.479 92.3665 145.331 92.2619C145.184 92.1554 145.022 92.0756 144.843 92.0223C144.664 91.9691 144.478 91.9425 144.284 91.9425C143.93 91.9425 143.61 92.0318 143.323 92.2106C143.038 92.3893 142.81 92.6527 142.641 93.0007C142.474 93.3487 142.39 93.7756 142.39 94.2814C142.39 94.7872 142.474 95.2141 142.641 95.5621C142.81 95.9101 143.038 96.1735 143.323 96.3522C143.61 96.531 143.93 96.6203 144.284 96.6203C144.478 96.6203 144.664 96.5937 144.843 96.5405C145.022 96.4872 145.184 96.4083 145.331 96.3037C145.479 96.1972 145.605 96.067 145.707 95.9129C145.812 95.757 145.885 95.5783 145.927 95.3767H146.634C146.581 95.6752 146.484 95.9424 146.343 96.1782C146.203 96.414 146.028 96.6146 145.819 96.7801C145.609 96.9436 145.375 97.0681 145.114 97.1537C144.855 97.2393 144.579 97.2821 144.284 97.2821C143.786 97.2821 143.343 97.1604 142.955 96.917C142.567 96.6736 142.262 96.3275 142.039 95.8787C141.817 95.4299 141.706 94.8975 141.706 94.2814C141.706 93.6653 141.817 93.1328 142.039 92.6841C142.262 92.2353 142.567 91.8892 142.955 91.6458C143.343 91.4024 143.786 91.2807 144.284 91.2807C144.579 91.2807 144.855 91.3235 145.114 91.4091C145.375 91.4946 145.609 91.6201 145.819 91.7856C146.028 91.9491 146.203 92.1488 146.343 92.3846C146.484 92.6185 146.581 92.8856 146.634 93.1861ZM152.706 94.2814C152.706 94.8975 152.595 95.4299 152.373 95.8787C152.15 96.3275 151.845 96.6736 151.457 96.917C151.069 97.1604 150.626 97.2821 150.128 97.2821C149.63 97.2821 149.187 97.1604 148.799 96.917C148.411 96.6736 148.106 96.3275 147.883 95.8787C147.661 95.4299 147.549 94.8975 147.549 94.2814C147.549 93.6653 147.661 93.1328 147.883 92.6841C148.106 92.2353 148.411 91.8892 148.799 91.6458C149.187 91.4024 149.63 91.2807 150.128 91.2807C150.626 91.2807 151.069 91.4024 151.457 91.6458C151.845 91.8892 152.15 92.2353 152.373 92.6841C152.595 93.1328 152.706 93.6653 152.706 94.2814ZM152.022 94.2814C152.022 93.7756 151.937 93.3487 151.768 93.0007C151.601 92.6527 151.373 92.3893 151.086 92.2106C150.801 92.0318 150.482 91.9425 150.128 91.9425C149.774 91.9425 149.454 92.0318 149.167 92.2106C148.881 92.3893 148.654 92.6527 148.485 93.0007C148.318 93.3487 148.234 93.7756 148.234 94.2814C148.234 94.7872 148.318 95.2141 148.485 95.5621C148.654 95.9101 148.881 96.1735 149.167 96.3522C149.454 96.531 149.774 96.6203 150.128 96.6203C150.482 96.6203 150.801 96.531 151.086 96.3522C151.373 96.1735 151.601 95.9101 151.768 95.5621C151.937 95.2141 152.022 94.7872 152.022 94.2814ZM158.528 91.3606V97.2022H157.843L154.66 92.6156H154.603V97.2022H153.896V91.3606H154.58L157.775 95.9586H157.832V91.3606H158.528ZM161.746 97.2022H159.944V91.3606H161.826C162.393 91.3606 162.878 91.4775 163.281 91.7114C163.684 91.9434 163.993 92.2771 164.208 92.7126C164.423 93.1462 164.53 93.6653 164.53 94.27C164.53 94.8785 164.422 95.4024 164.205 95.8416C163.988 96.279 163.673 96.6156 163.258 96.8514C162.843 97.0853 162.339 97.2022 161.746 97.2022ZM160.651 96.5747H161.701C162.184 96.5747 162.584 96.4815 162.901 96.2952C163.219 96.1088 163.456 95.8435 163.612 95.4993C163.768 95.1552 163.846 94.7454 163.846 94.27C163.846 93.7984 163.769 93.3924 163.615 93.052C163.46 92.7097 163.23 92.4473 162.924 92.2648C162.618 92.0803 162.237 91.9881 161.78 91.9881H160.651V96.5747ZM166.424 91.3606V97.2022H165.717V91.3606H166.424ZM167.523 91.9881V91.3606H171.904V91.9881H170.067V97.2022H169.36V91.9881H167.523ZM173.703 91.3606V97.2022H172.996V91.3606H173.703ZM176.81 97.2935C176.415 97.2935 176.068 97.1994 175.769 97.0111C175.472 96.8228 175.24 96.5595 175.073 96.221C174.908 95.8825 174.825 95.487 174.825 95.0344C174.825 94.578 174.908 94.1797 175.073 93.8393C175.24 93.4989 175.472 93.2346 175.769 93.0463C176.068 92.8581 176.415 92.7639 176.81 92.7639C177.206 92.7639 177.552 92.8581 177.849 93.0463C178.147 93.2346 178.379 93.4989 178.544 93.8393C178.712 94.1797 178.795 94.578 178.795 95.0344C178.795 95.487 178.712 95.8825 178.544 96.221C178.379 96.5595 178.147 96.8228 177.849 97.0111C177.552 97.1994 177.206 97.2935 176.81 97.2935ZM176.81 96.6888C177.111 96.6888 177.358 96.6118 177.552 96.4577C177.746 96.3037 177.889 96.1012 177.983 95.8502C178.076 95.5992 178.122 95.3273 178.122 95.0344C178.122 94.7416 178.076 94.4687 177.983 94.2158C177.889 93.9629 177.746 93.7585 177.552 93.6025C177.358 93.4466 177.111 93.3686 176.81 93.3686C176.51 93.3686 176.263 93.4466 176.069 93.6025C175.875 93.7585 175.731 93.9629 175.638 94.2158C175.545 94.4687 175.498 94.7416 175.498 95.0344C175.498 95.3273 175.545 95.5992 175.638 95.8502C175.731 96.1012 175.875 96.3037 176.069 96.4577C176.263 96.6118 176.51 96.6888 176.81 96.6888ZM184.547 91.3606V97.2022H183.862L180.679 92.6156H180.622V97.2022H179.914V91.3606H180.599L183.794 95.9586H183.851V91.3606H184.547ZM185.962 97.2022V91.3606H189.488V91.9881H186.669V93.9619H189.305V94.5894H186.669V96.5747H189.533V97.2022H185.962ZM190.763 97.2022V91.3606H192.736C193.193 91.3606 193.567 91.4385 193.86 91.5945C194.153 91.7485 194.37 91.9605 194.511 92.2305C194.651 92.5006 194.722 92.8077 194.722 93.1519C194.722 93.496 194.651 93.8012 194.511 94.0675C194.37 94.3337 194.154 94.5429 193.863 94.695C193.572 94.8452 193.2 94.9203 192.748 94.9203H191.15V94.2814H192.725C193.037 94.2814 193.288 94.2358 193.478 94.1445C193.67 94.0532 193.809 93.9239 193.894 93.7566C193.982 93.5873 194.026 93.3857 194.026 93.1519C194.026 92.918 193.982 92.7135 193.894 92.5386C193.807 92.3637 193.667 92.2286 193.475 92.1336C193.283 92.0366 193.029 91.9881 192.714 91.9881H191.47V97.2022H190.763ZM193.512 94.578L194.95 97.2022H194.128L192.714 94.578H193.512Z" fill="#FF7500"/>
<path opacity="0.3" d="M213.344 78.1155H140.215C139.481 78.1155 138.886 78.7096 138.886 79.4424V85.8461C138.886 86.5788 139.481 87.1729 140.215 87.1729H213.344C214.078 87.1729 214.673 86.5788 214.673 85.8461V79.4424C214.673 78.7096 214.078 78.1155 213.344 78.1155Z" fill="white"/>
<path d="M213.344 89.5325H140.215C139.481 89.5325 138.886 90.1266 138.886 90.8594V97.263C138.886 97.9958 139.481 98.5899 140.215 98.5899H213.344C214.078 98.5899 214.673 97.9958 214.673 97.263V90.8594C214.673 90.1266 214.078 89.5325 213.344 89.5325Z" fill="white"/>
<path d="M141.934 92.7696H142.778L144.763 97.6186H144.832L146.817 92.7696H147.661V98.6113H146.999V94.173H146.942L145.117 98.6113H144.478L142.652 94.173H142.595V98.6113H141.934V92.7696ZM152.913 92.7696H153.621V96.6374C153.621 97.0368 153.526 97.3933 153.338 97.7071C153.152 98.0189 152.888 98.2652 152.548 98.4458C152.208 98.6246 151.808 98.714 151.35 98.714C150.892 98.714 150.492 98.6246 150.152 98.4458C149.812 98.2652 149.547 98.0189 149.359 97.7071C149.173 97.3933 149.08 97.0368 149.08 96.6374V92.7696H149.787V96.5804C149.787 96.8656 149.85 97.1195 149.975 97.342C150.101 97.5625 150.279 97.7365 150.511 97.8639C150.745 97.9895 151.025 98.0522 151.35 98.0522C151.675 98.0522 151.955 97.9895 152.189 97.8639C152.423 97.7365 152.601 97.5625 152.725 97.342C152.85 97.1195 152.913 96.8656 152.913 96.5804V92.7696ZM158.228 94.23C158.194 93.941 158.055 93.7166 157.811 93.5569C157.568 93.3971 157.269 93.3173 156.916 93.3173C156.657 93.3173 156.431 93.3591 156.237 93.4428C156.045 93.5265 155.895 93.6415 155.786 93.7879C155.68 93.9343 155.626 94.1007 155.626 94.2871C155.626 94.443 155.664 94.5771 155.738 94.6893C155.814 94.7996 155.911 94.8918 156.029 94.9659C156.147 95.0382 156.27 95.0981 156.399 95.1456C156.529 95.1913 156.648 95.2284 156.756 95.2569L157.349 95.4166C157.501 95.4566 157.671 95.5117 157.857 95.5821C158.045 95.6524 158.225 95.7484 158.396 95.8701C158.569 95.9899 158.712 96.144 158.824 96.3322C158.936 96.5205 158.992 96.7515 158.992 97.0254C158.992 97.341 158.91 97.6263 158.744 97.8811C158.581 98.1359 158.341 98.3384 158.025 98.4886C157.712 98.6388 157.33 98.714 156.882 98.714C156.463 98.714 156.101 98.6464 155.795 98.5114C155.491 98.3764 155.251 98.1882 155.076 97.9467C154.903 97.7052 154.805 97.4247 154.782 97.1052H155.512C155.531 97.3258 155.606 97.5084 155.735 97.6529C155.866 97.7955 156.032 97.902 156.231 97.9723C156.433 98.0408 156.65 98.075 156.882 98.075C157.152 98.075 157.394 98.0313 157.609 97.9438C157.824 97.8544 157.994 97.7308 158.119 97.573C158.245 97.4133 158.308 97.2269 158.308 97.0139C158.308 96.82 158.253 96.6622 158.145 96.5405C158.037 96.4188 157.894 96.3199 157.717 96.2438C157.54 96.1677 157.349 96.1012 157.144 96.0441L156.425 95.8388C155.969 95.7076 155.607 95.5203 155.341 95.2769C155.075 95.0335 154.942 94.7149 154.942 94.3213C154.942 93.9942 155.03 93.709 155.207 93.4656C155.386 93.2203 155.626 93.0301 155.926 92.8951C156.228 92.7582 156.566 92.6898 156.939 92.6898C157.315 92.6898 157.65 92.7573 157.943 92.8923C158.235 93.0254 158.467 93.2079 158.639 93.4399C158.812 93.6719 158.903 93.9353 158.912 94.23H158.228ZM160.863 92.7696V98.6113H160.155V92.7696H160.863ZM146.634 104.595H145.927C145.885 104.392 145.812 104.213 145.707 104.059C145.605 103.905 145.479 103.776 145.331 103.671C145.184 103.564 145.022 103.485 144.843 103.431C144.664 103.378 144.478 103.352 144.284 103.352C143.93 103.352 143.61 103.441 143.323 103.62C143.038 103.798 142.81 104.062 142.641 104.41C142.474 104.758 142.39 105.185 142.39 105.69C142.39 106.196 142.474 106.623 142.641 106.971C142.81 107.319 143.038 107.583 143.323 107.761C143.61 107.94 143.93 108.029 144.284 108.029C144.478 108.029 144.664 108.003 144.843 107.95C145.022 107.896 145.184 107.817 145.331 107.713C145.479 107.606 145.605 107.476 145.707 107.322C145.812 107.166 145.885 106.987 145.927 106.786H146.634C146.581 107.084 146.484 107.351 146.343 107.587C146.203 107.823 146.028 108.024 145.819 108.189C145.609 108.353 145.375 108.477 145.114 108.563C144.855 108.648 144.579 108.691 144.284 108.691C143.786 108.691 143.343 108.569 142.955 108.326C142.567 108.083 142.262 107.737 142.039 107.288C141.817 106.839 141.706 106.307 141.706 105.69C141.706 105.074 141.817 104.542 142.039 104.093C142.262 103.644 142.567 103.298 142.955 103.055C143.343 102.811 143.786 102.69 144.284 102.69C144.579 102.69 144.855 102.733 145.114 102.818C145.375 102.904 145.609 103.029 145.819 103.195C146.028 103.358 146.203 103.558 146.343 103.794C146.484 104.028 146.581 104.295 146.634 104.595Z" fill="#FF7500"/>
<path opacity="0.3" d="M213.344 89.5325H140.215C139.481 89.5325 138.886 90.1266 138.886 90.8594V97.263C138.886 97.9958 139.481 98.5899 140.215 98.5899H213.344C214.078 98.5899 214.673 97.9958 214.673 97.263V90.8594C214.673 90.1266 214.078 89.5325 213.344 89.5325Z" fill="white"/>
<path d="M213.344 100.942H140.215C139.481 100.942 138.886 101.536 138.886 102.268V108.672C138.886 109.405 139.481 109.999 140.215 109.999H213.344C214.078 109.999 214.673 109.405 214.673 108.672V102.268C214.673 101.536 214.078 100.942 213.344 100.942Z" fill="white"/>
<path d="M141.614 104.814V104.187H145.995V104.814H144.159V110.028H143.451V104.814H141.614ZM142.173 114.187L143.908 119.104H143.976L145.71 114.187H146.452L144.307 120.028H143.577L141.432 114.187H142.173Z" fill="#FF7500"/>
<path opacity="0.3" d="M213.344 100.942H140.215C139.481 100.942 138.886 101.536 138.886 102.268V108.672C138.886 109.405 139.481 109.999 140.215 109.999H213.344C214.078 109.999 214.673 109.405 214.673 108.672V102.268C214.673 101.536 214.078 100.942 213.344 100.942Z" fill="white"/>
<path d="M211.561 68.081H200.011C199.316 68.081 198.753 68.643 198.753 69.3363V73.126C198.753 73.8193 199.316 74.3814 200.011 74.3814H211.561C212.255 74.3814 212.818 73.8193 212.818 73.126V69.3363C212.818 68.643 212.255 68.081 211.561 68.081Z" fill="#263238"/>
<path opacity="0.5" d="M203.593 68.081H200.011C199.316 68.081 198.753 68.643 198.753 69.3363V73.126C198.753 73.8193 199.316 74.3814 200.011 74.3814H203.593C204.287 74.3814 204.851 73.8193 204.851 73.126V69.3363C204.851 68.643 204.287 68.081 203.593 68.081Z" fill="white"/>
<path opacity="0.5" d="M211.561 68.081H200.011C199.316 68.081 198.753 68.643 198.753 69.3363V73.126C198.753 73.8193 199.316 74.3814 200.011 74.3814H211.561C212.255 74.3814 212.818 73.8193 212.818 73.126V69.3363C212.818 68.643 212.255 68.081 211.561 68.081Z" fill="white"/>
<path d="M211.561 102.268H200.011C199.316 102.268 198.753 102.83 198.753 103.524V107.314C198.753 108.007 199.316 108.569 200.011 108.569H211.561C212.255 108.569 212.818 108.007 212.818 107.314V103.524C212.818 102.83 212.255 102.268 211.561 102.268Z" fill="#263238"/>
<path opacity="0.5" d="M203.593 102.268H200.011C199.316 102.268 198.753 102.83 198.753 103.524V107.314C198.753 108.007 199.316 108.569 200.011 108.569H203.593C204.287 108.569 204.851 108.007 204.851 107.314V103.524C204.851 102.83 204.287 102.268 203.593 102.268Z" fill="white"/>
<path opacity="0.5" d="M211.561 102.268H200.011C199.316 102.268 198.753 102.83 198.753 103.524V107.314C198.753 108.007 199.316 108.569 200.011 108.569H211.561C212.255 108.569 212.818 108.007 212.818 107.314V103.524C212.818 102.83 212.255 102.268 211.561 102.268Z" fill="white"/>
<path d="M211.561 90.8673H200.011C199.316 90.8673 198.753 91.4293 198.753 92.1226V95.9124C198.753 96.6057 199.316 97.1677 200.011 97.1677H211.561C212.255 97.1677 212.818 96.6057 212.818 95.9124V92.1226C212.818 91.4293 212.255 90.8673 211.561 90.8673Z" fill="#FF7500"/>
<path opacity="0.5" d="M211.561 90.8673H207.979C207.284 90.8673 206.721 91.4293 206.721 92.1226V95.9124C206.721 96.6057 207.284 97.1677 207.979 97.1677H211.561C212.255 97.1677 212.819 96.6057 212.819 95.9124V92.1226C212.819 91.4293 212.255 90.8673 211.561 90.8673Z" fill="white"/>
<path d="M211.561 79.4741H200.011C199.316 79.4741 198.753 80.0361 198.753 80.7294V84.5192C198.753 85.2125 199.316 85.7745 200.011 85.7745H211.561C212.255 85.7745 212.818 85.2125 212.818 84.5192V80.7294C212.818 80.0361 212.255 79.4741 211.561 79.4741Z" fill="#FF7500"/>
<path opacity="0.5" d="M211.561 79.4741H207.979C207.284 79.4741 206.721 80.0361 206.721 80.7294V84.5192C206.721 85.2125 207.284 85.7745 207.979 85.7745H211.561C212.255 85.7745 212.819 85.2125 212.819 84.5192V80.7294C212.819 80.0361 212.255 79.4741 211.561 79.4741Z" fill="white"/>
<path d="M214.673 119.374V113.399C214.674 113.226 214.641 113.053 214.575 112.892C214.509 112.731 214.412 112.585 214.289 112.462C214.166 112.338 214.02 112.241 213.859 112.174C213.699 112.107 213.526 112.073 213.352 112.073H140.215C139.863 112.073 139.525 112.212 139.275 112.461C139.026 112.71 138.886 113.047 138.886 113.399V119.374H214.673Z" fill="white"/>
<path d="M199.175 119.374H212.397C212.529 119.258 212.634 119.114 212.707 118.954C212.78 118.794 212.818 118.62 212.818 118.444V114.647C212.818 114.482 212.786 114.319 212.723 114.168C212.659 114.016 212.567 113.878 212.45 113.762C212.333 113.646 212.194 113.554 212.042 113.492C211.889 113.43 211.726 113.398 211.561 113.399H200.011C199.846 113.398 199.683 113.43 199.53 113.492C199.378 113.554 199.239 113.646 199.122 113.762C199.005 113.878 198.912 114.016 198.849 114.168C198.786 114.319 198.753 114.482 198.753 114.647V118.444C198.754 118.62 198.792 118.794 198.865 118.954C198.937 119.114 199.043 119.258 199.175 119.374Z" fill="#263238"/>
<path opacity="0.5" d="M199.175 119.374H204.437C204.568 119.257 204.672 119.114 204.744 118.954C204.815 118.793 204.851 118.62 204.851 118.444V114.647C204.851 114.482 204.818 114.319 204.755 114.168C204.691 114.016 204.599 113.878 204.482 113.762C204.365 113.646 204.226 113.554 204.074 113.492C203.921 113.43 203.758 113.398 203.593 113.399H200.011C199.846 113.398 199.683 113.43 199.53 113.492C199.378 113.554 199.239 113.646 199.122 113.762C199.005 113.878 198.912 114.016 198.849 114.168C198.786 114.319 198.753 114.482 198.753 114.647V118.444C198.754 118.62 198.792 118.794 198.865 118.954C198.937 119.114 199.043 119.258 199.175 119.374Z" fill="white"/>
<path opacity="0.5" d="M199.175 119.374H212.397C212.529 119.258 212.634 119.114 212.707 118.954C212.78 118.794 212.818 118.62 212.818 118.444V114.647C212.818 114.482 212.786 114.319 212.723 114.168C212.659 114.016 212.567 113.878 212.45 113.762C212.333 113.646 212.194 113.554 212.042 113.492C211.889 113.43 211.726 113.398 211.561 113.399H200.011C199.846 113.398 199.683 113.43 199.53 113.492C199.378 113.554 199.239 113.646 199.122 113.762C199.005 113.878 198.912 114.016 198.849 114.168C198.786 114.319 198.753 114.482 198.753 114.647V118.444C198.754 118.62 198.792 118.794 198.865 118.954C198.937 119.114 199.043 119.258 199.175 119.374Z" fill="white"/>
<path opacity="0.2" d="M220.197 116.601C219.748 116.601 219.317 116.423 218.999 116.106C218.681 115.788 218.502 115.358 218.502 114.909V68.3908C218.502 68.169 218.546 67.9493 218.631 67.7444C218.716 67.5395 218.841 67.3535 218.999 67.197C219.157 67.0405 219.344 66.9166 219.549 66.8324C219.755 66.7482 219.975 66.7054 220.197 66.7065C220.645 66.7065 221.074 66.8839 221.391 67.1998C221.707 67.5157 221.885 67.9441 221.885 68.3908V114.909C221.886 115.131 221.843 115.351 221.759 115.556C221.674 115.761 221.55 115.948 221.394 116.105C221.237 116.262 221.05 116.387 220.845 116.472C220.64 116.557 220.42 116.601 220.197 116.601Z" fill="black"/>
<path d="M220.197 84.7973C219.975 84.7983 219.755 84.7555 219.549 84.6714C219.344 84.5872 219.157 84.4633 218.999 84.3068C218.841 84.1503 218.716 83.9642 218.631 83.7594C218.546 83.5545 218.502 83.3348 218.502 83.1129V68.3908C218.502 68.169 218.546 67.9493 218.631 67.7444C218.716 67.5395 218.841 67.3535 218.999 67.197C219.157 67.0405 219.344 66.9166 219.549 66.8324C219.755 66.7482 219.975 66.7054 220.197 66.7065C220.645 66.7065 221.074 66.8839 221.391 67.1998C221.707 67.5157 221.885 67.9441 221.885 68.3908V83.1129C221.885 83.5597 221.707 83.9881 221.391 84.304C221.074 84.6198 220.645 84.7973 220.197 84.7973Z" fill="white"/>
<path d="M178.702 119.97V122.353" stroke="#FF7500" stroke-linecap="round" stroke-linejoin="round"/>
<path d="M178.702 123.942V135.065" stroke="#FF7500" stroke-linecap="round" stroke-linejoin="round" stroke-dasharray="5 2"/>
<path d="M178.702 135.86V137.846H180.692" stroke="#FF7500" stroke-linecap="round" stroke-linejoin="round"/>
<path d="M182.284 137.846H237.208" stroke="#FF7500" stroke-linecap="round" stroke-linejoin="round" stroke-dasharray="5 2"/>
<path d="M238.004 137.846H240.392" stroke="#FF7500" stroke-linecap="round" stroke-linejoin="round"/>
<path d="M241.57 138.76C242.076 138.76 242.485 138.351 242.485 137.846C242.485 137.342 242.076 136.933 241.57 136.933C241.065 136.933 240.655 137.342 240.655 137.846C240.655 138.351 241.065 138.76 241.57 138.76Z" fill="#FF7500"/>
</svg>
