<svg width="360" height="313" viewBox="0 0 360 313" fill="none" xmlns="http://www.w3.org/2000/svg">
<path d="M0 312H360" stroke="#263238" stroke-linejoin="round"/>
<path d="M150.166 210.192C150.166 210.192 150.419 241.518 150.419 249.793C150.419 258.068 150.166 294.018 150.166 294.018" stroke="#263238" stroke-width="3" stroke-linecap="round" stroke-linejoin="round"/>
<path d="M169.023 218.214L161.228 211.698L183.101 214.207L163.745 207.936L183.607 204.425H161.228L178.574 191.393L158.965 201.167L170.281 181.871L155.198 199.163L160.476 173.849L150.672 197.412L149.667 171.095L147.657 197.909L136.959 174.22L144.389 200.165L128.383 182.769L142.379 204.18L122.568 190.094L141.12 207.936L120.119 196.499L139.356 209.442L121.958 207.179L138.857 211.951L125.323 214.199L139.356 213.702L131.063 219.216L150.672 213.955L169.023 218.214Z" fill="#FF7500"/>
<path d="M142.617 241.77C142.617 241.77 141.872 248.286 142.371 250.795C142.899 253.689 143.148 256.626 143.116 259.567C143.116 262.825 143.369 263.077 143.369 265.334C143.369 267.59 143.116 286.752 143.116 288.504V294.515" stroke="#263238" stroke-width="3" stroke-linecap="round" stroke-linejoin="round"/>
<path d="M143.361 262.825C143.361 262.825 144.366 257.311 145.371 254.802C146.376 252.294 147.128 253.051 147.381 250.045C147.634 247.04 147.634 245.785 148.126 244.776C148.528 243.884 148.864 242.964 149.131 242.023L149.637 240.019" stroke="#263238" stroke-width="3" stroke-linecap="round" stroke-linejoin="round"/>
<path d="M161.228 248.286L153.434 241.77L175.306 244.279L155.95 238.015L175.812 234.505H153.434L170.787 221.473L151.178 231.247L162.487 211.951L147.404 229.243L152.682 203.928L142.877 227.484L141.872 201.167L139.862 227.989L132.068 203.676L136.594 230.245L122.769 210.444L134.584 234.252L116.441 222.437L133.326 238.015L114.61 230.378L131.562 239.514L114 238L131.063 242.023L119.203 244.717L131.562 243.774L123.268 249.288L142.877 244.026L161.228 248.286Z" fill="#FF7500"/>
<path d="M135.738 287.42L130.356 296.326C129.948 297.007 129.681 297.762 129.571 298.547C129.462 299.332 129.51 300.131 129.715 300.897L132.105 309.803C132.277 310.432 132.651 310.987 133.17 311.383C133.69 311.778 134.325 311.993 134.979 311.993H159.486C160.139 311.991 160.772 311.776 161.29 311.38C161.808 310.985 162.181 310.431 162.353 309.803L164.75 300.897C164.953 300.131 165.001 299.331 164.89 298.546C164.779 297.761 164.511 297.006 164.102 296.326L158.727 287.42C158.546 287.119 158.289 286.87 157.983 286.697C157.676 286.524 157.33 286.433 156.978 286.433H137.48C137.129 286.433 136.783 286.524 136.478 286.697C136.173 286.87 135.918 287.119 135.738 287.42Z" fill="white" stroke="#263238" stroke-linejoin="round"/>
<path d="M15.6337 68.5673H114.469C114.686 68.5673 114.894 68.6533 115.048 68.8064C115.201 68.9595 115.288 69.1671 115.288 69.3836V310.642C115.288 311.002 115.144 311.347 114.889 311.602C114.633 311.857 114.287 312 113.925 312H16.1772C15.8159 312 15.4693 311.857 15.2138 311.602C14.9584 311.347 14.8148 311.002 14.8148 310.642V69.3836C14.8148 69.1671 14.9011 68.9595 15.0547 68.8064C15.2082 68.6533 15.4165 68.5673 15.6337 68.5673Z" stroke="#263238" stroke-linejoin="round"/>
<path d="M65.0511 191.26V311.748" stroke="#263238" stroke-linejoin="round"/>
<path d="M65.0511 68.3149V186.963" stroke="#263238" stroke-linejoin="round"/>
<path d="M21.4704 191.185H110.605C111.142 191.185 111.657 190.973 112.037 190.594C112.417 190.216 112.63 189.702 112.63 189.167C112.63 188.902 112.578 188.639 112.476 188.394C112.374 188.149 112.225 187.927 112.037 187.739C111.849 187.552 111.626 187.403 111.38 187.302C111.134 187.2 110.871 187.148 110.605 187.148H21.4704C21.2045 187.148 20.9411 187.2 20.6955 187.302C20.4498 187.403 20.2266 187.552 20.0385 187.739C19.8505 187.927 19.7013 188.149 19.5996 188.394C19.4978 188.639 19.4454 188.902 19.4454 189.167C19.4454 189.702 19.6588 190.216 20.0385 190.594C20.4183 190.973 20.9333 191.185 21.4704 191.185Z" stroke="#263238" stroke-linejoin="round"/>
<path d="M104.761 91.9673H76.1362V147.347H104.761V91.9673Z" stroke="#263238" stroke-linejoin="round"/>
<path d="M102.52 96.3088H78.3845V126.574H102.52V96.3088Z" stroke="#263238" stroke-linejoin="round"/>
<path d="M82.0027 129.921H78.5707V133.453H82.0027V129.921Z" stroke="#263238" stroke-linejoin="round"/>
<path d="M87.1617 129.921H83.7297V133.453H87.1617V129.921Z" stroke="#263238" stroke-linejoin="round"/>
<path d="M92.3134 129.921H88.8815V133.453H92.3134V129.921Z" stroke="#263238" stroke-linejoin="round"/>
<path d="M97.4651 129.921H94.0331V133.453H97.4651V129.921Z" stroke="#263238" stroke-linejoin="round"/>
<path d="M102.617 129.921H99.1848V133.453H102.617V129.921Z" stroke="#263238" stroke-linejoin="round"/>
<path d="M82.0027 135.598H78.5707V139.131H82.0027V135.598Z" stroke="#263238" stroke-linejoin="round"/>
<path d="M87.1617 135.598H83.7297V139.131H87.1617V135.598Z" stroke="#263238" stroke-linejoin="round"/>
<path d="M92.3134 135.598H88.8815V139.131H92.3134V135.598Z" stroke="#263238" stroke-linejoin="round"/>
<path d="M97.4651 135.598H94.0331V139.131H97.4651V135.598Z" stroke="#263238" stroke-linejoin="round"/>
<path d="M102.617 135.598H99.1848V139.131H102.617V135.598Z" stroke="#263238" stroke-linejoin="round"/>
<path d="M51.1967 133.594H25.6691V170.257H51.1967V133.594Z" stroke="#263238" stroke-linejoin="round"/>
<path d="M46.5662 133.594H30.2997V170.257H46.5662V133.594Z" stroke="#263238" stroke-linejoin="round"/>
<path d="M46.5662 133.594H30.2997V144.942H46.5662V133.594Z" stroke="#263238" stroke-linejoin="round"/>
<path d="M275.429 46.0133H136.103C133.77 39.0998 132.561 31.8591 132.522 24.5652L132.455 12.3568C132.457 11.4421 132.822 10.5655 133.471 9.91875C134.12 9.27198 134.999 8.90777 135.917 8.90581H275.608C276.064 8.9058 276.516 8.99579 276.938 9.17061C277.359 9.34543 277.742 9.60162 278.063 9.92444C278.385 10.2473 278.64 10.6303 278.812 11.0516C278.985 11.4729 279.072 11.924 279.069 12.3791L278.987 24.7656C278.941 31.7397 277.821 38.6654 275.667 45.3009L275.429 46.0133Z" stroke="#263238" stroke-linejoin="round"/>
<path d="M266.428 40.373H145.103V46.043H266.428V40.373Z" stroke="#263238" stroke-linejoin="round"/>
<path d="M241.385 57.9545C242.648 57.9557 243.897 57.692 245.051 57.1805C246.206 56.6691 247.239 55.9214 248.085 54.9859L246.082 52.7595C245.483 53.4786 244.724 54.0499 243.867 54.4284C243.009 54.807 242.075 54.9827 241.138 54.9417C240.201 54.9008 239.286 54.6443 238.465 54.1923C237.643 53.7404 236.938 53.1052 236.404 52.3364L234.297 54.4812C235.139 55.5563 236.214 56.4274 237.441 57.0289C238.669 57.6305 240.017 57.9469 241.385 57.9545Z" fill="#FF7500"/>
<path d="M241.385 53.2567C242.065 53.255 242.735 53.0943 243.341 52.7875C243.948 52.4808 244.473 52.0365 244.876 51.4904L242.732 49.1303C242.681 49.4727 242.502 49.783 242.23 49.9985C241.959 50.2141 241.615 50.3187 241.269 50.2914C240.923 50.2641 240.6 50.1068 240.366 49.8513C240.132 49.5958 240.004 49.2612 240.008 48.9151C239.996 48.8239 239.996 48.7317 240.008 48.6405L237.595 51.097C237.981 51.7576 238.534 52.3051 239.199 52.6843C239.864 53.0635 240.618 53.2609 241.385 53.2567Z" fill="#FF7500"/>
<path d="M241.206 47.4457L241.072 47.5867C241.148 47.5671 241.225 47.5547 241.303 47.5496L241.206 47.4457Z" fill="#FF7500"/>
<path d="M252.529 59.9212C251.021 61.4488 249.213 62.6499 247.218 63.4493C245.223 64.2487 243.084 64.6293 240.935 64.5673C238.786 64.5053 236.673 64.0021 234.727 63.089C232.782 62.1759 231.047 60.8727 229.63 59.2607L227.538 61.3981C229.225 63.2713 231.278 64.7825 233.57 65.8397C235.862 66.8968 238.346 67.4778 240.871 67.5473C243.396 67.6167 245.908 67.1731 248.256 66.2436C250.603 65.314 252.736 63.9179 254.524 62.1403L252.529 59.9212Z" fill="#FF7500"/>
<path d="M241.385 62.9937C243.264 62.9945 245.124 62.6199 246.855 61.892C248.586 61.1642 250.154 60.0979 251.465 58.756L249.462 56.5296C248.382 57.6721 247.071 58.5728 245.616 59.1721C244.16 59.7713 242.594 60.0555 241.02 60.0056C239.446 59.9558 237.901 59.5732 236.486 58.8831C235.072 58.193 233.821 57.2111 232.816 56.0027L230.731 58.1252C232.053 59.6511 233.688 60.8757 235.526 61.7158C237.365 62.5558 239.363 62.9917 241.385 62.9937Z" fill="#FF7500"/>
<path d="M319.196 260.606H244.467V269.853H319.196V260.606Z" stroke="#263238" stroke-linejoin="round"/>
<path d="M351.699 269.838H211.956V312H351.699V269.838Z" stroke="#263238" stroke-linejoin="round"/>
<path d="M347.977 272.532H215.678V309.306H347.977V272.532Z" stroke="#263238" stroke-linejoin="round"/>
<path d="M259.855 272.362V309.284" stroke="#263238" stroke-linejoin="round"/>
<path d="M303.198 272.362V309.284" stroke="#263238" stroke-linejoin="round"/>
<path d="M240.849 243.514H221.977V269.853H240.849V243.514Z" stroke="#263238" stroke-linejoin="round"/>
<path d="M341.336 243.514H322.464V269.853H341.336V243.514Z" stroke="#263238" stroke-linejoin="round"/>
<path d="M283.246 248.732C281.983 248.732 280.734 248.996 279.58 249.508C278.426 250.019 277.392 250.766 276.546 251.7L278.548 253.927C279.147 253.207 279.906 252.635 280.764 252.256C281.622 251.877 282.557 251.701 283.495 251.743C284.432 251.785 285.347 252.043 286.168 252.496C286.989 252.95 287.694 253.587 288.226 254.357L290.333 252.205C289.491 251.13 288.416 250.26 287.189 249.658C285.962 249.056 284.614 248.74 283.246 248.732Z" fill="#FF7500"/>
<path d="M283.246 253.437C282.565 253.438 281.895 253.597 281.287 253.903C280.68 254.208 280.152 254.651 279.747 255.196L281.891 257.556C281.942 257.214 282.121 256.903 282.393 256.688C282.664 256.472 283.008 256.367 283.354 256.395C283.7 256.422 284.023 256.579 284.257 256.835C284.491 257.09 284.619 257.425 284.616 257.771C284.627 257.862 284.627 257.954 284.616 258.046L287.028 255.589C286.642 254.931 286.09 254.386 285.426 254.008C284.762 253.63 284.01 253.433 283.246 253.437Z" fill="#FF7500"/>
<path d="M283.417 259.241L283.551 259.107C283.474 259.115 283.397 259.115 283.32 259.107L283.417 259.241Z" fill="#FF7500"/>
<path d="M272.101 246.765C273.609 245.239 275.417 244.039 277.411 243.24C279.405 242.441 281.543 242.061 283.692 242.123C285.84 242.185 287.952 242.688 289.897 243.6C291.841 244.512 293.576 245.815 294.993 247.426L297.085 245.288C295.395 243.42 293.341 241.913 291.049 240.858C288.757 239.804 286.275 239.225 283.751 239.156C281.228 239.086 278.717 239.528 276.37 240.455C274.024 241.381 271.89 242.773 270.099 244.546L272.101 246.765Z" fill="#FF7500"/>
<path d="M283.246 243.692C281.365 243.693 279.504 244.069 277.771 244.798C276.039 245.527 274.47 246.595 273.158 247.938L275.161 250.164C276.241 249.021 277.552 248.12 279.008 247.52C280.464 246.921 282.031 246.637 283.605 246.688C285.179 246.738 286.725 247.122 288.139 247.814C289.553 248.505 290.803 249.488 291.807 250.698L293.892 248.576C292.573 247.048 290.939 245.821 289.102 244.979C287.265 244.136 285.268 243.697 283.246 243.692Z" fill="#FF7500"/>
<path d="M347.672 25.1515C347.672 26.0028 347.418 26.835 346.944 27.5429C346.47 28.2508 345.795 28.8025 345.006 29.1283C344.217 29.4541 343.349 29.5393 342.511 29.3732C341.674 29.2071 340.904 28.7972 340.301 28.1952C339.697 27.5932 339.285 26.8262 339.119 25.9912C338.952 25.1562 339.038 24.2907 339.365 23.5042C339.691 22.7177 340.245 22.0454 340.955 21.5724C341.665 21.0994 342.5 20.847 343.354 20.847C344.499 20.847 345.597 21.3005 346.407 22.1077C347.217 22.915 347.672 24.0098 347.672 25.1515Z" stroke="#263238" stroke-linejoin="round"/>
<path d="M354.044 57.012H332.604V40.1429C332.604 38.7395 332.881 37.3498 333.42 36.0532C333.959 34.7566 334.748 33.5784 335.744 32.5861C336.739 31.5937 337.921 30.8065 339.222 30.2694C340.522 29.7324 341.916 29.4559 343.324 29.4559C344.732 29.4559 346.126 29.7324 347.426 30.2694C348.727 30.8065 349.909 31.5937 350.904 32.5861C351.9 33.5784 352.69 34.7566 353.228 36.0532C353.767 37.3498 354.044 38.7395 354.044 40.1429V57.012Z" stroke="#263238" stroke-linejoin="round"/>
<path d="M343.354 20.847V0" stroke="#263238" stroke-width="2" stroke-linejoin="round"/>
<path d="M59.6241 25.1515C59.6241 26.0028 59.3708 26.835 58.8964 27.5429C58.4219 28.2508 57.7475 28.8025 56.9586 29.1283C56.1696 29.4541 55.3014 29.5393 54.4638 29.3732C53.6262 29.2071 52.8568 28.7972 52.253 28.1952C51.6491 27.5932 51.2379 26.8262 51.0713 25.9912C50.9046 25.1562 50.9901 24.2907 51.317 23.5042C51.6438 22.7177 52.1972 22.0454 52.9073 21.5724C53.6174 21.0994 54.4522 20.847 55.3062 20.847C56.4513 20.847 57.5496 21.3005 58.3594 22.1077C59.1691 22.915 59.6241 24.0098 59.6241 25.1515Z" stroke="#263238" stroke-linejoin="round"/>
<path d="M66.0265 57.012H44.5859V40.1429C44.5859 38.7395 44.8632 37.3498 45.402 36.0532C45.9407 34.7566 46.7304 33.5784 47.7258 32.5861C48.7213 31.5937 49.9031 30.8065 51.2037 30.2694C52.5044 29.7324 53.8984 29.4559 55.3062 29.4559C56.714 29.4559 58.108 29.7324 59.4087 30.2694C60.7093 30.8065 61.8911 31.5937 62.8866 32.5861C63.882 33.5784 64.6717 34.7566 65.2104 36.0532C65.7492 37.3498 66.0265 38.7395 66.0265 40.1429V57.012Z" stroke="#263238" stroke-linejoin="round"/>
<path d="M55.3062 20.847V0" stroke="#263238" stroke-width="2" stroke-linejoin="round"/>
<path d="M80.6998 53.6797C80.6996 52.4207 80.4344 51.1757 79.9215 50.0252C79.4085 48.8747 78.6592 47.8442 77.7219 47.0004L75.4886 48.9967C76.2114 49.5936 76.7856 50.3492 77.1663 51.2044C77.5469 52.0597 77.7236 52.9912 77.6825 53.9259C77.6414 54.8606 77.3836 55.7731 76.9293 56.5919C76.475 57.4106 75.8366 58.1132 75.0642 58.6447L77.2157 60.7376C78.2936 59.9 79.167 58.8298 79.7705 57.6073C80.3739 56.3849 80.6916 55.0421 80.6998 53.6797Z" fill="#FF7500"/>
<path d="M75.9799 53.6797C75.9782 53.0008 75.8171 52.3317 75.5094 51.726C75.2017 51.1203 74.7561 50.5948 74.2081 50.1916L71.8407 52.329C72.1767 52.3896 72.4781 52.5725 72.6864 52.8421C72.8948 53.1117 72.9953 53.4489 72.9684 53.7882C72.9415 54.1275 72.7891 54.4447 72.5409 54.6784C72.2926 54.912 71.9662 55.0454 71.6248 55.0527C71.5331 55.06 71.441 55.06 71.3494 55.0527L73.821 57.4499C74.4816 57.0662 75.029 56.5156 75.4081 55.8537C75.7871 55.1918 75.9844 54.4419 75.9799 53.6797Z" fill="#FF7500"/>
<path d="M70.1508 53.8504L70.2922 53.984C70.2809 53.9077 70.2809 53.8302 70.2922 53.7539L70.1508 53.8504Z" fill="#FF7500"/>
<path d="M82.6727 42.5698C84.2034 44.0737 85.4066 45.8761 86.2072 47.8644C87.0078 49.8527 87.3885 51.9843 87.3256 54.1258C87.2627 56.2674 86.7576 58.3731 85.8418 60.3113C84.9259 62.2496 83.619 63.9788 82.0027 65.3909L84.1467 67.4837C86.0213 65.7978 87.5331 63.75 88.5906 61.4646C89.6481 59.1791 90.2292 56.7034 90.2988 54.1875C90.3684 51.6715 89.925 49.1677 88.9955 46.8276C88.066 44.4875 86.6697 42.3598 84.8912 40.5734L82.6727 42.5698Z" fill="#FF7500"/>
<path d="M85.7548 53.6797C85.7543 51.805 85.3773 49.9494 84.6459 48.2223C83.9146 46.4952 82.8437 44.9315 81.4965 43.6236L79.2631 45.62C80.4099 46.6971 81.314 48.0049 81.9152 49.4568C82.5165 50.9087 82.8012 52.4715 82.7505 54.0414C82.6998 55.6114 82.3149 57.1526 81.6212 58.563C80.9276 59.9733 79.941 61.2205 78.7271 62.2219L80.8562 64.2925C82.3894 62.978 83.6206 61.3497 84.4659 59.5184C85.3112 57.687 85.7508 55.6956 85.7548 53.6797Z" fill="#FF7500"/>
<path d="M346.116 98.372H221.612V181.597H346.116V98.372Z" stroke="#263238" stroke-linejoin="round"/>
<path d="M342.736 101.882H224.991V178.079H342.736V101.882Z" stroke="#263238" stroke-linejoin="round"/>
<path d="M283.246 86.9429C281.983 86.9432 280.734 87.2075 279.58 87.7188C278.426 88.2302 277.392 88.9772 276.546 89.9115L278.548 92.138C279.147 91.4178 279.906 90.8459 280.764 90.467C281.622 90.0882 282.557 89.9127 283.495 89.9544C284.432 89.9961 285.347 90.2539 286.168 90.7074C286.989 91.1609 287.694 91.7979 288.226 92.5684L290.333 90.4162C289.491 89.3415 288.416 88.4708 287.189 87.8692C285.962 87.2677 284.614 86.951 283.246 86.9429Z" fill="#FF7500"/>
<path d="M283.246 91.6482C282.565 91.649 281.895 91.8085 281.287 92.1139C280.68 92.4193 280.152 92.8622 279.747 93.407L281.891 95.7671C281.942 95.4247 282.121 95.1144 282.393 94.8989C282.664 94.6834 283.008 94.5787 283.354 94.606C283.7 94.6334 284.023 94.7907 284.257 95.0462C284.491 95.3016 284.619 95.6362 284.616 95.9823C284.627 96.0735 284.627 96.1657 284.616 96.2569L287.028 93.8004C286.642 93.1423 286.09 92.597 285.426 92.2192C284.762 91.8414 284.01 91.6445 283.246 91.6482Z" fill="#FF7500"/>
<path d="M283.417 97.4518L283.551 97.3182H283.32L283.417 97.4518Z" fill="#FF7500"/>
<path d="M272.101 84.9762C273.609 83.4498 275.417 82.2498 277.411 81.4511C279.405 80.6524 281.543 80.2721 283.692 80.3341C285.84 80.3961 287.952 80.899 289.897 81.8113C291.841 82.7237 293.576 84.0259 294.993 85.6367L297.085 83.4993C295.395 81.6308 293.341 80.1238 291.049 79.0697C288.757 78.0156 286.275 77.4363 283.751 77.3669C281.228 77.2975 278.717 77.7395 276.37 78.666C274.024 79.5926 271.89 80.9844 270.099 82.7572L272.101 84.9762Z" fill="#FF7500"/>
<path d="M283.246 81.9037C281.365 81.9042 279.504 82.28 277.771 83.0091C276.039 83.7382 274.47 84.8058 273.158 86.1488L275.161 88.3753C276.241 87.2321 277.552 86.331 279.008 85.7317C280.464 85.1323 282.031 84.8485 283.605 84.8991C285.179 84.9496 286.725 85.3333 288.139 86.0248C289.553 86.7162 290.803 87.6996 291.807 88.9096L293.892 86.7871C292.573 85.2594 290.939 84.0326 289.102 83.19C287.265 82.3473 285.268 81.9087 283.246 81.9037Z" fill="#FF7500"/>
<path d="M169.157 80.8795L168.956 133.609L137.592 92.9172" stroke="#263238" stroke-miterlimit="10" stroke-dasharray="2 2"/>
<path d="M122.821 146.085L167.489 134.084L122.583 117.111" stroke="#263238" stroke-miterlimit="10" stroke-dasharray="2 2"/>
<path d="M167.482 134.084L141.344 168.001" stroke="#263238" stroke-miterlimit="10" stroke-dasharray="2 2"/>
<path d="M170.162 82.824H169.417" stroke="#263238" stroke-miterlimit="10"/>
<path d="M167.928 82.8388C166.879 82.8388 165.814 82.9279 164.75 83.0243C154.826 83.9388 145.428 87.8892 137.844 94.3345C130.26 100.78 124.86 109.405 122.383 119.028C119.907 128.652 120.475 138.803 124.011 148.092C127.546 157.381 133.876 165.353 142.133 170.917" stroke="#263238" stroke-miterlimit="10" stroke-dasharray="2.01 2.01"/>
<path d="M142.758 171.325L143.384 171.734" stroke="#263238" stroke-miterlimit="10"/>
<path d="M133.519 117.92C133.521 115.847 132.906 113.821 131.752 112.096C130.597 110.372 128.956 109.028 127.036 108.234C125.115 107.439 123.001 107.231 120.961 107.634C118.922 108.038 117.048 109.035 115.577 110.5C114.106 111.966 113.105 113.833 112.698 115.866C112.292 117.899 112.5 120.006 113.295 121.921C114.091 123.837 115.438 125.474 117.167 126.625C118.896 127.777 120.928 128.392 123.008 128.392C124.388 128.394 125.755 128.124 127.031 127.599C128.307 127.074 129.466 126.302 130.442 125.33C131.419 124.357 132.193 123.202 132.721 121.931C133.249 120.659 133.52 119.296 133.519 117.92Z" fill="#FF7500"/>
<path d="M123.127 124.563C122.492 124.558 121.872 124.368 121.343 124.018C120.814 123.667 120.399 123.17 120.149 122.588C120.149 122.529 120.097 122.447 120.067 122.366L120.015 122.21C119.658 121.112 119.203 119.983 119.129 119.828C118.759 119.214 118.537 118.523 118.482 117.809C118.426 117.095 118.537 116.378 118.807 115.715C119.077 115.051 119.498 114.46 120.037 113.986C120.576 113.513 121.218 113.171 121.912 112.988C122.607 112.805 123.334 112.785 124.037 112.93C124.741 113.075 125.4 113.381 125.964 113.825C126.528 114.268 126.981 114.836 127.287 115.483C127.593 116.131 127.744 116.841 127.728 117.557C127.714 118.252 127.557 118.936 127.266 119.568C127.147 119.85 127.013 120.117 126.879 120.392C126.699 120.718 126.544 121.058 126.417 121.408C126.368 121.557 126.323 121.705 126.283 121.854C126.189 122.217 126.055 122.568 125.881 122.9C125.615 123.399 125.219 123.817 124.734 124.11C124.249 124.403 123.694 124.559 123.127 124.563ZM123.127 113.942C122.172 113.954 121.261 114.34 120.589 115.016C119.918 115.692 119.54 116.605 119.538 117.557C119.542 118.192 119.708 118.815 120.022 119.367V119.419C120.022 119.471 120.551 120.666 120.96 121.92C120.96 121.972 120.96 122.01 120.998 122.047C121.012 122.09 121.03 122.132 121.05 122.173C121.222 122.585 121.512 122.938 121.884 123.186C122.256 123.434 122.694 123.567 123.142 123.568C123.537 123.57 123.925 123.463 124.263 123.259C124.6 123.055 124.875 122.761 125.055 122.41C125.19 122.146 125.292 121.867 125.36 121.579C125.405 121.416 125.457 121.253 125.516 121.082C125.659 120.689 125.831 120.307 126.03 119.939C126.149 119.694 126.276 119.442 126.388 119.197C126.622 118.686 126.751 118.133 126.767 117.571C126.769 117.095 126.677 116.623 126.495 116.182C126.313 115.741 126.046 115.341 125.708 115.004C125.37 114.666 124.969 114.399 124.527 114.217C124.086 114.035 123.612 113.941 123.134 113.942H123.127Z" fill="#263238"/>
<path d="M123.142 112.673C123.009 112.673 122.881 112.621 122.786 112.528C122.692 112.435 122.637 112.309 122.635 112.176V109.838C122.635 109.706 122.688 109.58 122.781 109.487C122.875 109.393 123.002 109.341 123.134 109.341C123.266 109.341 123.393 109.393 123.487 109.487C123.58 109.58 123.633 109.706 123.633 109.838V112.146C123.637 112.213 123.627 112.281 123.605 112.344C123.582 112.407 123.546 112.465 123.5 112.515C123.454 112.564 123.399 112.603 123.337 112.631C123.276 112.658 123.209 112.672 123.142 112.673Z" fill="#263238"/>
<path d="M117.566 118.039H115.757C115.634 118.024 115.521 117.965 115.439 117.873C115.357 117.78 115.312 117.661 115.312 117.538C115.312 117.415 115.357 117.296 115.439 117.203C115.521 117.111 115.634 117.052 115.757 117.037H117.573C117.644 117.028 117.716 117.035 117.785 117.056C117.853 117.077 117.916 117.113 117.97 117.16C118.024 117.208 118.067 117.266 118.096 117.331C118.125 117.396 118.141 117.467 118.141 117.538C118.141 117.609 118.125 117.68 118.096 117.745C118.067 117.81 118.024 117.869 117.97 117.916C117.916 117.963 117.853 117.999 117.785 118.02C117.716 118.041 117.644 118.048 117.573 118.039H117.566Z" fill="#263238"/>
<path d="M130.393 118.046H128.576C128.444 118.046 128.317 117.994 128.223 117.901C128.13 117.808 128.077 117.681 128.077 117.549C128.077 117.417 128.13 117.291 128.223 117.198C128.317 117.104 128.444 117.052 128.576 117.052H130.393C130.525 117.052 130.652 117.104 130.745 117.198C130.839 117.291 130.891 117.417 130.891 117.549C130.89 117.68 130.836 117.806 130.743 117.899C130.65 117.991 130.524 118.045 130.393 118.046Z" fill="#263238"/>
<path d="M118.883 113.92C118.819 113.921 118.754 113.909 118.694 113.884C118.634 113.86 118.58 113.824 118.533 113.779L117.089 112.339C117.037 112.293 116.995 112.235 116.966 112.172C116.937 112.108 116.922 112.038 116.922 111.968C116.922 111.898 116.937 111.829 116.966 111.765C116.995 111.701 117.037 111.644 117.089 111.597C117.184 111.505 117.311 111.454 117.443 111.454C117.575 111.454 117.702 111.505 117.796 111.597L119.233 113.037C119.302 113.107 119.349 113.196 119.368 113.292C119.386 113.388 119.376 113.488 119.337 113.579C119.299 113.669 119.235 113.746 119.153 113.8C119.071 113.855 118.974 113.883 118.876 113.883L118.883 113.92Z" fill="#263238"/>
<path d="M127.519 113.928C127.385 113.926 127.257 113.873 127.162 113.779C127.069 113.685 127.018 113.558 127.018 113.427C127.018 113.295 127.069 113.168 127.162 113.074L128.606 111.642C128.7 111.548 128.827 111.496 128.96 111.496C129.092 111.496 129.219 111.548 129.313 111.642C129.407 111.735 129.46 111.862 129.46 111.994C129.46 112.126 129.407 112.253 129.313 112.347L127.869 113.779C127.777 113.873 127.651 113.926 127.519 113.928Z" fill="#263238"/>
<path d="M149.793 94.8246C149.811 92.7518 149.212 90.7203 148.071 88.9872C146.93 87.2541 145.3 85.8971 143.385 85.088C141.471 84.2788 139.359 84.0539 137.316 84.4415C135.273 84.8292 133.392 85.8121 131.91 87.2658C130.428 88.7196 129.411 90.5789 128.989 92.6086C128.567 94.6383 128.758 96.7472 129.538 98.6686C130.319 100.59 131.653 102.237 133.373 103.403C135.093 104.568 137.12 105.198 139.2 105.215C141.986 105.236 144.668 104.154 146.654 102.206C148.641 100.257 149.77 97.6025 149.793 94.8246Z" fill="#FF7500"/>
<path d="M139.267 100.65C137.92 100.606 136.629 100.108 135.603 99.2382C134.577 98.3679 133.877 97.1766 133.618 95.8588C133.359 94.541 133.555 93.1745 134.176 91.9825C134.796 90.7904 135.803 89.8432 137.033 89.2955C137.137 89.2415 137.251 89.2095 137.367 89.2017C137.484 89.1939 137.601 89.2104 137.711 89.2501C137.82 89.2899 137.921 89.352 138.005 89.4326C138.09 89.5131 138.156 89.6103 138.201 89.718C138.246 89.8257 138.267 89.9414 138.265 90.0579C138.262 90.1744 138.235 90.289 138.185 90.3945C138.136 90.5 138.064 90.594 137.976 90.6706C137.888 90.7471 137.785 90.8046 137.674 90.8392C136.776 91.2052 136.031 91.8662 135.562 92.7124C135.093 93.5587 134.929 94.5393 135.096 95.4915C135.263 96.4438 135.752 97.3105 136.481 97.9478C137.21 98.5851 138.136 98.9547 139.105 98.9952C140.074 99.0358 141.027 98.745 141.807 98.1709C142.588 97.5968 143.148 96.774 143.394 95.8391C143.641 94.9042 143.559 93.9133 143.163 93.0308C142.767 92.1484 142.081 91.4274 141.217 90.9876C141.052 90.8724 140.933 90.7016 140.883 90.5065C140.834 90.3114 140.856 90.1049 140.946 89.9249C141.036 89.7448 141.189 89.6031 141.375 89.5257C141.562 89.4483 141.77 89.4404 141.962 89.5033C143.107 90.1342 144.012 91.1236 144.537 92.3186C145.062 93.5136 145.177 94.8477 144.866 96.1147C144.554 97.3816 143.832 98.511 142.812 99.3281C141.792 100.145 140.53 100.605 139.222 100.636L139.267 100.65Z" fill="#263238"/>
<path d="M139.319 93.7484C139.097 93.7445 138.886 93.6534 138.731 93.495C138.576 93.3365 138.49 93.1235 138.492 92.9024V87.8409C138.492 87.6185 138.581 87.4052 138.739 87.2479C138.897 87.0907 139.111 87.0023 139.334 87.0023C139.557 87.0023 139.771 87.0907 139.929 87.2479C140.086 87.4052 140.175 87.6185 140.175 87.8409L140.13 92.9098C140.13 93.1272 140.046 93.3361 139.895 93.4926C139.743 93.649 139.537 93.7407 139.319 93.7484Z" fill="#263238"/>
<path d="M146.056 178.658C151.248 176.068 153.351 169.773 150.753 164.597C148.156 159.421 141.841 157.325 136.649 159.914C131.457 162.504 129.354 168.799 131.952 173.975C134.549 179.151 140.864 181.247 146.056 178.658Z" fill="#FF7500"/>
<path d="M144.806 166.435H141.314V164.431C141.314 163.689 141.02 162.978 140.495 162.452C139.971 161.927 139.259 161.629 138.515 161.625H138.359C137.99 161.624 137.625 161.694 137.284 161.833C136.944 161.972 136.634 162.176 136.372 162.435C136.111 162.693 135.903 163.001 135.761 163.34C135.619 163.678 135.545 164.041 135.544 164.409V166.947C135.544 167.079 135.597 167.205 135.691 167.298C135.784 167.392 135.911 167.444 136.043 167.444C136.176 167.444 136.302 167.392 136.396 167.298C136.489 167.205 136.542 167.079 136.542 166.947V164.409C136.546 163.933 136.738 163.478 137.077 163.143C137.416 162.808 137.874 162.62 138.351 162.62H138.515C138.992 162.624 139.448 162.816 139.784 163.153C140.12 163.491 140.309 163.948 140.309 164.423V166.427H138.738C138.436 166.427 138.146 166.547 137.933 166.76C137.719 166.973 137.599 167.262 137.599 167.563V173.604C137.598 173.753 137.627 173.901 137.683 174.039C137.739 174.177 137.822 174.303 137.927 174.409C138.033 174.515 138.158 174.599 138.295 174.657C138.433 174.715 138.581 174.746 138.731 174.747H144.798C145.1 174.747 145.39 174.627 145.604 174.414C145.817 174.201 145.937 173.912 145.937 173.611V167.57C145.935 167.271 145.816 166.984 145.604 166.772C145.392 166.56 145.106 166.439 144.806 166.435ZM144.917 173.619C144.917 173.637 144.914 173.655 144.906 173.672C144.899 173.688 144.889 173.703 144.875 173.716C144.862 173.728 144.846 173.738 144.829 173.744C144.812 173.751 144.794 173.753 144.776 173.752H138.716C138.68 173.752 138.645 173.738 138.618 173.714C138.592 173.689 138.576 173.655 138.574 173.619V167.57C138.576 167.534 138.592 167.5 138.618 167.475C138.645 167.45 138.68 167.436 138.716 167.437H144.783C144.819 167.437 144.853 167.451 144.878 167.476C144.903 167.501 144.917 167.535 144.917 167.57V173.619Z" fill="#263238"/>
<path d="M141.761 169.136C141.567 169.139 141.381 169.207 141.232 169.33C141.083 169.453 140.981 169.622 140.942 169.811C140.903 170 140.929 170.196 141.017 170.367C141.105 170.539 141.249 170.675 141.426 170.754V172.179H142.081V170.784C142.261 170.708 142.409 170.572 142.501 170.4C142.592 170.227 142.621 170.029 142.582 169.838C142.544 169.647 142.44 169.475 142.289 169.351C142.138 169.227 141.949 169.159 141.753 169.158L141.761 169.136Z" fill="#263238"/>
<path d="M126.025 156.074C131.553 154.307 134.597 148.407 132.824 142.896C131.052 137.385 125.133 134.35 119.605 136.117C114.077 137.884 111.032 143.785 112.805 149.296C114.578 154.807 120.496 157.842 126.025 156.074Z" fill="#FF7500"/>
<path d="M124.042 146.256L124.124 140.83C124.132 140.287 123.923 139.763 123.544 139.373C123.164 138.984 122.644 138.76 122.099 138.752C121.554 138.745 121.029 138.953 120.638 139.331C120.247 139.71 120.023 140.228 120.015 140.771V141.194H118.779C118.626 141.194 118.478 141.254 118.368 141.361C118.258 141.467 118.195 141.613 118.191 141.766C118.19 141.841 118.204 141.915 118.232 141.985C118.26 142.054 118.301 142.118 118.354 142.172C118.406 142.226 118.469 142.268 118.538 142.298C118.607 142.328 118.681 142.343 118.757 142.344H120V143.19H118.764C118.688 143.188 118.613 143.202 118.542 143.229C118.471 143.256 118.407 143.297 118.352 143.35C118.297 143.402 118.253 143.465 118.223 143.535C118.193 143.604 118.177 143.679 118.176 143.754C118.176 143.906 118.235 144.052 118.34 144.161C118.446 144.271 118.59 144.335 118.742 144.341H119.985V145.194H118.749C118.608 145.21 118.477 145.278 118.382 145.384C118.287 145.49 118.234 145.627 118.234 145.769C118.234 145.912 118.287 146.049 118.382 146.155C118.477 146.261 118.608 146.329 118.749 146.345H119.888C119.27 146.802 118.813 147.444 118.584 148.177C118.355 148.91 118.366 149.696 118.614 150.423C118.863 151.15 119.337 151.779 119.968 152.219C120.598 152.66 121.353 152.889 122.123 152.874C122.893 152.86 123.639 152.601 124.252 152.136C124.865 151.672 125.314 151.025 125.534 150.289C125.754 149.553 125.734 148.767 125.477 148.043C125.219 147.319 124.738 146.696 124.102 146.263L124.042 146.256ZM121.958 151.696C121.302 151.68 120.678 151.406 120.225 150.933C119.771 150.459 119.524 149.826 119.538 149.172C119.542 148.739 119.662 148.316 119.886 147.945C120.11 147.574 120.43 147.27 120.811 147.064L121.094 146.901L121.184 140.771C121.19 140.532 121.29 140.304 121.462 140.137C121.635 139.971 121.866 139.878 122.107 139.88C122.225 139.882 122.342 139.908 122.45 139.954C122.559 140.001 122.657 140.069 122.739 140.154C122.822 140.239 122.886 140.339 122.93 140.449C122.973 140.558 122.995 140.675 122.993 140.793L122.903 146.886L123.209 147.057C123.693 147.322 124.074 147.741 124.291 148.246C124.509 148.752 124.55 149.316 124.409 149.848C124.267 150.38 123.951 150.849 123.511 151.181C123.071 151.514 122.532 151.689 121.98 151.681L121.958 151.696Z" fill="#263238"/>
<path d="M127.363 140.163C126.908 140.157 126.462 140.285 126.081 140.532C125.699 140.779 125.4 141.133 125.22 141.549C125.04 141.965 124.989 142.425 125.071 142.871C125.153 143.317 125.366 143.728 125.683 144.053C126 144.378 126.406 144.603 126.851 144.698C127.295 144.793 127.758 144.754 128.181 144.588C128.603 144.421 128.967 144.132 129.225 143.76C129.484 143.387 129.626 142.946 129.633 142.493C129.638 142.191 129.583 141.891 129.472 141.611C129.36 141.33 129.194 141.074 128.983 140.858C128.772 140.641 128.521 140.468 128.243 140.349C127.964 140.23 127.665 140.166 127.363 140.163ZM127.311 143.606C127.081 143.604 126.857 143.535 126.668 143.406C126.478 143.277 126.332 143.094 126.247 142.882C126.162 142.669 126.142 142.436 126.191 142.213C126.239 141.989 126.353 141.785 126.519 141.627C126.684 141.468 126.893 141.362 127.119 141.323C127.345 141.283 127.578 141.312 127.788 141.405C127.997 141.498 128.174 141.651 128.296 141.845C128.418 142.039 128.479 142.264 128.472 142.493C128.46 142.792 128.333 143.075 128.116 143.283C127.9 143.49 127.611 143.606 127.311 143.606Z" fill="#263238"/>
<path d="M179.262 88.0399C180.83 82.4675 177.57 76.683 171.98 75.1198C166.39 73.5566 160.588 76.8067 159.02 82.3791C157.451 87.9515 160.712 93.736 166.301 95.2992C171.891 96.8624 177.694 93.6123 179.262 88.0399Z" fill="#FF7500"/>
<path d="M174.13 86.6757V80.1003V79.6327C174.13 79.3368 174.012 79.0529 173.803 78.8429C173.594 78.633 173.31 78.514 173.013 78.5121H166.365C166.07 78.5121 165.786 78.6281 165.575 78.8351C165.365 79.042 165.245 79.3233 165.241 79.6179V81.2284V85.5032C164.8 85.2567 164.303 85.1265 163.797 85.1246C163.335 85.1831 162.901 85.3729 162.545 85.6712C162.189 85.9695 161.927 86.3638 161.79 86.8068C161.653 87.2497 161.647 87.7227 161.772 88.169C161.898 88.6153 162.15 89.0161 162.498 89.3234C162.846 89.6306 163.276 89.8314 163.736 89.9015C164.195 89.9717 164.666 89.9084 165.09 89.7191C165.514 89.5298 165.875 89.2226 166.129 88.8342C166.383 88.4458 166.519 87.9928 166.521 87.5292C166.518 87.2328 166.454 86.9401 166.335 86.6683V82.349L172.983 82.3861V85.5477C172.54 85.3054 172.044 85.1754 171.539 85.1692C171.078 85.2262 170.642 85.4147 170.286 85.712C169.929 86.0092 169.665 86.4027 169.527 86.8453C169.389 87.288 169.381 87.7609 169.506 88.2076C169.63 88.6544 169.881 89.0559 170.228 89.3642C170.575 89.6725 171.004 89.8745 171.464 89.946C171.923 90.0175 172.394 89.9554 172.819 89.7673C173.244 89.5792 173.606 89.2729 173.86 88.8852C174.115 88.4975 174.253 88.0447 174.256 87.5812C174.281 87.2738 174.238 86.9646 174.13 86.6757ZM163.782 88.776C163.535 88.7199 163.309 88.5954 163.131 88.4167C162.952 88.2381 162.828 88.0127 162.772 87.7665C162.717 87.5204 162.732 87.2637 162.817 87.026C162.902 86.7883 163.053 86.5794 163.251 86.4235C163.45 86.2676 163.689 86.171 163.941 86.1449C164.193 86.1188 164.447 86.1643 164.674 86.2761C164.9 86.3879 165.091 86.5614 165.223 86.7766C165.355 86.9918 165.423 87.2399 165.42 87.4921C165.369 87.8771 165.17 88.2272 164.864 88.4672C164.557 88.7073 164.169 88.8181 163.782 88.776ZM173.05 81.2358L166.35 81.1838V79.5511L173.05 79.6105V81.2358ZM171.561 88.8206C171.316 88.7632 171.091 88.638 170.914 88.4591C170.736 88.2802 170.613 88.055 170.559 87.8095C170.504 87.5639 170.52 87.3079 170.605 87.071C170.689 86.8341 170.84 86.6258 171.038 86.4702C171.236 86.3146 171.474 86.218 171.725 86.1914C171.976 86.1649 172.23 86.2095 172.456 86.3201C172.683 86.4308 172.873 86.6029 173.006 86.8168C173.139 87.0307 173.209 87.2777 173.207 87.5292C173.158 87.9156 172.959 88.2675 172.653 88.5091C172.347 88.7507 171.957 88.8625 171.569 88.8206H171.561Z" fill="#263238"/>
<path d="M225.379 124.904C225.379 124.904 228.952 126.485 230.344 129.847C231.737 133.209 243.641 163.681 244.035 166.056C244.43 168.431 231.335 189.805 231.335 189.805L227.56 186.243L231.729 168.832L226.369 155.97L223.391 151.814" fill="#FF7500"/>
<path d="M225.379 124.904C225.379 124.904 228.952 126.485 230.344 129.847C231.737 133.209 243.641 163.681 244.035 166.056C244.43 168.431 231.335 189.805 231.335 189.805L227.56 186.243L231.729 168.832L226.369 155.97L223.391 151.814" stroke="#263238" stroke-linejoin="round"/>
<path d="M240.886 173.344C235.89 170.984 232.057 172.216 230.798 172.765L227.567 186.235L231.342 189.797C231.342 189.797 237.111 180.343 240.886 173.344Z" fill="white" stroke="#263238" stroke-linejoin="round"/>
<path d="M225.997 186.176C225.997 186.176 231.208 196.499 230.56 200.447C229.913 204.396 228.133 287.628 228.133 287.628L216.683 288.066L205.896 205.939L202.807 206.377L197.744 288.941L184.969 286.967L181.001 206.162L180.339 188.15L225.997 186.176Z" fill="#263238" stroke="#263238" stroke-linejoin="round"/>
<path d="M184.083 251.173C184.637 251.085 185.162 250.869 185.617 250.543C186.19 250.053 186.108 250.053 187.411 251.351C188.714 252.65 188.386 253.214 189.443 252.405C190.501 251.596 190.255 251.27 191.312 252.487C192.369 253.704 192.131 254.112 193.59 253.867C195.049 253.622 195.302 253.214 195.302 254.431C195.302 255.649 195.057 255.975 195.704 256.22C196.466 256.463 197.144 256.912 197.662 257.519C198.146 258.164 198.407 257.838 198.638 258.573C198.787 259.007 199.043 259.398 199.382 259.708L184.083 251.173Z" fill="#5E5E5E" stroke="#263238" stroke-linejoin="round"/>
<path d="M184.15 251.433C184.751 252.313 185.166 253.305 185.371 254.35C185.617 255.893 185.133 257.111 185.945 257.838C186.756 258.565 187.247 258.246 187.433 258.892C187.62 259.537 187.188 260.19 187.597 260.435C188.007 260.68 189.63 259.626 189.63 260.109C189.63 260.591 189.466 260.851 190.114 260.599C190.761 260.346 190.769 259.545 191.171 260.354C191.573 261.163 191.915 262.217 192.153 262.061C192.893 261.522 193.76 261.185 194.67 261.081C195.206 261.049 195.741 261.162 196.218 261.408C196.464 261.489 196.866 261.897 197.111 261.489C197.357 261.081 199.531 259.96 199.531 259.96L184.15 251.433Z" fill="#5E5E5E" stroke="#263238" stroke-linejoin="round"/>
<path d="M184.083 251.173L199.509 259.96C199.509 259.96 188.275 260.613 184.083 251.173Z" fill="white" stroke="#263238" stroke-linejoin="round"/>
<path d="M212.998 238.468C213.166 237.935 213.204 237.37 213.11 236.82C212.924 236.078 212.887 236.167 214.636 235.581C216.386 234.994 216.743 235.544 216.482 234.237C216.222 232.931 215.827 233.006 217.391 232.605C218.954 232.204 219.207 232.605 219.624 231.18C220.041 229.755 219.795 229.369 220.89 229.911C221.984 230.453 222.17 230.809 222.676 230.341C223.234 229.772 223.936 229.367 224.709 229.169C225.513 229.028 225.327 228.664 226.093 228.768C226.548 228.83 227.011 228.779 227.441 228.619L212.998 238.468Z" fill="#5E5E5E" stroke="#263238" stroke-linejoin="round"/>
<path d="M213.259 238.527C214.317 238.385 215.393 238.455 216.423 238.735C217.912 239.202 218.798 240.182 219.81 239.774C220.823 239.366 220.756 238.794 221.411 238.935C222.066 239.076 222.468 239.737 222.9 239.477C223.331 239.217 223.071 237.303 223.51 237.518C223.949 237.733 224.098 237.985 224.165 237.295C224.232 236.605 223.51 236.249 224.418 236.249C225.327 236.249 226.421 236.419 226.384 236.13C226.234 235.228 226.319 234.303 226.629 233.443C226.835 232.949 227.175 232.522 227.612 232.211C227.791 232.026 228.357 231.848 228.081 231.469C227.806 231.091 227.776 228.634 227.776 228.634L213.259 238.527Z" fill="#5E5E5E" stroke="#263238" stroke-linejoin="round"/>
<path d="M212.998 238.468L227.746 228.582C227.746 228.582 223.346 238.972 212.998 238.468Z" fill="white" stroke="#263238" stroke-linejoin="round"/>
<path d="M185.408 285.646C185.408 285.646 182.103 286.745 182.103 288.066C182.103 289.387 183.644 300.363 183.644 300.363C183.644 300.363 176.155 304.534 175.5 305.632C174.845 306.731 175.276 312 175.276 312H197.744C197.744 312 198.407 306.508 198.407 304.534C198.307 302.62 198.086 300.713 197.744 298.827L199.062 287.628C199.062 287.628 192.674 282.796 185.408 285.646Z" fill="white" stroke="#263238" stroke-linejoin="round"/>
<path d="M175.276 312H197.744C197.744 312 197.886 310.82 198.035 309.365H175.142C175.172 310.761 175.276 312 175.276 312Z" fill="white" stroke="#263238" stroke-linejoin="round"/>
<path d="M194.662 284.77C192.919 283.156 190.652 282.221 188.275 282.136C184.552 282.136 182.989 284.362 182.989 284.362L185.222 295.339H191.178L194.662 284.77Z" fill="white" stroke="#263238" stroke-linejoin="round"/>
<path d="M192.012 296.326H184.418C184.254 296.326 184.096 296.261 183.979 296.146C183.862 296.03 183.795 295.874 183.793 295.71C183.795 295.545 183.862 295.388 183.978 295.271C184.095 295.155 184.253 295.088 184.418 295.086H192.012C192.177 295.088 192.334 295.155 192.449 295.272C192.565 295.388 192.63 295.546 192.63 295.71C192.63 295.873 192.565 296.03 192.449 296.145C192.333 296.261 192.176 296.326 192.012 296.326Z" fill="white" stroke="#263238" stroke-linejoin="round"/>
<path d="M192.012 297.84H184.418C184.254 297.84 184.096 297.775 183.979 297.66C183.862 297.544 183.795 297.388 183.793 297.224C183.795 297.059 183.862 296.902 183.978 296.785C184.095 296.669 184.253 296.602 184.418 296.6H192.012C192.177 296.602 192.334 296.669 192.449 296.786C192.565 296.902 192.63 297.06 192.63 297.224C192.63 297.387 192.565 297.544 192.449 297.659C192.333 297.775 192.176 297.84 192.012 297.84Z" fill="white" stroke="#263238" stroke-linejoin="round"/>
<path d="M192.012 299.354H184.418C184.254 299.354 184.096 299.289 183.979 299.174C183.862 299.059 183.795 298.902 183.793 298.738C183.795 298.573 183.862 298.416 183.978 298.299C184.095 298.183 184.253 298.116 184.418 298.114H192.012C192.177 298.116 192.334 298.183 192.449 298.3C192.565 298.416 192.63 298.574 192.63 298.738C192.63 298.901 192.565 299.058 192.449 299.173C192.333 299.289 192.176 299.354 192.012 299.354Z" fill="white" stroke="#263238" stroke-linejoin="round"/>
<path d="M192.012 300.868H184.418C184.254 300.868 184.096 300.803 183.979 300.688C183.862 300.572 183.795 300.416 183.793 300.252C183.795 300.087 183.862 299.93 183.978 299.813C184.095 299.697 184.253 299.63 184.418 299.628H192.012C192.177 299.63 192.334 299.697 192.449 299.814C192.565 299.93 192.63 300.088 192.63 300.252C192.63 300.415 192.565 300.572 192.449 300.687C192.333 300.803 192.176 300.868 192.012 300.868Z" fill="white" stroke="#263238" stroke-linejoin="round"/>
<path d="M228.662 285.646C228.662 285.646 231.96 286.745 231.96 288.066C231.96 289.387 230.419 300.363 230.419 300.363C230.419 300.363 237.908 304.534 238.571 305.632C239.233 306.731 238.794 312 238.794 312H216.319C216.319 312 215.656 306.508 215.656 304.534C215.756 302.62 215.977 300.713 216.319 298.827L214.994 287.628C214.994 287.628 221.388 282.796 228.662 285.646Z" fill="white" stroke="#263238" stroke-linejoin="round"/>
<path d="M238.794 312H216.319C216.319 312 216.177 310.82 216.021 309.365H238.921C238.891 310.761 238.794 312 238.794 312Z" fill="white" stroke="#263238" stroke-linejoin="round"/>
<path d="M219.408 284.77C221.151 283.156 223.418 282.221 225.796 282.136C229.518 282.136 231.081 284.362 231.081 284.362L228.848 295.339H222.892L219.408 284.77Z" fill="white" stroke="#263238" stroke-linejoin="round"/>
<path d="M229.563 296.326H221.969C221.805 296.326 221.647 296.261 221.53 296.146C221.412 296.03 221.346 295.874 221.344 295.71C221.346 295.545 221.412 295.388 221.529 295.271C221.646 295.155 221.804 295.088 221.969 295.086H229.563C229.727 295.088 229.884 295.155 230 295.272C230.116 295.388 230.181 295.546 230.181 295.71C230.181 295.873 230.115 296.03 230 296.145C229.884 296.261 229.727 296.326 229.563 296.326Z" fill="white" stroke="#263238" stroke-linejoin="round"/>
<path d="M229.563 297.84H221.969C221.805 297.84 221.647 297.775 221.53 297.66C221.412 297.544 221.346 297.388 221.344 297.224C221.346 297.059 221.412 296.902 221.529 296.785C221.646 296.669 221.804 296.602 221.969 296.6H229.563C229.727 296.602 229.884 296.669 230 296.786C230.116 296.902 230.181 297.06 230.181 297.224C230.181 297.387 230.115 297.544 230 297.659C229.884 297.775 229.727 297.84 229.563 297.84Z" fill="white" stroke="#263238" stroke-linejoin="round"/>
<path d="M229.563 299.354H221.969C221.805 299.354 221.647 299.289 221.53 299.174C221.412 299.059 221.346 298.902 221.344 298.738C221.346 298.573 221.412 298.416 221.529 298.299C221.646 298.183 221.804 298.116 221.969 298.114H229.563C229.727 298.116 229.884 298.183 230 298.3C230.116 298.416 230.181 298.574 230.181 298.738C230.181 298.901 230.115 299.058 230 299.173C229.884 299.289 229.727 299.354 229.563 299.354Z" fill="white" stroke="#263238" stroke-linejoin="round"/>
<path d="M229.563 300.868H221.969C221.805 300.868 221.647 300.803 221.53 300.688C221.412 300.572 221.346 300.416 221.344 300.252C221.346 300.087 221.412 299.93 221.529 299.813C221.646 299.697 221.804 299.63 221.969 299.628H229.563C229.727 299.63 229.884 299.697 230 299.814C230.116 299.93 230.181 300.088 230.181 300.252C230.181 300.415 230.115 300.572 230 300.687C229.884 300.803 229.727 300.868 229.563 300.868Z" fill="white" stroke="#263238" stroke-linejoin="round"/>
<path d="M196.896 104.294C196.896 104.294 196.322 114.365 196.151 115.902C195.98 117.438 190.367 120.355 185.55 122.626C180.733 124.896 176.683 125.891 176.877 128.006C177.071 130.121 179.959 208.9 179.959 208.9C179.959 208.9 186.51 208.708 196.151 205.064C205.792 201.42 211.562 196.803 216.378 192.766C219.29 190.337 222.537 188.337 226.019 186.829C226.019 186.829 226.763 149.558 226.763 143.042C226.763 136.526 228.111 129.787 227.731 127.101C227.352 124.414 215.783 121.163 212.894 119.798L209.998 118.455C209.998 118.455 209.998 114.744 211.16 112.414L212.313 110.113L197.476 103.582L196.896 104.294Z" fill="#FF7500" stroke="#263238" stroke-linejoin="round"/>
<path d="M216.356 192.744C219.268 190.315 222.514 188.315 225.997 186.807C225.997 186.807 225.997 186.591 225.997 186.191C223.063 186.332 220.249 187.831 207.906 191.987C198.685 194.977 189.177 197.002 179.535 198.028C179.773 204.618 179.929 208.893 179.929 208.893C179.929 208.893 186.481 208.7 196.121 205.056C205.762 201.412 211.539 196.781 216.356 192.744Z" fill="white" stroke="#263238" stroke-linejoin="round"/>
<path d="M179.334 192.566C179.334 192.566 213.668 187.816 225.974 183.86" stroke="#263238" stroke-linejoin="round"/>
<path d="M212.894 119.746L209.998 118.403C209.998 118.403 209.998 114.692 211.159 112.362L212.313 110.061L197.476 103.53L196.896 104.272C196.896 104.272 196.322 114.343 196.151 115.879C196.025 116.881 193.598 118.462 190.59 120.072C192.451 122.128 197.357 126.974 203.082 128.177C207.698 129.142 211.703 124.162 214.078 120.206C213.586 120.05 213.192 119.887 212.894 119.746Z" fill="white" stroke="#263238" stroke-linejoin="round"/>
<path d="M205.211 137.083L205.375 135.517C205.576 133.523 205.576 131.514 205.375 129.52L205.211 127.962C205.211 127.962 201.571 127.776 200.454 129.446C199.337 131.116 199.888 134.255 200.171 135.22C200.64 136.801 205.211 137.083 205.211 137.083Z" fill="#263238" stroke="#263238" stroke-linejoin="round"/>
<path d="M205.211 148.155L205.375 146.597C205.576 144.603 205.576 142.594 205.375 140.6L205.211 139.034C205.211 139.034 201.571 138.849 200.454 140.519C199.337 142.189 199.888 145.32 200.171 146.293C200.64 147.881 205.211 148.155 205.211 148.155Z" fill="#263238" stroke="#263238" stroke-linejoin="round"/>
<path d="M205.211 137.083V139.034" stroke="#263238" stroke-linejoin="round"/>
<path d="M204.094 137.083V138.849" stroke="#263238" stroke-linejoin="round"/>
<path d="M211.16 112.362L212.313 110.061L197.476 103.53L196.896 104.272L198.161 106.499C198.161 106.499 202.047 113.675 210.318 115.761C210.425 114.592 210.709 113.446 211.16 112.362Z" fill="#263238" stroke="#263238" stroke-linejoin="round"/>
<path d="M213.661 87.9671C213.661 87.9671 215.976 93.3477 215.976 94.1121C215.931 94.6684 215.73 95.2008 215.396 95.6483C215.396 95.6483 218.865 98.9138 218.671 99.6856C218.478 100.457 216.743 101.415 216.743 101.415C216.743 101.415 218.09 108.525 218.09 109.482C218.09 110.439 215.396 112.747 209.998 112.169C206.696 111.778 203.599 110.369 201.139 108.139C201.139 108.139 196.129 102.758 195.928 99.4927C195.727 96.2272 199.598 86.8316 204.407 85.466C209.216 84.1005 213.661 87.9671 213.661 87.9671Z" fill="white" stroke="#263238" stroke-linejoin="round"/>
<path d="M212.894 96.3237C212.894 97.0139 212.589 97.5705 212.217 97.5705C211.844 97.5705 211.539 97.0139 211.539 96.3237C211.539 95.6335 211.844 95.0769 212.217 95.0769C212.589 95.0769 212.894 95.6335 212.894 96.3237Z" fill="#263238"/>
<path d="M209.998 94.691C209.998 94.691 211.926 92.1899 214.242 93.5406" stroke="#263238" stroke-linejoin="round"/>
<path d="M209.618 102.179C209.618 102.179 210.772 104.101 214.83 103.337" stroke="#263238" stroke-linejoin="round"/>
<path d="M195.742 87.3882C195.742 87.3882 189.577 89.6963 188.997 93.3254C188.416 96.9545 193.62 101.971 194.394 102.736C195.168 103.5 199.605 103.478 200.752 101.994C201.898 100.509 200.171 97.9564 201.325 96.999C202.479 96.0417 204.027 96.4202 204.415 93.5406C204.802 90.6611 203.447 89.5033 205.375 88.546C207.303 87.5886 209.805 89.6963 213.661 87.9671C217.517 86.2379 216.356 79.514 212.12 77.0204C207.884 74.5267 201.139 77.9777 200.953 79.321C200.767 80.6643 202.107 82.3935 200.953 82.5865C199.799 82.7794 197.29 82.015 196.903 83.9298C196.653 85.1241 196.264 86.2849 195.742 87.3882Z" fill="#263238" stroke="#263238" stroke-linejoin="round"/>
<path d="M200.945 103.337C200.945 103.337 198.824 99.1067 195.935 99.4927C193.047 99.8786 193.814 106.217 195.935 107.56C198.057 108.903 200.945 106.217 200.945 106.217" fill="white"/>
<path d="M200.945 103.337C200.945 103.337 198.824 99.1067 195.935 99.4927C193.047 99.8786 193.814 106.217 195.935 107.56C198.057 108.903 200.945 106.217 200.945 106.217" stroke="#263238" stroke-linejoin="round"/>
<path d="M179.259 125.512C179.259 125.512 173.668 127.813 172.708 130.886C171.748 133.958 159.791 162.011 158.638 164.282C157.484 166.553 158.831 170.62 160.953 171.392C163.075 172.164 164.228 171.392 166.343 169.856C168.457 168.32 179.259 150.263 179.259 150.263" fill="#FF7500"/>
<path d="M179.259 125.512C179.259 125.512 173.668 127.813 172.708 130.886C171.748 133.958 159.791 162.011 158.638 164.282C157.484 166.553 158.831 170.62 160.953 171.392C163.075 172.164 164.228 171.392 166.343 169.856C168.457 168.32 179.259 150.263 179.259 150.263" stroke="#263238" stroke-linejoin="round"/>
<path d="M165.359 125.989L172.148 125.871C172.517 125.865 172.873 126.005 173.139 126.261C173.405 126.516 173.557 126.867 173.564 127.235L173.887 145.696C173.894 146.065 173.753 146.42 173.497 146.685C173.24 146.95 172.889 147.102 172.52 147.108L165.731 147.226C165.36 147.233 165.001 147.092 164.734 146.835C164.467 146.578 164.314 146.226 164.307 145.856L163.984 127.401C163.978 127.031 164.119 126.674 164.377 126.408C164.635 126.142 164.988 125.988 165.359 125.982L165.359 125.989Z" fill="#263238" stroke="#263238" stroke-linejoin="round"/>
<path d="M162.412 151.495C162.412 151.495 162.36 140.4 162.278 138.834C162.196 137.268 164.095 135.658 165.256 134.878C166.417 134.099 171.353 131.828 171.956 132.095C172.559 132.363 172.358 133.327 171.554 133.899C170.75 134.47 167.206 136.437 166.536 136.979C165.866 137.52 165.918 139.628 165.918 139.628C165.918 139.628 169.998 137.676 171.212 137.149C172.425 136.622 173.758 136.058 174.249 136.481C174.391 136.63 174.489 136.814 174.532 137.015C174.576 137.215 174.563 137.423 174.495 137.617C174.804 138 174.958 138.484 174.926 138.975C174.815 139.665 171.949 142.404 171.07 143.124C170.415 143.67 169.789 144.25 169.194 144.86C169.194 144.86 174.606 143.539 174.986 143.458C175.366 143.376 175.812 144.2 174.763 144.831C173.129 145.566 171.451 146.198 169.738 146.723C169.503 148.037 169.118 149.319 168.591 150.545C168.167 151.798 167.327 152.869 166.209 153.581C166.209 153.581 168.494 165.767 166.834 169.04C165.174 172.312 159.978 174.643 157.901 170.606C155.824 166.568 157.119 161.648 159.181 158.954C161.243 156.26 162.412 151.495 162.412 151.495Z" fill="white" stroke="#263238" stroke-linejoin="round"/>
<path d="M167.296 162.034C162.732 163.986 159.717 162.1 158.169 160.549C156.747 163.34 156.144 167.273 157.871 170.62C159.955 174.658 165.144 172.327 166.804 169.054C167.489 167.726 167.512 164.898 167.296 162.034Z" fill="#FF7500" stroke="#263238" stroke-linejoin="round"/>
<path d="M174.472 137.617L167.02 142.292" stroke="#263238" stroke-linejoin="round"/>
<path d="M174.472 137.617L167.02 142.292" stroke="#263238" stroke-linejoin="round"/>
<path d="M229.302 183.229L223.093 184.543C222.431 184.677 217.942 188.885 217.413 189.679C216.884 190.473 218.336 190.992 218.999 190.992C219.661 190.992 223.22 188.365 223.22 188.365L222.274 190.733L229.406 196.922C229.406 196.922 231.32 193.501 232.243 191.26C232.891 189.427 233.333 187.527 233.56 185.597" fill="white"/>
<path d="M229.302 183.229L223.093 184.543C222.431 184.677 217.942 188.885 217.413 189.679C216.884 190.473 218.336 190.992 218.999 190.992C219.661 190.992 223.22 188.365 223.22 188.365L222.274 190.733L229.406 196.922C229.406 196.922 231.32 193.501 232.243 191.26C232.891 189.427 233.333 187.527 233.56 185.597" stroke="#263238" stroke-linejoin="round"/>
</svg>
