<svg width="79" height="79" viewBox="0 0 79 79" fill="none" xmlns="http://www.w3.org/2000/svg">
<path opacity="0.25" d="M66.5905 23.8317L39.5001 39.5L12.4097 23.8317C12.9658 22.8689 13.759 22.0643 14.7138 21.4946L36.2084 9.08501C38.2493 7.93293 40.7509 7.93293 42.7917 9.08501L64.2863 21.4946C65.2409 22.0641 66.0342 22.8705 66.5905 23.8317Z" fill="white"/>
<path opacity="0.5" d="M39.4999 39.5001V70.771C38.4621 70.7694 37.4381 70.5331 36.5045 70.0797L14.8124 57.5385C13.8133 56.9605 12.9834 56.1303 12.4058 55.1309C11.8281 54.1316 11.5229 52.9981 11.5208 51.8439V27.1564C11.5262 25.9902 11.8323 24.8451 12.4095 23.8318L39.4999 39.5001Z" fill="white"/>
<path d="M67.4792 27.1564V51.8439C67.477 52.9981 67.1718 54.1316 66.5942 55.1309C66.0165 56.1303 65.1866 56.9605 64.1875 57.5385L42.3967 70.1126C41.4915 70.5405 40.5007 70.7644 39.5 70.771V39.5001L66.5904 23.8318C67.1665 24.8456 67.4726 25.9911 67.4792 27.1564Z" fill="white"/>
</svg>
