<svg width="40" height="18" viewBox="0 0 40 18" fill="none" xmlns="http://www.w3.org/2000/svg">
<path d="M7.55895 3.02588C7.09939 3.5697 6.36409 3.99862 5.62879 3.93734C5.53688 3.20205 5.89687 2.42079 6.31814 1.93825C6.7777 1.37912 7.58193 0.980833 8.23298 0.950195C8.30957 1.71613 8.01085 2.46675 7.55895 3.02588ZM8.22532 4.08287C7.16067 4.0216 6.2492 4.68796 5.74369 4.68796C5.23051 4.68796 4.45691 4.11351 3.61438 4.12883C2.5191 4.14415 1.5004 4.76456 0.941268 5.75261C-0.207635 7.72873 0.642553 10.6546 1.75316 12.2631C2.29697 13.0596 2.94802 13.9328 3.80587 13.9022C4.61776 13.8715 4.93945 13.3737 5.91985 13.3737C6.90791 13.3737 7.1913 13.9022 8.04915 13.8868C8.93764 13.8715 9.49677 13.0903 10.0406 12.2937C10.661 11.3899 10.9138 10.5091 10.9291 10.4631C10.9138 10.4478 9.21337 9.79675 9.19806 7.83596C9.18274 6.19686 10.5384 5.4156 10.5997 5.36964C9.83378 4.23606 8.63892 4.11351 8.22532 4.08287ZM14.3758 1.86166V13.8026H16.2293V9.72016H18.7952C21.139 9.72016 22.7858 8.11169 22.7858 5.78325C22.7858 3.4548 21.1696 1.86166 18.8565 1.86166H14.3758ZM16.2293 3.42417H18.3663C19.9748 3.42417 20.8939 4.28202 20.8939 5.79091C20.8939 7.2998 19.9748 8.16531 18.3586 8.16531H16.2293V3.42417ZM26.1712 13.8945C27.3354 13.8945 28.4154 13.3047 28.9056 12.3703H28.9439V13.8026H30.6596V7.85894C30.6596 6.13558 29.2809 5.02497 27.1592 5.02497C25.1908 5.02497 23.7355 6.1509 23.6819 7.69809H25.3516C25.4895 6.96279 26.1712 6.48025 27.1056 6.48025C28.2392 6.48025 28.8749 7.00875 28.8749 7.98149V8.64019L26.5618 8.77806C24.4095 8.90827 23.2453 9.78909 23.2453 11.321C23.2453 12.8682 24.4478 13.8945 26.1712 13.8945ZM26.669 12.4775C25.681 12.4775 25.0529 12.0026 25.0529 11.275C25.0529 10.5244 25.658 10.0878 26.8146 10.0189L28.8749 9.88867V10.5627C28.8749 11.681 27.9252 12.4775 26.669 12.4775ZM32.9497 17.0502C34.7573 17.0502 35.6075 16.3608 36.3505 14.2698L39.6057 5.13986H37.7215L35.5386 12.1941H35.5003L33.3174 5.13986H31.3796L34.5199 13.8332L34.3514 14.3617C34.068 15.2579 33.6084 15.6025 32.7889 15.6025C32.6433 15.6025 32.36 15.5872 32.2451 15.5719V17.0042C32.3523 17.0348 32.8119 17.0502 32.9497 17.0502Z" fill="white"/>
</svg>
