<svg width="18" height="12" viewBox="0 0 18 12" fill="none" xmlns="http://www.w3.org/2000/svg">
<path d="M4.79289 11.2071C5.18342 11.5976 5.81658 11.5976 6.20711 11.2071C6.59763 10.8166 6.59763 10.1834 6.20711 9.79289L4.79289 11.2071ZM1.70711 5.29289C1.31658 4.90237 0.683418 4.90237 0.292892 5.29289C-0.0976315 5.68342 -0.0976315 6.31658 0.292892 6.70711L1.70711 5.29289ZM0.292892 5.29289C-0.0976315 5.68342 -0.0976315 6.31658 0.292892 6.70711C0.683418 7.09763 1.31658 7.09763 1.70711 6.70711L0.292892 5.29289ZM6.20711 2.20711C6.59763 1.81658 6.59763 1.18342 6.20711 0.792893C5.81658 0.402369 5.18342 0.402369 4.79289 0.792893L6.20711 2.20711ZM1 5C0.447716 5 0 5.44772 0 6C0 6.55228 0.447716 7 1 7V5ZM17 7C17.5523 7 18 6.55228 18 6C18 5.44772 17.5523 5 17 5V7ZM6.20711 9.79289L1.70711 5.29289L0.292892 6.70711L4.79289 11.2071L6.20711 9.79289ZM1.70711 6.70711L6.20711 2.20711L4.79289 0.792893L0.292892 5.29289L1.70711 6.70711ZM1 7L17 7V5L1 5V7Z" fill="black"/>
</svg>
