<svg width="21" height="12" viewBox="0 0 21 12" fill="none" xmlns="http://www.w3.org/2000/svg">
<path fill-rule="evenodd" clip-rule="evenodd" d="M14.2853 1.5L19.2651 6L14.2853 1.5ZM19.2651 6L14.2853 10.5L19.2651 6ZM19.2651 6H1.55908H19.2651Z" fill="white"/>
<path d="M14.9557 0.758052C14.5459 0.387769 13.9136 0.419776 13.5433 0.829542C13.173 1.23931 13.205 1.87166 13.6148 2.24195L14.9557 0.758052ZM18.5946 6.74195C19.0044 7.11223 19.6367 7.08022 20.007 6.67046C20.3773 6.26069 20.3453 5.62834 19.9355 5.25805L18.5946 6.74195ZM19.9355 6.74195C20.3453 6.37166 20.3773 5.73931 20.007 5.32954C19.6367 4.91978 19.0044 4.88777 18.5946 5.25805L19.9355 6.74195ZM13.6148 9.75805C13.205 10.1283 13.173 10.7607 13.5433 11.1705C13.9136 11.5802 14.5459 11.6122 14.9557 11.2419L13.6148 9.75805ZM19.2651 7C19.8174 7 20.2651 6.55228 20.2651 6C20.2651 5.44772 19.8174 5 19.2651 5V7ZM1.55908 5C1.0068 5 0.559082 5.44772 0.559082 6C0.559082 6.55228 1.0068 7 1.55908 7V5ZM13.6148 2.24195L18.5946 6.74195L19.9355 5.25805L14.9557 0.758052L13.6148 2.24195ZM18.5946 5.25805L13.6148 9.75805L14.9557 11.2419L19.9355 6.74195L18.5946 5.25805ZM19.2651 5H1.55908V7H19.2651V5Z" fill="white"/>
</svg>
