<svg width="31" height="31" viewBox="0 0 31 31" fill="none" xmlns="http://www.w3.org/2000/svg">
<path d="M10.6892 26.0838C11.2206 26.0838 11.6513 25.653 11.6513 25.1216C11.6513 24.5902 11.2206 24.1594 10.6892 24.1594C10.1578 24.1594 9.72699 24.5902 9.72699 25.1216C9.72699 25.653 10.1578 26.0838 10.6892 26.0838Z" stroke="#888888" stroke-width="2.36842" stroke-linecap="round" stroke-linejoin="round"/>
<path d="M9.72695 17.4244H24.7272C24.8385 17.4245 24.9463 17.386 25.0324 17.3155C25.1185 17.245 25.1774 17.1469 25.1993 17.0378L26.9312 8.37823C26.9451 8.30841 26.9434 8.23635 26.9262 8.16726C26.9089 8.09817 26.8766 8.03377 26.8314 7.97871C26.7862 7.92366 26.7294 7.87931 26.665 7.84888C26.6007 7.81844 26.5303 7.80268 26.4591 7.80273H7.80261" stroke="#888888" stroke-width="2.36842" stroke-linecap="round" stroke-linejoin="round"/>
<path d="M24.1596 26.0838C24.691 26.0838 25.1217 25.653 25.1217 25.1216C25.1217 24.5902 24.691 24.1594 24.1596 24.1594C23.6282 24.1594 23.1974 24.5902 23.1974 25.1216C23.1974 25.653 23.6282 26.0838 24.1596 26.0838Z" stroke="#888888" stroke-width="2.36842" stroke-linecap="round" stroke-linejoin="round"/>
<path d="M2.99176 4.91602H6.84044L9.72696 21.2729H25.1217" stroke="#888888" stroke-width="2.36842" stroke-linecap="round" stroke-linejoin="round"/>
</svg>
