<svg width="24" height="24" viewBox="0 0 24 24" fill="none" xmlns="http://www.w3.org/2000/svg">
<path d="M13.946 2.09422C13.4032 1.63156 12.7133 1.37744 12 1.37744C11.2868 1.37744 10.5969 1.63156 10.054 2.09422L8.70602 3.24322C8.54591 3.3798 8.34679 3.46239 8.13702 3.47922L6.37202 3.61922C5.66105 3.67593 4.99353 3.98408 4.4892 4.48841C3.98487 4.99274 3.67672 5.66025 3.62002 6.37122L3.48002 8.13722C3.4629 8.34711 3.37996 8.54624 3.24302 8.70622L2.09502 10.0542C1.63262 10.597 1.37866 11.2867 1.37866 11.9997C1.37866 12.7127 1.63262 13.4025 2.09502 13.9452L3.24302 15.2942C3.3796 15.4543 3.46218 15.6534 3.47902 15.8632L3.62002 17.6282C3.67672 18.3392 3.98487 19.0067 4.4892 19.511C4.99353 20.0154 5.66105 20.3235 6.37202 20.3802L8.13702 20.5202C8.34726 20.5371 8.54677 20.6201 8.70702 20.7572L10.054 21.9052C10.5969 22.3679 11.2868 22.622 12 22.622C12.7133 22.622 13.4032 22.3679 13.946 21.9052L15.294 20.7572C15.4544 20.6204 15.6539 20.5379 15.864 20.5212L17.629 20.3802C18.34 20.3235 19.0075 20.0154 19.5118 19.511C20.0162 19.0067 20.3243 18.3392 20.381 17.6282L20.521 15.8632C20.5376 15.6531 20.6202 15.4536 20.757 15.2932L21.906 13.9462C22.3687 13.4034 22.6228 12.7135 22.6228 12.0002C22.6228 11.287 22.3687 10.5971 21.906 10.0542L20.757 8.70622C20.6202 8.54584 20.5376 8.34635 20.521 8.13622L20.381 6.37122C20.3243 5.66025 20.0162 4.99274 19.5118 4.48841C19.0075 3.98408 18.34 3.67593 17.629 3.61922L15.863 3.47922C15.6532 3.46239 15.4541 3.3798 15.294 3.24322L13.946 2.09422ZM14.828 7.75722L16.243 9.17122L9.17202 16.2432L7.75702 14.8282L14.828 7.75722ZM10.232 10.2322C10.0936 10.3755 9.92813 10.4898 9.74512 10.5684C9.56212 10.647 9.36529 10.6884 9.16612 10.6901C8.96695 10.6918 8.76943 10.6539 8.58509 10.5785C8.40074 10.503 8.23326 10.3917 8.09243 10.2508C7.95159 10.11 7.84021 9.9425 7.76479 9.75815C7.68936 9.57381 7.65141 9.37629 7.65314 9.17712C7.65487 8.97795 7.69625 8.78112 7.77487 8.59812C7.85348 8.41511 7.96775 8.24959 8.11102 8.11122C8.39392 7.83799 8.77282 7.6868 9.16612 7.69021C9.55941 7.69363 9.93563 7.85138 10.2137 8.1295C10.4919 8.40761 10.6496 8.78383 10.653 9.17712C10.6564 9.57042 10.5053 9.94932 10.232 10.2322ZM13.768 15.8892C13.6223 15.7515 13.5057 15.5859 13.4251 15.4024C13.3445 15.2188 13.3015 15.0209 13.2987 14.8204C13.2958 14.62 13.3332 14.421 13.4086 14.2352C13.484 14.0494 13.5959 13.8806 13.7376 13.7388C13.8793 13.597 14.0481 13.4851 14.2338 13.4096C14.4196 13.3341 14.6185 13.2966 14.819 13.2994C15.0195 13.3021 15.2174 13.345 15.401 13.4255C15.5846 13.5061 15.7502 13.6226 15.888 13.7682C16.153 14.0526 16.2972 14.4287 16.2904 14.8173C16.2835 15.2059 16.1261 15.5766 15.8513 15.8515C15.5764 16.1263 15.2057 16.2837 14.8171 16.2906C14.4285 16.2974 14.0524 16.1532 13.768 15.8882" fill="#FF7500"/>
</svg>
