<svg width="19" height="19" viewBox="0 0 19 19" fill="none" xmlns="http://www.w3.org/2000/svg">
<path d="M1.94403 19.0002H15.3755C15.8909 18.9997 16.3851 18.7948 16.7496 18.4303C17.1141 18.0658 17.3191 17.5715 17.3195 17.0562V9.28006C17.3195 8.98719 17.0822 8.74987 16.7893 8.74987C16.4965 8.74987 16.2592 8.98719 16.2592 9.28006V17.0562C16.259 17.2905 16.1657 17.515 16.0001 17.6807C15.8344 17.8464 15.6098 17.9397 15.3755 17.9398H1.94403C1.7097 17.9397 1.48518 17.8464 1.31948 17.6807C1.15379 17.515 1.06053 17.2905 1.06038 17.0562V3.6247C1.06053 3.39037 1.15379 3.16585 1.31948 3.00014C1.48516 2.83446 1.7097 2.7412 1.94403 2.74104H9.72015C10.013 2.74104 10.2503 2.50372 10.2503 2.21085C10.2503 1.91799 10.013 1.68066 9.72015 1.68066H1.94403C1.42866 1.68114 0.934467 1.88611 0.569939 2.2506C0.205411 2.61509 0.00044435 3.10933 0 3.62469V17.0562C0.000473394 17.5715 0.205447 18.0657 0.569939 18.4303C0.934431 18.7948 1.42867 18.9998 1.94403 19.0002Z" fill="black"/>
<path d="M5.77271 10.1102L5.68987 12.0205C5.67456 12.3577 5.79812 12.6865 6.03149 12.9304C6.26487 13.1744 6.58786 13.3123 6.92557 13.312C6.94355 13.312 6.96138 13.3117 6.97874 13.3109L8.88965 13.2277C9.19908 13.2148 9.49243 13.0859 9.71113 12.8664L16.7141 5.86303L18.5352 4.04257C18.8336 3.74434 19.0011 3.33977 19.0011 2.9178C19.0011 2.49587 18.8336 2.09127 18.5352 1.79303L17.207 0.464386C16.9083 0.166942 16.5039 -0.000161465 16.0824 1.17072e-07C15.6608 1.17072e-07 15.2564 0.167104 14.9578 0.464871L13.1367 2.28565L6.13294 9.28941H6.13278C5.91424 9.50827 5.78563 9.80114 5.77254 10.1102L5.77271 10.1102ZM15.7076 1.21513H15.7074C15.9144 1.00826 16.2499 1.00811 16.4572 1.21482L17.7855 2.54346H17.7854C17.8848 2.64271 17.9407 2.77747 17.9407 2.91807C17.9407 3.05866 17.8848 3.19342 17.7854 3.29283L16.339 4.7387L14.2612 2.66072L15.7076 1.21513ZM6.83188 10.1563H6.83172C6.83393 10.1121 6.85239 10.0703 6.88348 10.0389L13.5116 3.41037L15.5895 5.48835L8.96065 12.1172C8.92972 12.1485 8.8879 12.1666 8.84404 12.1684L6.93313 12.2515C6.88311 12.2563 6.83388 12.2372 6.79995 12.2001C6.76524 12.1651 6.74662 12.1169 6.74883 12.0675L6.83188 10.1563Z" fill="black"/>
</svg>
