<svg width="36" height="15" viewBox="0 0 36 15" fill="none" xmlns="http://www.w3.org/2000/svg">
<path d="M17.0254 6.98416V11.1746H15.696V0.826135H19.2218C19.6426 0.817344 20.061 0.891984 20.4529 1.04575C20.8447 1.19951 21.2022 1.42935 21.5048 1.72201C21.8104 1.9969 22.0536 2.33403 22.2181 2.71073C22.3826 3.08743 22.4646 3.49497 22.4585 3.90597C22.4672 4.31918 22.3865 4.72938 22.2219 5.10848C22.0573 5.48758 21.8127 5.82661 21.5048 6.10232C20.8883 6.69022 20.1273 6.98389 19.2218 6.98334H17.0254V6.98416ZM17.0254 2.10018V5.71259H19.2548C19.4992 5.71984 19.7424 5.67599 19.9689 5.58386C20.1954 5.49173 20.4002 5.35334 20.5701 5.17754C20.7392 5.01318 20.8736 4.81658 20.9653 4.59938C21.0571 4.38218 21.1044 4.14878 21.1044 3.91299C21.1044 3.6772 21.0571 3.44381 20.9653 3.2266C20.8736 3.0094 20.7392 2.81281 20.5701 2.64844C20.4023 2.46894 20.1982 2.32716 19.9715 2.2325C19.7447 2.13784 19.5004 2.09245 19.2548 2.09936H17.0254V2.10018Z" fill="black"/>
<path d="M25.522 3.86304C26.5046 3.86304 27.2802 4.12561 27.8488 4.65075C28.4175 5.17589 28.7015 5.8959 28.701 6.81077V11.1746H27.4294V10.192H27.3716C26.8211 11.0012 26.089 11.4058 25.1752 11.4058C24.3952 11.4058 23.7427 11.1746 23.2175 10.7122C22.9655 10.4999 22.764 10.2342 22.6277 9.9342C22.4915 9.63423 22.4238 9.30763 22.4298 8.97821C22.4298 8.24555 22.7067 7.66288 23.2605 7.23022C23.8142 6.79755 24.5535 6.58067 25.4783 6.57957C26.2676 6.57957 26.9177 6.72407 27.4286 7.01306V6.70921C27.4301 6.48463 27.3816 6.26254 27.2866 6.05903C27.1916 5.85551 27.0526 5.67569 26.8795 5.53259C26.5279 5.21542 26.0698 5.04237 25.5963 5.04791C24.8538 5.04791 24.2661 5.36112 23.8335 5.98755L22.6627 5.2502C23.3067 4.32543 24.2598 3.86304 25.522 3.86304ZM23.8021 9.00711C23.8012 9.1763 23.8408 9.34325 23.9175 9.49406C23.9942 9.64486 24.1058 9.77516 24.243 9.87409C24.537 10.1054 24.902 10.2279 25.276 10.2209C25.8369 10.2199 26.3747 9.99666 26.7713 9.59996C27.2117 9.18546 27.4319 8.69913 27.4319 8.14096C27.0174 7.81068 26.4394 7.64554 25.6979 7.64554C25.1579 7.64554 24.7076 7.77573 24.3471 8.0361C23.9829 8.30032 23.8021 8.62151 23.8021 9.00711Z" fill="black"/>
<path d="M36 4.09424L31.5611 14.2957H30.1888L31.8361 10.7262L28.9172 4.09424H30.3622L32.4718 9.18052H32.5007L34.5526 4.09424H36Z" fill="black"/>
<path d="M11.6537 6.08089C11.6542 5.67576 11.6199 5.27134 11.5513 4.87207H5.94482V7.16172H9.15595C9.09024 7.52741 8.95116 7.87601 8.7471 8.1865C8.54304 8.49699 8.27822 8.76295 7.9686 8.96834V10.4546H9.88504C11.0072 9.41999 11.6537 7.88998 11.6537 6.08089Z" fill="#4285F4"/>
<path d="M5.94475 11.8907C7.54907 11.8907 8.89991 11.3639 9.88496 10.4556L7.96853 8.96938C7.43513 9.33104 6.74815 9.53746 5.94475 9.53746C4.39409 9.53746 3.07794 8.49213 2.60729 7.0835H0.633057V8.61516C1.12787 9.59978 1.88661 10.4275 2.82457 11.0059C3.76252 11.5843 4.84279 11.8906 5.94475 11.8907Z" fill="#34A853"/>
<path d="M2.60727 7.0834C2.35846 6.34527 2.35846 5.54592 2.60727 4.80779V3.27612H0.633037C0.216784 4.10442 0 5.01858 0 5.94559C0 6.8726 0.216784 7.78676 0.633037 8.61506L2.60727 7.0834Z" fill="#FBBC04"/>
<path d="M5.94475 2.35362C6.79256 2.33977 7.61177 2.6601 8.22532 3.24537L9.92212 1.54857C8.84617 0.53798 7.42078 -0.0168497 5.94475 0.000390048C4.84279 0.000440271 3.76252 0.306768 2.82457 0.885173C1.88661 1.46358 1.12787 2.2913 0.633057 3.27592L2.60729 4.80758C3.07794 3.39895 4.39409 2.35362 5.94475 2.35362Z" fill="#EA4335"/>
</svg>
