<svg width="59" height="24" viewBox="0 0 59 24" fill="none" xmlns="http://www.w3.org/2000/svg">
<path d="M27.9231 11.7353V18.5166H25.7717V1.76968H31.4774C32.1585 1.75545 32.8356 1.87624 33.4697 2.12508C34.1039 2.37392 34.6825 2.74588 35.1721 3.21949C35.6667 3.66434 36.0603 4.20991 36.3265 4.81953C36.5927 5.42914 36.7253 6.08868 36.7154 6.75381C36.7296 7.42249 36.599 8.08634 36.3326 8.69984C36.0662 9.31333 35.6703 9.86198 35.1721 10.3082C34.1744 11.2596 32.9428 11.7348 31.4774 11.7339H27.9231V11.7353ZM27.9231 3.83148V9.67747H31.5309C31.9264 9.6892 32.32 9.61824 32.6865 9.46914C33.0531 9.32005 33.3844 9.09609 33.6595 8.8116C33.9331 8.54561 34.1505 8.22745 34.2991 7.87595C34.4476 7.52446 34.5241 7.14675 34.5241 6.76517C34.5241 6.38358 34.4476 6.00588 34.2991 5.65438C34.1505 5.30288 33.9331 4.98473 33.6595 4.71873C33.3879 4.42825 33.0577 4.1988 32.6907 4.04561C32.3237 3.89241 31.9284 3.81897 31.5309 3.83014H27.9231V3.83148Z" fill="white"/>
<path d="M41.6728 6.68408C43.263 6.68408 44.5181 7.109 45.4383 7.95884C46.3586 8.80868 46.8182 9.97387 46.8173 11.4544V18.5164H44.7595V16.9263H44.666C43.7752 18.2358 42.5904 18.8905 41.1116 18.8905C39.8493 18.8905 38.7933 18.5164 37.9434 17.7681C37.5356 17.4246 37.2095 16.9945 36.989 16.5091C36.7685 16.0236 36.659 15.4951 36.6687 14.962C36.6687 13.7763 37.1168 12.8334 38.0129 12.1332C38.9091 11.433 40.1055 11.0821 41.602 11.0803C42.8795 11.0803 43.9315 11.3141 44.7582 11.7818V11.2901C44.7606 10.9266 44.6822 10.5672 44.5285 10.2379C44.3748 9.90852 44.1497 9.61751 43.8696 9.38593C43.3007 8.87266 42.5593 8.5926 41.7931 8.60157C40.5914 8.60157 39.6404 9.10844 38.9403 10.1222L37.0455 8.92894C38.0878 7.43237 39.6302 6.68408 41.6728 6.68408ZM38.8895 15.0088C38.888 15.2826 38.952 15.5528 39.0762 15.7968C39.2003 16.0409 39.3809 16.2517 39.603 16.4118C40.0788 16.7861 40.6694 16.9844 41.2747 16.973C42.1825 16.9715 43.0527 16.6102 43.6946 15.9682C44.4072 15.2974 44.7635 14.5104 44.7635 13.6071C44.0928 13.0726 43.1574 12.8053 41.9575 12.8053C41.0836 12.8053 40.3549 13.016 39.7714 13.4374C39.1821 13.865 38.8895 14.3848 38.8895 15.0088Z" fill="white"/>
<path d="M58.6295 7.05811L51.446 23.5672H49.2251L51.8909 17.7907L47.1674 7.05811H49.5058L52.9198 15.2893H52.9666L56.2871 7.05811H58.6295Z" fill="white"/>
<path d="M19.2295 10.2731C19.2303 9.61751 19.1749 8.96304 19.0638 8.31689H9.99084V12.0223H15.1874C15.0811 12.6141 14.856 13.1782 14.5258 13.6807C14.1956 14.1831 13.767 14.6135 13.2659 14.9459V17.3511H16.3673C18.1833 15.6768 19.2295 13.2008 19.2295 10.2731Z" fill="#4285F4"/>
<path d="M9.99085 19.675C12.5871 19.675 14.7732 18.8225 16.3673 17.3527L13.2659 14.9475C12.4027 15.5327 11.291 15.8668 9.99085 15.8668C7.48141 15.8668 5.35147 14.1751 4.58982 11.8955H1.3949V14.3742C2.19565 15.9676 3.42353 17.3071 4.94143 18.2432C6.45934 19.1792 8.20753 19.6749 9.99085 19.675Z" fill="#34A853"/>
<path d="M4.58985 11.8952C4.18719 10.7007 4.18719 9.40712 4.58985 8.21259V5.73389H1.39493C0.721307 7.07433 0.370483 8.55373 0.370483 10.0539C0.370483 11.5541 0.721307 13.0335 1.39493 14.3739L4.58985 11.8952Z" fill="#FBBC04"/>
<path d="M9.99085 4.2415C11.3629 4.21908 12.6886 4.73747 13.6815 5.68462L16.4275 2.93867C14.6862 1.30323 12.3795 0.405349 9.99085 0.433248C8.20753 0.43333 6.45934 0.929062 4.94143 1.8651C3.42353 2.80114 2.19565 4.14064 1.3949 5.73406L4.58982 8.21276C5.35147 5.93316 7.48141 4.2415 9.99085 4.2415Z" fill="#EA4335"/>
</svg>
