<svg width="33" height="32" viewBox="0 0 33 32" fill="none" xmlns="http://www.w3.org/2000/svg">
<path fill-rule="evenodd" clip-rule="evenodd" d="M3.86 10.4305C3.16667 11.6932 3.16667 13.2198 3.16667 16.2705V18.2998C3.16667 23.4998 3.16667 26.1012 4.72933 27.7172C6.29067 29.3332 8.80533 29.3332 13.8333 29.3332H19.1667C24.1947 29.3332 26.7093 29.3332 28.2707 27.7172C29.8333 26.1012 29.8333 23.5012 29.8333 18.2998V16.2718C29.8333 13.2198 29.8333 11.6945 29.14 10.4305C28.4493 9.16517 27.184 8.38117 24.6547 6.8105L21.988 5.15584C19.3147 3.49584 17.9773 2.6665 16.5 2.6665C15.0227 2.6665 13.6867 3.49584 11.012 5.15584L8.34533 6.8105C5.816 8.38117 4.552 9.16517 3.86 10.4305ZM15.5 23.9998C15.5 24.2651 15.6054 24.5194 15.7929 24.7069C15.9804 24.8945 16.2348 24.9998 16.5 24.9998C16.7652 24.9998 17.0196 24.8945 17.2071 24.7069C17.3946 24.5194 17.5 24.2651 17.5 23.9998V19.9998C17.5 19.7346 17.3946 19.4803 17.2071 19.2927C17.0196 19.1052 16.7652 18.9998 16.5 18.9998C16.2348 18.9998 15.9804 19.1052 15.7929 19.2927C15.6054 19.4803 15.5 19.7346 15.5 19.9998V23.9998Z" fill="black"/>
</svg>
