<svg width="25" height="32" viewBox="0 0 25 32" fill="none" xmlns="http://www.w3.org/2000/svg">
<path fill-rule="evenodd" clip-rule="evenodd" d="M12.5 0.819214C10.721 0.819214 9.01483 1.52592 7.75688 2.78387C6.49893 4.04183 5.79222 5.74797 5.79222 7.52698C5.79222 9.30599 6.49893 11.0121 7.75688 12.2701C9.01483 13.528 10.721 14.2348 12.5 14.2348C14.279 14.2348 15.9852 13.528 17.2431 12.2701C18.5011 11.0121 19.2078 9.30599 19.2078 7.52698C19.2078 5.74797 18.5011 4.04183 17.2431 2.78387C15.9852 1.52592 14.279 0.819214 12.5 0.819214ZM7.91046 7.52698C7.91046 6.30977 8.394 5.1424 9.25471 4.2817C10.1154 3.42099 11.2828 2.93746 12.5 2.93746C13.7172 2.93746 14.8846 3.42099 15.7453 4.2817C16.606 5.1424 17.0895 6.30977 17.0895 7.52698C17.0895 8.7442 16.606 9.91157 15.7453 10.7723C14.8846 11.633 13.7172 12.1165 12.5 12.1165C11.2828 12.1165 10.1154 11.633 9.25471 10.7723C8.394 9.91157 7.91046 8.7442 7.91046 7.52698ZM12.5 16.353C9.23366 16.353 6.22293 17.0958 3.99313 18.3498C1.7958 19.5868 0.143573 21.4594 0.143573 23.7668V23.9109C0.14216 25.5518 0.140748 27.6108 1.9469 29.0822C2.83515 29.8053 4.07927 30.3207 5.75974 30.6596C7.44304 31.0014 9.63895 31.1807 12.5 31.1807C15.361 31.1807 17.5555 31.0014 19.2417 30.6596C20.9221 30.3207 22.1648 29.8053 23.0545 29.0822C24.8606 27.6108 24.8578 25.5518 24.8564 23.9109V23.7668C24.8564 21.4594 23.2042 19.5868 21.0083 18.3498C18.7771 17.0958 15.7677 16.353 12.5 16.353ZM2.26182 23.7668C2.26182 22.5651 3.14018 21.2603 5.03107 20.1969C6.88947 19.1519 9.52739 18.4712 12.5014 18.4712C15.4726 18.4712 18.1105 19.1519 19.9689 20.1969C21.8612 21.2603 22.7382 22.5651 22.7382 23.7668C22.7382 25.614 22.6817 26.6533 21.7158 27.4385C21.1933 27.8649 20.3177 28.2815 18.8208 28.5837C17.3282 28.8859 15.2876 29.0625 12.5 29.0625C9.71238 29.0625 7.6704 28.8859 6.17915 28.5837C4.68226 28.2815 3.80672 27.8649 3.28422 27.4399C2.3183 26.6533 2.26182 25.614 2.26182 23.7668Z" fill="#5E5E5E"/>
</svg>
