<svg width="23" height="22" viewBox="0 0 23 22" fill="none" xmlns="http://www.w3.org/2000/svg">
<path fill-rule="evenodd" clip-rule="evenodd" d="M15.5 8C15.5 9.06087 15.0786 10.0783 14.3284 10.8284C13.5783 11.5786 12.5609 12 11.5 12C10.4391 12 9.42172 11.5786 8.67157 10.8284C7.92143 10.0783 7.5 9.06087 7.5 8C7.5 6.93913 7.92143 5.92172 8.67157 5.17157C9.42172 4.42143 10.4391 4 11.5 4C12.5609 4 13.5783 4.42143 14.3284 5.17157C15.0786 5.92172 15.5 6.93913 15.5 8ZM13.5 8C13.5 8.53043 13.2893 9.03914 12.9142 9.41421C12.5391 9.78929 12.0304 10 11.5 10C10.9696 10 10.4609 9.78929 10.0858 9.41421C9.71071 9.03914 9.5 8.53043 9.5 8C9.5 7.46957 9.71071 6.96086 10.0858 6.58579C10.4609 6.21071 10.9696 6 11.5 6C12.0304 6 12.5391 6.21071 12.9142 6.58579C13.2893 6.96086 13.5 7.46957 13.5 8Z" fill="#6A6A6A"/>
<path fill-rule="evenodd" clip-rule="evenodd" d="M11.5 0C5.425 0 0.5 4.925 0.5 11C0.5 17.075 5.425 22 11.5 22C17.575 22 22.5 17.075 22.5 11C22.5 4.925 17.575 0 11.5 0ZM2.5 11C2.5 13.09 3.213 15.014 4.408 16.542C5.24723 15.4399 6.3299 14.5467 7.57143 13.9323C8.81297 13.3179 10.1797 12.9988 11.565 13C12.9323 12.9987 14.2819 13.3095 15.5109 13.9088C16.7399 14.508 17.816 15.3799 18.657 16.458C19.5234 15.3216 20.1068 13.9952 20.3589 12.5886C20.611 11.182 20.5244 9.73553 20.1065 8.36898C19.6886 7.00243 18.9512 5.75505 17.9555 4.73004C16.9598 3.70503 15.7343 2.93186 14.3804 2.47451C13.0265 2.01716 11.5832 1.88877 10.1699 2.09997C8.75652 2.31117 7.41379 2.85589 6.25277 3.68905C5.09175 4.52222 4.14581 5.61987 3.49323 6.8912C2.84065 8.16252 2.50018 9.57097 2.5 11ZM11.5 20C9.43395 20.0031 7.43027 19.2923 5.828 17.988C6.47293 17.0647 7.33134 16.3109 8.33019 15.7907C9.32905 15.2705 10.4388 14.9992 11.565 15C12.6772 14.9991 13.7735 15.2636 14.7629 15.7714C15.7524 16.2793 16.6064 17.0159 17.254 17.92C15.6393 19.2667 13.6026 20.0029 11.5 20Z" fill="#6A6A6A"/>
</svg>
