<svg width="28" height="28" viewBox="0 0 28 28" fill="none" xmlns="http://www.w3.org/2000/svg">
<path d="M24.4375 10.1537L23.98 9.89875C23.5774 9.69141 23.2386 9.37861 23 8.99375C22.9787 8.96 22.9587 8.92375 22.9187 8.85375C22.6494 8.4211 22.5185 7.91652 22.5437 7.4075L22.5512 6.87625C22.5662 6.02625 22.5737 5.59875 22.4537 5.21625C22.3476 4.87589 22.1699 4.5622 21.9325 4.29625C21.665 3.99625 21.2937 3.78125 20.55 3.35375L19.9325 2.9975C19.1925 2.57125 18.8212 2.3575 18.4275 2.27625C18.0796 2.20422 17.7204 2.20721 17.3737 2.285C16.9825 2.3725 16.6162 2.5925 15.885 3.03L15.8812 3.0325L15.4387 3.29625C15.3687 3.33875 15.3325 3.35875 15.2975 3.37875C14.95 3.5725 14.5625 3.67875 14.1637 3.69125C14.1237 3.69375 14.0825 3.69375 14.0012 3.69375L13.8387 3.6925C13.4398 3.67994 13.0498 3.57192 12.7012 3.3775C12.6662 3.35875 12.6325 3.3375 12.5625 3.295L12.1162 3.0275C11.38 2.585 11.0112 2.365 10.6175 2.27625C10.2696 2.19829 9.90897 2.19573 9.55998 2.26875C9.16498 2.35125 8.79498 2.56625 8.05373 2.99625L8.04998 2.9975L7.43998 3.35125L7.43373 3.35625C6.69873 3.78125 6.32998 3.99625 6.06498 4.295C5.82882 4.56049 5.65198 4.87327 5.54623 5.2125C5.42748 5.59625 5.43373 6.02375 5.44873 6.87875L5.45748 7.40875C5.45748 7.49 5.46123 7.53 5.45998 7.56875C5.45338 8.02288 5.32331 8.46665 5.08373 8.8525C5.04248 8.9225 5.02373 8.9575 5.00248 8.99C4.79172 9.33021 4.50236 9.61485 4.15873 9.82L4.01873 9.89875L3.56748 10.1487C2.81498 10.565 2.43873 10.7737 2.16623 11.0712C1.92395 11.3335 1.74067 11.6447 1.62873 11.9837C1.50373 12.3675 1.50373 12.7962 1.50498 13.6562L1.50748 14.36C1.50873 15.2137 1.51123 15.64 1.63748 16.0212C1.74896 16.3582 1.93091 16.6676 2.17123 16.9287C2.44373 17.2237 2.81623 17.4312 3.56248 17.8462L4.00998 18.095C4.08623 18.1375 4.12498 18.1575 4.16123 18.18C4.55295 18.4148 4.87285 18.7524 5.08623 19.1562L5.16998 19.3062C5.38112 19.7049 5.48046 20.1532 5.45748 20.6037L5.44873 21.1125C5.43373 21.97 5.42748 22.4 5.54748 22.7837C5.65373 23.1237 5.83123 23.4375 6.06873 23.7037C6.33623 24.0037 6.70873 24.2175 7.45123 24.6462L8.06873 25.0025C8.80998 25.4287 9.17998 25.6425 9.57373 25.7237C9.92161 25.7957 10.2808 25.7927 10.6275 25.715C11.02 25.6275 11.3862 25.4075 12.12 24.9675L12.5625 24.7025C12.9436 24.4571 13.3844 24.3201 13.8375 24.3062H14.1625C14.56 24.3187 14.95 24.4275 15.3 24.6212L15.415 24.69L15.885 24.9725C16.6225 25.415 16.99 25.635 17.3837 25.7225C17.7315 25.8012 18.092 25.8046 18.4412 25.7325C18.835 25.65 19.2075 25.4337 19.9487 25.0037L20.5675 24.645C21.3025 24.2175 21.6712 24.0037 21.9362 23.705C22.1737 23.4387 22.3487 23.1262 22.455 22.7875C22.5737 22.4062 22.5675 21.9825 22.5525 21.14L22.5425 20.59C22.5176 20.0818 22.6485 19.5781 22.9175 19.1462L22.9987 19.0087C23.2095 18.6685 23.4988 18.3839 23.8425 18.1787L23.98 18.1025L23.9825 18.1012L24.4337 17.8512C25.1862 17.4337 25.5625 17.2262 25.8362 16.9287C26.0787 16.6662 26.2612 16.3537 26.3725 16.0162C26.4975 15.635 26.4975 15.2075 26.495 14.3575L26.4925 13.64C26.4912 12.7862 26.49 12.3587 26.3637 11.9775C26.2516 11.6409 26.0693 11.332 25.8287 11.0712C25.5575 10.7762 25.185 10.5687 24.44 10.155L24.4375 10.1537Z" stroke="black" stroke-width="2.5" stroke-linecap="round" stroke-linejoin="round"/>
<path d="M9 14C9 15.3261 9.52678 16.5979 10.4645 17.5355C11.4021 18.4732 12.6739 19 14 19C15.3261 19 16.5979 18.4732 17.5355 17.5355C18.4732 16.5979 19 15.3261 19 14C19 12.6739 18.4732 11.4021 17.5355 10.4645C16.5979 9.52678 15.3261 9 14 9C12.6739 9 11.4021 9.52678 10.4645 10.4645C9.52678 11.4021 9 12.6739 9 14Z" stroke="black" stroke-width="2.5" stroke-linecap="round" stroke-linejoin="round"/>
</svg>
