<svg width="28" height="28" viewBox="0 0 28 28" fill="none" xmlns="http://www.w3.org/2000/svg">
<path d="M22.1667 21.9998C22.8739 21.9998 23.5522 22.2808 24.0523 22.7809C24.5524 23.281 24.8333 23.9593 24.8333 24.6665C24.8333 25.3737 24.5524 26.052 24.0523 26.5521C23.5522 27.0522 22.8739 27.3332 22.1667 27.3332C21.4594 27.3332 20.7811 27.0522 20.281 26.5521C19.781 26.052 19.5 25.3737 19.5 24.6665C19.5 23.1865 20.6867 21.9998 22.1667 21.9998ZM0.833336 0.666504H5.19334L6.44667 3.33317H26.1667C26.5203 3.33317 26.8594 3.47365 27.1095 3.7237C27.3595 3.97374 27.5 4.31288 27.5 4.6665C27.5 4.89317 27.4333 5.11984 27.34 5.33317L22.5667 13.9598C22.1133 14.7732 21.2333 15.3332 20.2333 15.3332H10.3L9.1 17.5065L9.06 17.6665C9.06 17.7549 9.09512 17.8397 9.15763 17.9022C9.22015 17.9647 9.30493 17.9998 9.39334 17.9998H24.8333V20.6665H8.83334C8.12609 20.6665 7.44781 20.3856 6.94772 19.8855C6.44762 19.3854 6.16667 18.7071 6.16667 17.9998C6.16667 17.5332 6.28667 17.0932 6.48667 16.7198L8.3 13.4532L3.5 3.33317H0.833336V0.666504ZM8.83334 21.9998C9.54058 21.9998 10.2189 22.2808 10.719 22.7809C11.219 23.281 11.5 23.9593 11.5 24.6665C11.5 25.3737 11.219 26.052 10.719 26.5521C10.2189 27.0522 9.54058 27.3332 8.83334 27.3332C8.12609 27.3332 7.44781 27.0522 6.94772 26.5521C6.44762 26.052 6.16667 25.3737 6.16667 24.6665C6.16667 23.1865 7.35334 21.9998 8.83334 21.9998ZM20.8333 12.6665L24.54 5.99984H7.68667L10.8333 12.6665H20.8333Z" fill="#6A6A6A"/>
</svg>
