<svg width="176" height="176" viewBox="0 0 176 176" fill="none" xmlns="http://www.w3.org/2000/svg">
<mask id="mask0_411_1838" style="mask-type:luminance" maskUnits="userSpaceOnUse" x="20" y="18" width="136" height="140">
<path d="M74.7007 24.3682C82.6247 18.5877 93.3753 18.5877 101.299 24.3682C105.173 27.1939 109.847 28.7124 114.642 28.7036C124.449 28.6855 133.149 35.0047 136.161 44.3385C137.634 48.9022 140.522 52.8782 144.407 55.6894C152.353 61.4392 155.676 71.6635 152.627 80.9857C151.137 85.543 151.137 90.4566 152.627 95.014C155.676 104.336 152.353 114.56 144.407 120.31C140.522 123.121 137.634 127.097 136.161 131.661C133.149 140.995 124.449 147.314 114.642 147.296C109.847 147.287 105.173 148.806 101.299 151.631C93.3753 157.412 82.6247 157.412 74.7007 151.631C70.8272 148.806 66.153 147.287 61.3584 147.296C51.5506 147.314 42.8514 140.995 39.8391 131.661C38.3663 127.097 35.4778 123.121 31.5927 120.31C23.6468 114.56 20.3243 104.336 23.3729 95.014C24.8633 90.4566 24.8633 85.543 23.3729 80.9857C20.3243 71.6635 23.6468 61.4392 31.5927 55.6894C35.4777 52.8782 38.3663 48.9022 39.8391 44.3385C42.8514 35.0047 51.5506 28.6855 61.3584 28.7036C66.153 28.7124 70.8272 27.1939 74.7007 24.3682Z" fill="white" stroke="white" stroke-width="4" stroke-linecap="round" stroke-linejoin="round"/>
<path d="M62.3335 87.9998L80.6668 106.333L117.333 69.6665" stroke="black" stroke-width="6" stroke-linecap="round" stroke-linejoin="round"/>
</mask>
<g mask="url(#mask0_411_1838)">
<path d="M0 0H176V176H0V0Z" fill="white"/>
</g>
</svg>
